G04*
G04 #@! TF.GenerationSoftware,Altium Limited,Altium Designer,21.3.1 (25)*
G04*
G04 Layer_Physical_Order=2*
G04 Layer_Color=13010237*
%FSLAX25Y25*%
%MOIN*%
G70*
G04*
G04 #@! TF.SameCoordinates,0F46E8F8-C812-4C73-86AE-EEEB37A8DDC9*
G04*
G04*
G04 #@! TF.FilePolarity,Positive*
G04*
G01*
G75*
%ADD15C,0.01000*%
%ADD21C,0.00600*%
%ADD43C,0.01200*%
%ADD44C,0.00800*%
%ADD45C,0.05906*%
%ADD46R,0.05906X0.05906*%
%ADD47C,0.18898*%
%ADD48C,0.02400*%
%ADD49R,0.12598X0.06299*%
%ADD50R,0.06299X0.12598*%
%ADD51R,0.05906X0.05906*%
G36*
X141170Y2039D02*
X56863D01*
X56410Y2153D01*
X56410Y2539D01*
Y9658D01*
X50306D01*
X50155Y10158D01*
X50581Y10443D01*
X51067Y11171D01*
X51138Y11529D01*
X46851D01*
X46922Y11171D01*
X47408Y10443D01*
X47835Y10158D01*
X47683Y9658D01*
X41031D01*
Y2539D01*
X41031Y2153D01*
X40578Y2039D01*
X2039D01*
Y213020D01*
X141170D01*
X141170Y2039D01*
D02*
G37*
%LPC*%
G36*
X70417Y210999D02*
X70417Y210999D01*
X38776D01*
X38776Y210999D01*
X38347Y210914D01*
X37983Y210671D01*
X37983Y210671D01*
X25782Y198470D01*
X25539Y198106D01*
X25453Y197677D01*
X25453Y197677D01*
Y194569D01*
X25133Y194355D01*
X24691Y193694D01*
X24536Y192913D01*
X24691Y192133D01*
X25133Y191472D01*
X25770Y191046D01*
X25776Y191009D01*
X25582Y190546D01*
X13420D01*
X13420Y190546D01*
X13312Y190524D01*
X3472D01*
Y182625D01*
X17670D01*
Y188303D01*
X28997D01*
X28997Y188303D01*
X29426Y188388D01*
X29790Y188631D01*
X31313Y190154D01*
X40149D01*
X40418Y189654D01*
X40284Y188976D01*
X40439Y188196D01*
X40881Y187534D01*
X40895Y187525D01*
Y174680D01*
X40881Y174670D01*
X40439Y174009D01*
X40284Y173228D01*
X40439Y172448D01*
X40881Y171786D01*
X40895Y171777D01*
Y153026D01*
X40881Y153017D01*
X40439Y152355D01*
X40284Y151575D01*
X40439Y150794D01*
X40881Y150133D01*
X40895Y150123D01*
Y133341D01*
X40881Y133332D01*
X40439Y132670D01*
X40284Y131890D01*
X40439Y131109D01*
X40881Y130448D01*
X40895Y130438D01*
Y112672D01*
X40881Y112662D01*
X40439Y112001D01*
X40284Y111221D01*
X40439Y110440D01*
X40881Y109778D01*
X40895Y109769D01*
Y91860D01*
X40895Y91860D01*
X40917Y91752D01*
X40776Y91043D01*
X40779Y91026D01*
X36746Y86993D01*
X36436Y86530D01*
X36328Y85984D01*
X36328Y85983D01*
Y61423D01*
X36328Y61423D01*
X36436Y60877D01*
X36746Y60414D01*
X38268Y58891D01*
X38268Y58891D01*
X38732Y58582D01*
X39278Y58473D01*
X39278Y58473D01*
X39902D01*
X40287Y58088D01*
X40284Y58071D01*
X40439Y57291D01*
X40881Y56629D01*
X40902Y56615D01*
X40750Y56115D01*
X35125D01*
Y48610D01*
X41855D01*
Y46591D01*
X41855Y46591D01*
X41594Y46272D01*
X35125D01*
Y38767D01*
X42631D01*
Y44293D01*
X43131Y44526D01*
X43261Y44417D01*
X43236Y44291D01*
X43392Y43511D01*
X43834Y42849D01*
X44495Y42407D01*
X45276Y42252D01*
X46056Y42407D01*
X46718Y42849D01*
X47160Y43511D01*
X47315Y44291D01*
X47160Y45072D01*
X46718Y45733D01*
X46056Y46175D01*
X45276Y46330D01*
X44898Y46255D01*
X44098Y47055D01*
Y50976D01*
X44598Y51245D01*
X45276Y51110D01*
X46056Y51266D01*
X46718Y51708D01*
X47160Y52369D01*
X47315Y53150D01*
X47160Y53930D01*
X46718Y54592D01*
X46397Y54806D01*
Y55328D01*
X46815Y55746D01*
X47058Y56109D01*
X47144Y56539D01*
X47144Y56539D01*
Y61266D01*
X47144Y61266D01*
X47078Y61597D01*
X47160Y61720D01*
X47315Y62500D01*
X47160Y63280D01*
X46718Y63942D01*
X46056Y64384D01*
X45276Y64539D01*
X44495Y64384D01*
X43834Y63942D01*
X43392Y63280D01*
X43236Y62500D01*
X43302Y62172D01*
X43218Y62015D01*
X42884Y61711D01*
X42729D01*
X42318Y62122D01*
X42393Y62500D01*
X42238Y63280D01*
X41796Y63942D01*
X41135Y64384D01*
X40354Y64539D01*
X39682Y64406D01*
X39182Y64678D01*
Y85392D01*
X42798Y89008D01*
X42815Y89004D01*
X43595Y89159D01*
X44257Y89601D01*
X44699Y90263D01*
X44854Y91043D01*
X44699Y91824D01*
X44257Y92485D01*
X43750Y92824D01*
Y109769D01*
X43765Y109778D01*
X44207Y110440D01*
X44362Y111221D01*
X44207Y112001D01*
X43765Y112662D01*
X43750Y112672D01*
Y128408D01*
X44206Y128501D01*
X44250Y128492D01*
X44482Y128144D01*
X44788Y127839D01*
X44713Y127461D01*
X44868Y126680D01*
X45310Y126019D01*
X45972Y125577D01*
X46752Y125422D01*
X47532Y125577D01*
X48194Y126019D01*
X48414Y126348D01*
X48914Y126196D01*
Y88099D01*
X48914Y88099D01*
X48999Y87670D01*
X49242Y87306D01*
X49273Y87275D01*
X49142Y86614D01*
X49297Y85834D01*
X49739Y85172D01*
X50401Y84730D01*
X51181Y84575D01*
X51961Y84730D01*
X52623Y85172D01*
X53065Y85834D01*
X53220Y86614D01*
X53065Y87394D01*
X52623Y88056D01*
X51961Y88498D01*
X51181Y88653D01*
X51157Y88673D01*
Y150148D01*
X51589Y150794D01*
X51744Y151575D01*
X51589Y152355D01*
X51147Y153017D01*
X50485Y153459D01*
X49705Y153614D01*
X49027Y153479D01*
X48527Y153749D01*
Y157010D01*
X48611Y157136D01*
X48696Y157565D01*
Y165896D01*
X49128Y166542D01*
X49283Y167323D01*
X49128Y168103D01*
X48686Y168765D01*
X48024Y169207D01*
X47244Y169362D01*
X46464Y169207D01*
X45802Y168765D01*
X45360Y168103D01*
X45205Y167323D01*
X45360Y166542D01*
X45802Y165881D01*
X46453Y165446D01*
Y163099D01*
X45953Y162830D01*
X45276Y162964D01*
X44495Y162809D01*
X44250Y162645D01*
X43750Y162913D01*
Y171777D01*
X43765Y171786D01*
X44207Y172448D01*
X44362Y173228D01*
X44207Y174009D01*
X43765Y174670D01*
X43750Y174680D01*
Y183052D01*
X44250Y183319D01*
X44495Y183155D01*
X45276Y183000D01*
X46056Y183155D01*
X46718Y183598D01*
X47160Y184259D01*
X47234Y184636D01*
X47311Y184693D01*
X47782Y184826D01*
X48354Y184443D01*
X48713Y184372D01*
Y186516D01*
Y188659D01*
X48354Y188588D01*
X47627Y188102D01*
X47140Y187374D01*
X47115Y187247D01*
X46561Y187024D01*
X46397Y187138D01*
Y189275D01*
X46312Y189704D01*
X46069Y190068D01*
X46069Y190068D01*
X45079Y191058D01*
X45270Y191520D01*
X48221D01*
Y198319D01*
X44571D01*
Y192219D01*
X44109Y192028D01*
X44068Y192069D01*
X43704Y192312D01*
X43275Y192397D01*
X43275Y192397D01*
X42670D01*
Y205918D01*
X37056D01*
X36864Y206380D01*
X39241Y208756D01*
X61463D01*
X61770Y208256D01*
X61734Y208079D01*
X66022D01*
X65986Y208256D01*
X66293Y208756D01*
X69953D01*
X79771Y198938D01*
Y193905D01*
X79271Y193754D01*
X79198Y193863D01*
X78536Y194305D01*
X77756Y194460D01*
X76976Y194305D01*
X76314Y193863D01*
X75872Y193202D01*
X75717Y192421D01*
X75872Y191641D01*
X76314Y190979D01*
X76976Y190537D01*
X77756Y190382D01*
X78279Y190486D01*
X79771Y188995D01*
Y182625D01*
X93969D01*
Y190524D01*
X81413D01*
X79944Y191994D01*
X80044Y192529D01*
X80264Y192625D01*
X93969D01*
Y200524D01*
X81357D01*
X71210Y210671D01*
X70846Y210914D01*
X70417Y210999D01*
D02*
G37*
G36*
X63378Y207079D02*
X61734D01*
X61806Y206720D01*
X62007Y206418D01*
X61740Y205918D01*
X54771D01*
Y191720D01*
X54771Y191720D01*
X54589Y191295D01*
X54218Y190741D01*
X54063Y189961D01*
X54218Y189180D01*
X54660Y188519D01*
X54981Y188305D01*
Y169471D01*
X54660Y169257D01*
X54218Y168595D01*
X54063Y167815D01*
X54218Y167035D01*
X54660Y166373D01*
X55322Y165931D01*
X56102Y165776D01*
X56883Y165931D01*
X57544Y166373D01*
X57986Y167035D01*
X58141Y167815D01*
X57986Y168595D01*
X57544Y169257D01*
X57224Y169471D01*
Y188305D01*
X57544Y188519D01*
X57986Y189180D01*
X58141Y189961D01*
X57986Y190741D01*
X57666Y191220D01*
X57901Y191720D01*
X62670D01*
Y205184D01*
X63170Y205476D01*
X63378Y205435D01*
Y207079D01*
D02*
G37*
G36*
X66022D02*
X64378D01*
Y205435D01*
X64736Y205506D01*
X65464Y205993D01*
X65950Y206720D01*
X66022Y207079D01*
D02*
G37*
G36*
X106622Y210737D02*
Y200795D01*
X116564D01*
X116474Y201935D01*
X116090Y203534D01*
X115461Y205054D01*
X114602Y206456D01*
X113533Y207707D01*
X112283Y208775D01*
X110880Y209634D01*
X109361Y210263D01*
X107762Y210647D01*
X106622Y210737D01*
D02*
G37*
G36*
X105622D02*
X104482Y210647D01*
X102883Y210263D01*
X101364Y209634D01*
X99961Y208775D01*
X98711Y207707D01*
X97643Y206456D01*
X96783Y205054D01*
X96154Y203534D01*
X95770Y201935D01*
X95680Y200795D01*
X105622D01*
Y210737D01*
D02*
G37*
G36*
X52870Y206118D02*
X49220D01*
Y199319D01*
X52870D01*
Y206118D01*
D02*
G37*
G36*
X48221D02*
X44571D01*
Y199319D01*
X48221D01*
Y206118D01*
D02*
G37*
G36*
X17670Y200524D02*
X3472D01*
Y192625D01*
X17670D01*
Y200524D01*
D02*
G37*
G36*
X52870Y198319D02*
X49220D01*
Y191520D01*
X52870D01*
Y198319D01*
D02*
G37*
G36*
X105622Y199795D02*
X95680D01*
X95770Y198656D01*
X96154Y197056D01*
X96783Y195537D01*
X97643Y194135D01*
X98711Y192884D01*
X99961Y191816D01*
X101364Y190956D01*
X102883Y190327D01*
X104482Y189943D01*
X105622Y189854D01*
Y199795D01*
D02*
G37*
G36*
X116564D02*
X106622D01*
Y189854D01*
X107762Y189943D01*
X109361Y190327D01*
X110880Y190956D01*
X112283Y191816D01*
X113533Y192884D01*
X114602Y194135D01*
X115461Y195537D01*
X116090Y197056D01*
X116474Y198656D01*
X116564Y199795D01*
D02*
G37*
G36*
X49713Y188659D02*
Y187016D01*
X51356D01*
X51285Y187374D01*
X50799Y188102D01*
X50071Y188588D01*
X49713Y188659D01*
D02*
G37*
G36*
X51356Y186016D02*
X49713D01*
Y184372D01*
X50071Y184443D01*
X50799Y184930D01*
X51285Y185657D01*
X51356Y186016D01*
D02*
G37*
G36*
X20185Y178817D02*
Y177173D01*
X21829D01*
X21757Y177532D01*
X21271Y178259D01*
X20543Y178746D01*
X20185Y178817D01*
D02*
G37*
G36*
X94169Y180724D02*
X87370D01*
Y177075D01*
X94169D01*
Y180724D01*
D02*
G37*
G36*
X10071D02*
X3272D01*
Y177075D01*
X10071D01*
Y180724D01*
D02*
G37*
G36*
X21829Y176173D02*
X20185D01*
Y174530D01*
X20543Y174601D01*
X21271Y175087D01*
X21757Y175815D01*
X21829Y176173D01*
D02*
G37*
G36*
X17870Y180724D02*
X11071D01*
Y176575D01*
Y172425D01*
X17870D01*
Y174639D01*
X18370Y174906D01*
X18827Y174601D01*
X19185Y174530D01*
Y176673D01*
Y178817D01*
X18827Y178746D01*
X18370Y178440D01*
X17870Y178708D01*
Y180724D01*
D02*
G37*
G36*
X94169Y176075D02*
X87370D01*
Y172425D01*
X94169D01*
Y176075D01*
D02*
G37*
G36*
X76279Y190031D02*
X75499Y189876D01*
X74838Y189434D01*
X74396Y188772D01*
X74240Y187992D01*
X74316Y187611D01*
X74232Y187485D01*
X74123Y186938D01*
X74123Y186938D01*
Y175498D01*
X74123Y175498D01*
X74232Y174952D01*
X74541Y174489D01*
X75344Y173686D01*
Y170251D01*
X75330Y170241D01*
X74888Y169580D01*
X74733Y168799D01*
X74818Y168369D01*
X74713Y167844D01*
X74713Y167844D01*
Y154435D01*
X74713Y154435D01*
X74822Y153889D01*
X75132Y153426D01*
X75344Y153213D01*
Y149582D01*
X75330Y149572D01*
X74888Y148910D01*
X74733Y148130D01*
X74814Y147719D01*
X74802Y147700D01*
X74693Y147154D01*
X74693Y147154D01*
Y128420D01*
X74678Y128410D01*
X74237Y127749D01*
X74081Y126969D01*
X74139Y126677D01*
X73838Y126226D01*
X73729Y125680D01*
X73729Y125680D01*
Y109652D01*
X73729Y109652D01*
X73838Y109106D01*
X74147Y108642D01*
X74463Y108326D01*
Y107911D01*
X74237Y107572D01*
X74081Y106791D01*
X74237Y106011D01*
X74678Y105349D01*
X74693Y105340D01*
Y88066D01*
X74678Y88056D01*
X74237Y87394D01*
X74081Y86614D01*
X74139Y86326D01*
X73794Y85982D01*
X73484Y85518D01*
X73376Y84972D01*
X73376Y84972D01*
Y68873D01*
X73361Y68863D01*
X72919Y68202D01*
X72764Y67421D01*
X72919Y66641D01*
X73361Y65979D01*
X73868Y65641D01*
Y46727D01*
X73853Y46718D01*
X73411Y46056D01*
X73256Y45276D01*
X73411Y44495D01*
X73853Y43834D01*
X73868Y43824D01*
Y26550D01*
X73853Y26540D01*
X73411Y25879D01*
X73256Y25098D01*
X73411Y24318D01*
X73729Y23842D01*
Y13067D01*
X73411Y12591D01*
X73256Y11811D01*
X73411Y11031D01*
X73853Y10369D01*
X74515Y9927D01*
X75295Y9772D01*
X75312Y9775D01*
X76973Y8115D01*
X76973Y8115D01*
X77436Y7806D01*
X77982Y7697D01*
X77982Y7697D01*
X79771D01*
Y2625D01*
X93969D01*
Y10524D01*
X84459D01*
X84320Y10552D01*
X84320Y10552D01*
X78573D01*
X77331Y11794D01*
X77334Y11811D01*
X77179Y12591D01*
X76737Y13253D01*
X76584Y13355D01*
Y18743D01*
X77084Y19052D01*
X77256Y19018D01*
Y21161D01*
X77756D01*
Y21661D01*
X79900D01*
X79847Y21925D01*
X80027Y22264D01*
X80159Y22425D01*
X86370D01*
Y26575D01*
Y30724D01*
X80449D01*
X80320Y31370D01*
X79834Y32098D01*
X79793Y32125D01*
X79945Y32625D01*
X80223Y32625D01*
X93969D01*
Y37857D01*
X94469Y38107D01*
X94639Y37980D01*
Y32032D01*
X94523Y31954D01*
X94081Y31292D01*
X93968Y30724D01*
X87370D01*
Y27075D01*
X94169D01*
Y28767D01*
X94669Y28972D01*
X95184Y28628D01*
X95965Y28473D01*
X96745Y28628D01*
X97407Y29070D01*
X97848Y29732D01*
X98004Y30512D01*
X97848Y31292D01*
X97407Y31954D01*
X97290Y32032D01*
Y38767D01*
X97189Y39274D01*
X96902Y39704D01*
X94645Y41961D01*
X94234Y42235D01*
X93969Y42625D01*
Y50524D01*
X79771D01*
Y42625D01*
X85545D01*
Y42325D01*
X85646Y41818D01*
X85933Y41388D01*
X86334Y40986D01*
X86143Y40524D01*
X79771D01*
Y33072D01*
X79771Y32742D01*
X79360Y32419D01*
X79106Y32584D01*
X78929Y32619D01*
X78748Y32656D01*
Y30512D01*
X77748D01*
Y32656D01*
X77390Y32584D01*
X77164Y32433D01*
X76723Y32669D01*
Y43824D01*
X76737Y43834D01*
X77179Y44495D01*
X77334Y45276D01*
X77179Y46056D01*
X76737Y46718D01*
X76723Y46727D01*
Y66604D01*
X76723Y66604D01*
X76701Y66712D01*
X76842Y67421D01*
X76687Y68202D01*
X76245Y68863D01*
X76231Y68873D01*
Y78937D01*
X76731Y79077D01*
X77390Y78636D01*
X77748Y78565D01*
Y80709D01*
Y82852D01*
X77390Y82781D01*
X76731Y82341D01*
X76231Y82481D01*
Y84381D01*
X76500Y84650D01*
X76901Y84730D01*
X77562Y85172D01*
X78004Y85834D01*
X78160Y86614D01*
X78004Y87394D01*
X77562Y88056D01*
X77548Y88066D01*
Y105340D01*
X77562Y105349D01*
X78004Y106011D01*
X78160Y106791D01*
X78004Y107572D01*
X77574Y108215D01*
X77600Y108323D01*
X77719Y108603D01*
X77775Y108693D01*
X78536Y108844D01*
X79198Y109286D01*
X79271Y109396D01*
X79771Y109244D01*
Y102625D01*
X93969D01*
Y105453D01*
X95341D01*
X99124Y101670D01*
X99488Y101427D01*
X99917Y101342D01*
X99917Y101342D01*
X100007D01*
X100403Y100946D01*
X100224Y100418D01*
X99552Y100329D01*
X98639Y99951D01*
X97855Y99350D01*
X97254Y98566D01*
X96875Y97653D01*
X96746Y96673D01*
X96875Y95694D01*
X97254Y94781D01*
X97855Y93997D01*
X98639Y93395D01*
X99552Y93017D01*
X100531Y92888D01*
X101511Y93017D01*
X102424Y93395D01*
X103201Y93992D01*
X103391Y93967D01*
X103701Y93862D01*
Y88579D01*
X103391Y88474D01*
X103201Y88449D01*
X102424Y89046D01*
X101511Y89424D01*
X100531Y89553D01*
X99552Y89424D01*
X98639Y89046D01*
X97855Y88444D01*
X97254Y87660D01*
X96875Y86747D01*
X96746Y85768D01*
X96875Y84788D01*
X97254Y83875D01*
X97855Y83091D01*
X98639Y82490D01*
X99552Y82112D01*
X100531Y81983D01*
X101511Y82112D01*
X102424Y82490D01*
X103201Y83086D01*
X103391Y83062D01*
X103701Y82956D01*
Y77674D01*
X103391Y77568D01*
X103201Y77544D01*
X102424Y78140D01*
X101511Y78518D01*
X100531Y78647D01*
X99552Y78518D01*
X98639Y78140D01*
X97855Y77539D01*
X97254Y76755D01*
X96875Y75842D01*
X96746Y74862D01*
X96875Y73883D01*
X97254Y72970D01*
X97855Y72186D01*
X98639Y71584D01*
X99552Y71206D01*
X100531Y71077D01*
X101511Y71206D01*
X102424Y71584D01*
X103201Y72181D01*
X103391Y72156D01*
X103701Y72051D01*
Y66768D01*
X103391Y66663D01*
X103201Y66638D01*
X102424Y67235D01*
X101511Y67613D01*
X100531Y67742D01*
X99552Y67613D01*
X98639Y67235D01*
X97855Y66633D01*
X97254Y65849D01*
X96875Y64936D01*
X96746Y63957D01*
X96875Y62977D01*
X97254Y62064D01*
X97855Y61280D01*
X98639Y60679D01*
X99552Y60300D01*
X100531Y60172D01*
X101511Y60300D01*
X102424Y60679D01*
X103201Y61275D01*
X103391Y61251D01*
X103701Y61145D01*
Y55863D01*
X103391Y55757D01*
X103201Y55733D01*
X102424Y56329D01*
X101511Y56707D01*
X100531Y56836D01*
X99552Y56707D01*
X98639Y56329D01*
X97855Y55728D01*
X97254Y54944D01*
X96875Y54031D01*
X96746Y53051D01*
X96875Y52071D01*
X97254Y51159D01*
X97855Y50375D01*
X98639Y49773D01*
X99552Y49395D01*
X100531Y49266D01*
X101511Y49395D01*
X102424Y49773D01*
X103201Y50370D01*
X103391Y50345D01*
X103701Y50240D01*
Y44957D01*
X103391Y44852D01*
X103201Y44827D01*
X102424Y45424D01*
X101511Y45802D01*
X100531Y45931D01*
X99552Y45802D01*
X98639Y45424D01*
X97855Y44822D01*
X97254Y44038D01*
X96875Y43125D01*
X96746Y42146D01*
X96875Y41166D01*
X97254Y40253D01*
X97855Y39469D01*
X98639Y38868D01*
X99552Y38489D01*
X100531Y38361D01*
X101511Y38489D01*
X102424Y38868D01*
X103201Y39464D01*
X103391Y39440D01*
X103701Y39334D01*
Y30199D01*
X103381Y29985D01*
X102939Y29324D01*
X102784Y28543D01*
X102939Y27763D01*
X103381Y27101D01*
X104042Y26659D01*
X104823Y26504D01*
X105603Y26659D01*
X106265Y27101D01*
X106707Y27763D01*
X106862Y28543D01*
X106707Y29324D01*
X106265Y29985D01*
X105944Y30199D01*
Y89019D01*
X106406Y89210D01*
X110915Y84701D01*
X110736Y84173D01*
X110681Y84166D01*
X109719Y83768D01*
X108894Y83134D01*
X108260Y82308D01*
X107862Y81347D01*
X107792Y80815D01*
X111713D01*
X115634D01*
X115564Y81347D01*
X115165Y82308D01*
X114532Y83134D01*
X114034Y83516D01*
X114203Y84016D01*
X114978D01*
X115192Y83696D01*
X115854Y83254D01*
X116634Y83099D01*
X117414Y83254D01*
X118076Y83696D01*
X118518Y84357D01*
X118673Y85138D01*
X118518Y85918D01*
X118076Y86580D01*
X117414Y87022D01*
X116634Y87177D01*
X115854Y87022D01*
X115192Y86580D01*
X114978Y86259D01*
X112530D01*
X112019Y86770D01*
X112198Y87298D01*
X112744Y87370D01*
X113706Y87768D01*
X114532Y88401D01*
X115165Y89227D01*
X115564Y90189D01*
X115634Y90720D01*
X111713D01*
Y91220D01*
X111213D01*
Y95142D01*
X110681Y95072D01*
X109719Y94673D01*
X108894Y94040D01*
X108260Y93214D01*
X107862Y92252D01*
X107844Y92122D01*
X107344Y92154D01*
Y101192D01*
X107844Y101225D01*
X107862Y101094D01*
X108260Y100133D01*
X108894Y99307D01*
X109719Y98673D01*
X110681Y98275D01*
X111213Y98205D01*
Y102126D01*
Y106047D01*
X110681Y105977D01*
X109719Y105579D01*
X108894Y104945D01*
X108260Y104119D01*
X107862Y103158D01*
X107844Y103027D01*
X107344Y103060D01*
Y112098D01*
X107844Y112130D01*
X107862Y112000D01*
X108260Y111038D01*
X108894Y110212D01*
X109719Y109579D01*
X110681Y109180D01*
X111213Y109110D01*
Y113031D01*
Y116953D01*
X110681Y116883D01*
X109719Y116484D01*
X108894Y115851D01*
X108260Y115025D01*
X107862Y114063D01*
X107844Y113933D01*
X107344Y113965D01*
Y123003D01*
X107844Y123036D01*
X107862Y122905D01*
X108260Y121944D01*
X108894Y121118D01*
X109719Y120484D01*
X110681Y120086D01*
X111213Y120016D01*
Y123937D01*
Y127858D01*
X110681Y127788D01*
X109719Y127390D01*
X108894Y126756D01*
X108260Y125930D01*
X107862Y124969D01*
X107844Y124838D01*
X107344Y124871D01*
Y140334D01*
X107259Y140763D01*
X107016Y141127D01*
X107016Y141127D01*
X101150Y146993D01*
X101330Y147521D01*
X101511Y147545D01*
X102424Y147923D01*
X103208Y148524D01*
X103809Y149308D01*
X104188Y150221D01*
X104317Y151201D01*
X104188Y152180D01*
X103809Y153093D01*
X103208Y153877D01*
X102424Y154479D01*
X101511Y154857D01*
X100531Y154986D01*
X99552Y154857D01*
X98639Y154479D01*
X97855Y153877D01*
X97254Y153093D01*
X96875Y152180D01*
X96746Y151201D01*
X96875Y150221D01*
X97254Y149308D01*
X97855Y148524D01*
X98282Y148196D01*
X98113Y147696D01*
X93969D01*
Y150524D01*
X79771D01*
Y142625D01*
X93969D01*
Y145453D01*
X99518D01*
X100403Y144568D01*
X100224Y144040D01*
X99552Y143951D01*
X98639Y143573D01*
X97855Y142972D01*
X97254Y142188D01*
X96875Y141275D01*
X96746Y140295D01*
X96875Y139316D01*
X97254Y138403D01*
X97855Y137619D01*
X98639Y137017D01*
X99552Y136639D01*
X100531Y136510D01*
X101511Y136639D01*
X102424Y137017D01*
X103208Y137619D01*
X103809Y138403D01*
X104188Y139316D01*
X104274Y139974D01*
X104716Y140132D01*
X105101Y139813D01*
Y100073D01*
X104639Y99882D01*
X101265Y103256D01*
X101103Y103365D01*
X101224Y103885D01*
X101511Y103923D01*
X102424Y104301D01*
X103208Y104902D01*
X103809Y105686D01*
X104188Y106599D01*
X104317Y107579D01*
X104188Y108558D01*
X103809Y109471D01*
X103208Y110255D01*
X102424Y110857D01*
X101511Y111235D01*
X100531Y111364D01*
X99552Y111235D01*
X98639Y110857D01*
X97855Y110255D01*
X97254Y109471D01*
X96875Y108558D01*
X96782Y107847D01*
X96265Y107590D01*
X96234Y107611D01*
X95805Y107696D01*
X95805Y107696D01*
X93969D01*
Y110524D01*
X93969D01*
X93805Y110921D01*
X95061Y112177D01*
X95062Y112177D01*
X95305Y112541D01*
X95390Y112970D01*
Y132326D01*
X95390Y132326D01*
X95305Y132755D01*
X95062Y133119D01*
X95061Y133119D01*
X93969Y134211D01*
Y140524D01*
X79771D01*
Y133910D01*
X79271Y133535D01*
X79240Y133541D01*
Y131398D01*
Y129197D01*
X79571Y128926D01*
Y127075D01*
X86870D01*
Y126575D01*
X87370D01*
Y122425D01*
X93147D01*
Y120524D01*
X79771D01*
Y112625D01*
X91328D01*
X91576Y112125D01*
X91441Y111945D01*
X79348D01*
X79198Y112170D01*
X78536Y112612D01*
X77756Y112768D01*
X77084Y112634D01*
X76584Y112906D01*
Y125022D01*
X76901Y125084D01*
X77562Y125527D01*
X78004Y126188D01*
X78160Y126969D01*
X78004Y127749D01*
X77562Y128410D01*
X77548Y128420D01*
Y128993D01*
X78048Y129292D01*
X78240Y129254D01*
Y131398D01*
Y133541D01*
X78048Y133503D01*
X77548Y133802D01*
Y146245D01*
X77552Y146246D01*
X78214Y146688D01*
X78656Y147350D01*
X78811Y148130D01*
X78656Y148910D01*
X78214Y149572D01*
X78199Y149582D01*
Y153186D01*
X78586Y153503D01*
X78740Y153473D01*
X79271Y153578D01*
X79771Y153240D01*
Y152625D01*
X93969D01*
Y160524D01*
X79771D01*
Y157784D01*
X79271Y157445D01*
X78740Y157551D01*
X78068Y157417D01*
X77568Y157690D01*
Y162192D01*
X78068Y162464D01*
X78740Y162331D01*
X79200Y162422D01*
X79343Y162451D01*
X79343Y162451D01*
X79520Y162486D01*
X79663Y162581D01*
X80125Y162625D01*
X93969D01*
Y170524D01*
X79771D01*
Y166642D01*
X79271Y166304D01*
X78740Y166409D01*
X78113Y166285D01*
X77691Y166579D01*
X77680Y167001D01*
X78214Y167357D01*
X78656Y168019D01*
X78811Y168799D01*
X78656Y169580D01*
X78214Y170241D01*
X78199Y170251D01*
Y174277D01*
X78187Y174339D01*
X79008Y174503D01*
X79130Y174584D01*
X79571Y174348D01*
Y172425D01*
X86370D01*
Y176575D01*
Y180724D01*
X79571D01*
Y178801D01*
X79130Y178566D01*
X79008Y178647D01*
X78650Y178718D01*
Y176575D01*
X77650D01*
Y178718D01*
X77478Y178684D01*
X76978Y178993D01*
Y186092D01*
X77060Y186108D01*
X77722Y186550D01*
X78163Y187212D01*
X78319Y187992D01*
X78163Y188772D01*
X77722Y189434D01*
X77060Y189876D01*
X76279Y190031D01*
D02*
G37*
G36*
X10071Y176075D02*
X3272D01*
Y172425D01*
X10071D01*
Y176075D01*
D02*
G37*
G36*
X104284Y176765D02*
X96779D01*
Y169259D01*
X104284D01*
Y176765D01*
D02*
G37*
G36*
X17670Y170524D02*
X3472D01*
Y162625D01*
X17670D01*
Y164841D01*
X18170Y165109D01*
X18413Y164947D01*
X19193Y164792D01*
X19973Y164947D01*
X20635Y165389D01*
X21077Y166050D01*
X21232Y166831D01*
X21077Y167611D01*
X20635Y168273D01*
X19973Y168715D01*
X19193Y168870D01*
X18413Y168715D01*
X18170Y168553D01*
X17670Y168820D01*
Y170524D01*
D02*
G37*
G36*
X111713Y171344D02*
X110733Y171215D01*
X109820Y170837D01*
X109036Y170236D01*
X108435Y169452D01*
X108056Y168539D01*
X107928Y167559D01*
X108056Y166579D01*
X108435Y165666D01*
X109036Y164883D01*
X109820Y164281D01*
X110733Y163903D01*
X111713Y163774D01*
X112692Y163903D01*
X113605Y164281D01*
X114389Y164883D01*
X114991Y165666D01*
X115369Y166579D01*
X115498Y167559D01*
X115369Y168539D01*
X114991Y169452D01*
X114389Y170236D01*
X113605Y170837D01*
X112692Y171215D01*
X111713Y171344D01*
D02*
G37*
G36*
X100531Y165891D02*
X99552Y165762D01*
X98639Y165384D01*
X97855Y164783D01*
X97254Y163999D01*
X96875Y163086D01*
X96746Y162106D01*
X96875Y161127D01*
X97254Y160214D01*
X97855Y159430D01*
X98639Y158828D01*
X99552Y158450D01*
X100531Y158321D01*
X101511Y158450D01*
X102424Y158828D01*
X103208Y159430D01*
X103809Y160214D01*
X104188Y161127D01*
X104317Y162106D01*
X104188Y163086D01*
X103809Y163999D01*
X103208Y164783D01*
X102424Y165384D01*
X101511Y165762D01*
X100531Y165891D01*
D02*
G37*
G36*
X55618Y159624D02*
Y157980D01*
X57262D01*
X57191Y158339D01*
X56704Y159066D01*
X55976Y159553D01*
X55618Y159624D01*
D02*
G37*
G36*
X54618D02*
X54260Y159553D01*
X53532Y159066D01*
X53046Y158339D01*
X52974Y157980D01*
X54618D01*
Y159624D01*
D02*
G37*
G36*
X22153Y157655D02*
Y156012D01*
X23797D01*
X23726Y156370D01*
X23240Y157098D01*
X22512Y157584D01*
X22153Y157655D01*
D02*
G37*
G36*
X21154D02*
X20795Y157584D01*
X20067Y157098D01*
X19581Y156370D01*
X19510Y156012D01*
X21154D01*
Y157655D01*
D02*
G37*
G36*
X57262Y156980D02*
X55618D01*
Y155337D01*
X55976Y155408D01*
X56704Y155894D01*
X57191Y156622D01*
X57262Y156980D01*
D02*
G37*
G36*
X54618D02*
X52974D01*
X53046Y156622D01*
X53532Y155894D01*
X54260Y155408D01*
X54618Y155337D01*
Y156980D01*
D02*
G37*
G36*
X17670Y160524D02*
X3472D01*
Y152625D01*
X16084D01*
X17091Y151618D01*
X17091Y151618D01*
X17455Y151375D01*
X17797Y151307D01*
X17801Y151287D01*
X18243Y150625D01*
X18905Y150183D01*
X19685Y150028D01*
X20465Y150183D01*
X21127Y150625D01*
X21569Y151287D01*
X21724Y152067D01*
X21582Y152783D01*
X21598Y152893D01*
X21861Y153310D01*
X22512Y153439D01*
X23240Y153926D01*
X23726Y154653D01*
X23797Y155012D01*
X19510D01*
X19581Y154653D01*
X19624Y154589D01*
X19385Y154046D01*
X18905Y153951D01*
X18321Y153561D01*
X17670Y154211D01*
Y160524D01*
D02*
G37*
G36*
X56110Y142892D02*
Y141248D01*
X57754D01*
X57683Y141606D01*
X57196Y142334D01*
X56469Y142820D01*
X56110Y142892D01*
D02*
G37*
G36*
X55110D02*
X54752Y142820D01*
X54024Y142334D01*
X53538Y141606D01*
X53467Y141248D01*
X55110D01*
Y142892D01*
D02*
G37*
G36*
X57754Y140248D02*
X56110D01*
Y138604D01*
X56469Y138676D01*
X57196Y139162D01*
X57683Y139890D01*
X57754Y140248D01*
D02*
G37*
G36*
X55110D02*
X53467D01*
X53538Y139890D01*
X54024Y139162D01*
X54752Y138676D01*
X55110Y138604D01*
Y140248D01*
D02*
G37*
G36*
X26750Y131390D02*
X25106D01*
Y129746D01*
X25465Y129817D01*
X26192Y130304D01*
X26679Y131031D01*
X26750Y131390D01*
D02*
G37*
G36*
X17670Y150524D02*
X3472D01*
Y142625D01*
X15796D01*
X17396Y141024D01*
X17189Y140524D01*
X3472D01*
Y132625D01*
X17670D01*
Y135095D01*
X19574D01*
X19719Y134877D01*
X20381Y134435D01*
X20516Y134408D01*
Y133898D01*
X19889Y133774D01*
X19227Y133332D01*
X18785Y132670D01*
X18630Y131890D01*
X18785Y131109D01*
X19227Y130448D01*
X19889Y130006D01*
X20669Y129851D01*
X21450Y130006D01*
X22111Y130448D01*
X22217Y130606D01*
X22818D01*
X23020Y130304D01*
X23748Y129817D01*
X24106Y129746D01*
Y131890D01*
X24606D01*
Y132390D01*
X26750D01*
X26679Y132748D01*
X26192Y133476D01*
X25465Y133962D01*
X25201Y134015D01*
X24926Y134579D01*
X24986Y134881D01*
Y137354D01*
X24986Y137354D01*
X24885Y137861D01*
X24598Y138291D01*
X21312Y141577D01*
X20882Y141864D01*
X20375Y141965D01*
X20205D01*
X17670Y144500D01*
Y150524D01*
D02*
G37*
G36*
X10071Y130724D02*
X3272D01*
Y127075D01*
X10071D01*
Y130724D01*
D02*
G37*
G36*
X111713Y138628D02*
X110733Y138499D01*
X109820Y138120D01*
X109036Y137519D01*
X108435Y136735D01*
X108056Y135822D01*
X107928Y134843D01*
X108056Y133863D01*
X108435Y132950D01*
X109036Y132166D01*
X109820Y131564D01*
X110733Y131186D01*
X111713Y131057D01*
X112692Y131186D01*
X113463Y131506D01*
X114643Y130326D01*
Y127301D01*
X114143Y127054D01*
X113706Y127390D01*
X112744Y127788D01*
X112213Y127858D01*
Y123937D01*
Y120016D01*
X112744Y120086D01*
X113706Y120484D01*
X114143Y120820D01*
X114643Y120573D01*
Y116395D01*
X114143Y116149D01*
X113706Y116484D01*
X112744Y116883D01*
X112213Y116953D01*
Y113031D01*
Y109110D01*
X112744Y109180D01*
X113706Y109579D01*
X114143Y109914D01*
X114643Y109668D01*
Y109137D01*
X114643Y109137D01*
X114728Y108708D01*
X114971Y108344D01*
X116638Y106677D01*
X116563Y106299D01*
X116718Y105519D01*
X117160Y104857D01*
X117822Y104415D01*
X118602Y104260D01*
X119383Y104415D01*
X120044Y104857D01*
X120486Y105519D01*
X120642Y106299D01*
X120486Y107080D01*
X120044Y107741D01*
X119383Y108183D01*
X118602Y108338D01*
X118225Y108263D01*
X116886Y109602D01*
Y130790D01*
X116886Y130791D01*
X116801Y131220D01*
X116558Y131584D01*
X116558Y131584D01*
X115049Y133092D01*
X115369Y133863D01*
X115498Y134843D01*
X115369Y135822D01*
X114991Y136735D01*
X114389Y137519D01*
X113605Y138120D01*
X112692Y138499D01*
X111713Y138628D01*
D02*
G37*
G36*
X20185Y128620D02*
Y126976D01*
X21829D01*
X21757Y127335D01*
X21271Y128062D01*
X20543Y128549D01*
X20185Y128620D01*
D02*
G37*
G36*
X100531Y133175D02*
X99552Y133046D01*
X98639Y132668D01*
X97855Y132066D01*
X97254Y131282D01*
X96875Y130369D01*
X96746Y129390D01*
X96875Y128410D01*
X97254Y127497D01*
X97855Y126713D01*
X98639Y126112D01*
X99552Y125734D01*
X100531Y125605D01*
X101511Y125734D01*
X102424Y126112D01*
X103208Y126713D01*
X103809Y127497D01*
X104188Y128410D01*
X104317Y129390D01*
X104188Y130369D01*
X103809Y131282D01*
X103208Y132066D01*
X102424Y132668D01*
X101511Y133046D01*
X100531Y133175D01*
D02*
G37*
G36*
X21829Y125976D02*
X20185D01*
Y124333D01*
X20543Y124404D01*
X21271Y124890D01*
X21757Y125618D01*
X21829Y125976D01*
D02*
G37*
G36*
X17870Y130724D02*
X11071D01*
Y126575D01*
Y122425D01*
X17870D01*
Y124442D01*
X18370Y124709D01*
X18827Y124404D01*
X19185Y124333D01*
Y126476D01*
Y128620D01*
X18827Y128549D01*
X18370Y128244D01*
X17870Y128511D01*
Y130724D01*
D02*
G37*
G36*
X86370Y126075D02*
X79571D01*
Y122425D01*
X86370D01*
Y126075D01*
D02*
G37*
G36*
X10071Y126075D02*
X3272D01*
Y122425D01*
X10071D01*
Y126075D01*
D02*
G37*
G36*
X32480Y165425D02*
X31700Y165270D01*
X31038Y164828D01*
X30596Y164166D01*
X30441Y163386D01*
X30596Y162606D01*
X31038Y161944D01*
X31257Y161798D01*
Y128019D01*
X23209Y119972D01*
X22638Y120108D01*
X22255Y120681D01*
X21528Y121167D01*
X21169Y121238D01*
Y119095D01*
X20669D01*
Y118595D01*
X18526D01*
X18585Y118298D01*
X18522Y118096D01*
X18363Y117798D01*
X17670D01*
Y120524D01*
X3472D01*
Y112625D01*
X17670D01*
Y115351D01*
X21543D01*
X22011Y115444D01*
X22408Y115710D01*
X33345Y126647D01*
X33611Y127044D01*
X33704Y127513D01*
Y161798D01*
X33922Y161944D01*
X34364Y162606D01*
X34519Y163386D01*
X34364Y164166D01*
X33922Y164828D01*
X33261Y165270D01*
X32480Y165425D01*
D02*
G37*
G36*
X20169Y121238D02*
X19811Y121167D01*
X19083Y120681D01*
X18597Y119953D01*
X18526Y119595D01*
X20169D01*
Y121238D01*
D02*
G37*
G36*
X55618Y117301D02*
Y115657D01*
X57262D01*
X57191Y116016D01*
X56704Y116744D01*
X55976Y117230D01*
X55618Y117301D01*
D02*
G37*
G36*
X54618D02*
X54260Y117230D01*
X53532Y116744D01*
X53046Y116016D01*
X52974Y115657D01*
X54618D01*
Y117301D01*
D02*
G37*
G36*
X100531Y122269D02*
X99552Y122140D01*
X98639Y121762D01*
X97855Y121161D01*
X97254Y120377D01*
X96875Y119464D01*
X96746Y118484D01*
X96875Y117505D01*
X97254Y116592D01*
X97855Y115808D01*
X98639Y115206D01*
X99552Y114828D01*
X100531Y114699D01*
X101511Y114828D01*
X102424Y115206D01*
X103208Y115808D01*
X103809Y116592D01*
X104188Y117505D01*
X104317Y118484D01*
X104188Y119464D01*
X103809Y120377D01*
X103208Y121161D01*
X102424Y121762D01*
X101511Y122140D01*
X100531Y122269D01*
D02*
G37*
G36*
X36909Y157513D02*
X36129Y157358D01*
X35467Y156916D01*
X35026Y156254D01*
X34870Y155474D01*
X35026Y154694D01*
X35467Y154032D01*
X35788Y153818D01*
Y116114D01*
X33350Y113677D01*
X32972Y113752D01*
X32192Y113597D01*
X31530Y113154D01*
X31089Y112493D01*
X30933Y111713D01*
X31089Y110932D01*
X31530Y110271D01*
X32192Y109829D01*
X32972Y109673D01*
X33753Y109829D01*
X34414Y110271D01*
X34856Y110932D01*
X35012Y111713D01*
X34936Y112091D01*
X37703Y114857D01*
X37703Y114857D01*
X37946Y115220D01*
X38031Y115650D01*
Y153818D01*
X38351Y154032D01*
X38793Y154694D01*
X38949Y155474D01*
X38793Y156254D01*
X38351Y156916D01*
X37690Y157358D01*
X36909Y157513D01*
D02*
G37*
G36*
X57262Y114657D02*
X55618D01*
Y113014D01*
X55976Y113085D01*
X56704Y113571D01*
X57191Y114299D01*
X57262Y114657D01*
D02*
G37*
G36*
X54618D02*
X52974D01*
X53046Y114299D01*
X53532Y113571D01*
X54260Y113085D01*
X54618Y113014D01*
Y114657D01*
D02*
G37*
G36*
X111713Y149533D02*
X110733Y149404D01*
X109820Y149026D01*
X109036Y148424D01*
X108435Y147641D01*
X108056Y146728D01*
X107928Y145748D01*
X108056Y144768D01*
X108435Y143856D01*
X109036Y143072D01*
X109820Y142470D01*
X110733Y142092D01*
X111713Y141963D01*
X112692Y142092D01*
X113463Y142411D01*
X118465Y137409D01*
Y112384D01*
X118145Y112170D01*
X117703Y111509D01*
X117547Y110728D01*
X117703Y109948D01*
X118145Y109286D01*
X118806Y108844D01*
X119587Y108689D01*
X120367Y108844D01*
X121028Y109286D01*
X121471Y109948D01*
X121626Y110728D01*
X121471Y111509D01*
X121028Y112170D01*
X120708Y112384D01*
Y137874D01*
X120623Y138303D01*
X120380Y138667D01*
X120380Y138667D01*
X115049Y143997D01*
X115369Y144768D01*
X115498Y145748D01*
X115369Y146728D01*
X114991Y147641D01*
X114389Y148424D01*
X113605Y149026D01*
X112692Y149404D01*
X111713Y149533D01*
D02*
G37*
G36*
X112213Y106047D02*
Y102626D01*
X115634D01*
X115564Y103158D01*
X115165Y104119D01*
X114532Y104945D01*
X113706Y105579D01*
X112744Y105977D01*
X112213Y106047D01*
D02*
G37*
G36*
X17670Y110524D02*
X3472D01*
Y102625D01*
X17670D01*
Y110524D01*
D02*
G37*
G36*
X115634Y101626D02*
X112213D01*
Y98205D01*
X112744Y98275D01*
X113706Y98673D01*
X114532Y99307D01*
X115165Y100133D01*
X115564Y101094D01*
X115634Y101626D01*
D02*
G37*
G36*
X55126Y96632D02*
Y94988D01*
X56770D01*
X56698Y95347D01*
X56212Y96074D01*
X55484Y96561D01*
X55126Y96632D01*
D02*
G37*
G36*
X54126D02*
X53768Y96561D01*
X53040Y96074D01*
X52554Y95347D01*
X52482Y94988D01*
X54126D01*
Y96632D01*
D02*
G37*
G36*
X21169D02*
Y94988D01*
X22813D01*
X22742Y95347D01*
X22255Y96074D01*
X21528Y96561D01*
X21169Y96632D01*
D02*
G37*
G36*
X20169D02*
X19811Y96561D01*
X19083Y96074D01*
X18597Y95347D01*
X18526Y94988D01*
X20169D01*
Y96632D01*
D02*
G37*
G36*
X93969Y100524D02*
X79771D01*
Y92625D01*
X93969D01*
Y100524D01*
D02*
G37*
G36*
X17670D02*
X3472D01*
Y92625D01*
X17670D01*
Y100524D01*
D02*
G37*
G36*
X56770Y93988D02*
X55126D01*
Y92345D01*
X55484Y92416D01*
X56212Y92902D01*
X56698Y93630D01*
X56770Y93988D01*
D02*
G37*
G36*
X54126D02*
X52482D01*
X52554Y93630D01*
X53040Y92902D01*
X53768Y92416D01*
X54126Y92345D01*
Y93988D01*
D02*
G37*
G36*
X22813D02*
X21169D01*
Y92345D01*
X21528Y92416D01*
X22255Y92902D01*
X22742Y93630D01*
X22813Y93988D01*
D02*
G37*
G36*
X20169D02*
X18526D01*
X18597Y93630D01*
X19083Y92902D01*
X19811Y92416D01*
X20169Y92345D01*
Y93988D01*
D02*
G37*
G36*
X112213Y95142D02*
Y91720D01*
X115634D01*
X115564Y92252D01*
X115165Y93214D01*
X114532Y94040D01*
X113706Y94673D01*
X112744Y95072D01*
X112213Y95142D01*
D02*
G37*
G36*
X93969Y90524D02*
X79771D01*
Y82938D01*
X79271Y82671D01*
X79106Y82781D01*
X78748Y82852D01*
Y80709D01*
Y78565D01*
X79071Y78629D01*
X79183Y78623D01*
X79571Y78416D01*
Y77075D01*
X86370D01*
Y80724D01*
X80488D01*
X80320Y81567D01*
X79947Y82125D01*
X80171Y82625D01*
X93969D01*
Y90524D01*
D02*
G37*
G36*
X17670D02*
X3472D01*
Y82625D01*
X17670D01*
Y90524D01*
D02*
G37*
G36*
X20185Y78915D02*
Y77272D01*
X21829D01*
X21757Y77630D01*
X21271Y78358D01*
X20543Y78844D01*
X20185Y78915D01*
D02*
G37*
G36*
X94169Y80724D02*
X87370D01*
Y77075D01*
X94169D01*
Y80724D01*
D02*
G37*
G36*
X10071D02*
X3272D01*
Y77075D01*
X10071D01*
Y80724D01*
D02*
G37*
G36*
X111213Y79815D02*
X107792D01*
X107862Y79283D01*
X108260Y78321D01*
X108894Y77496D01*
X109719Y76862D01*
X110681Y76464D01*
X111213Y76394D01*
Y79815D01*
D02*
G37*
G36*
X115634D02*
X112213D01*
Y76394D01*
X112744Y76464D01*
X113706Y76862D01*
X114532Y77496D01*
X115165Y78321D01*
X115564Y79283D01*
X115634Y79815D01*
D02*
G37*
G36*
X21829Y76272D02*
X20185D01*
Y74628D01*
X20543Y74699D01*
X21271Y75186D01*
X21757Y75913D01*
X21829Y76272D01*
D02*
G37*
G36*
X17870Y80724D02*
X11071D01*
Y76575D01*
Y72425D01*
X17870D01*
Y74737D01*
X18370Y75004D01*
X18827Y74699D01*
X19185Y74628D01*
Y76772D01*
Y78915D01*
X18827Y78844D01*
X18370Y78539D01*
X17870Y78806D01*
Y80724D01*
D02*
G37*
G36*
X56602Y75963D02*
Y74319D01*
X58246D01*
X58175Y74677D01*
X57688Y75405D01*
X56961Y75891D01*
X56602Y75963D01*
D02*
G37*
G36*
X55602D02*
X55244Y75891D01*
X54516Y75405D01*
X54030Y74677D01*
X53959Y74319D01*
X55602D01*
Y75963D01*
D02*
G37*
G36*
X94169Y76075D02*
X87370D01*
Y72425D01*
X94169D01*
Y76075D01*
D02*
G37*
G36*
X86370D02*
X79571D01*
Y72425D01*
X86370D01*
Y76075D01*
D02*
G37*
G36*
X10071D02*
X3272D01*
Y72425D01*
X10071D01*
Y76075D01*
D02*
G37*
G36*
X58246Y73319D02*
X56602D01*
Y71675D01*
X56961Y71747D01*
X57688Y72233D01*
X58175Y72961D01*
X58246Y73319D01*
D02*
G37*
G36*
X55602D02*
X53959D01*
X54030Y72961D01*
X54516Y72233D01*
X55244Y71747D01*
X55602Y71675D01*
Y73319D01*
D02*
G37*
G36*
X112213Y73330D02*
Y69909D01*
X115634D01*
X115564Y70441D01*
X115165Y71403D01*
X114532Y72229D01*
X113706Y72862D01*
X112744Y73260D01*
X112213Y73330D01*
D02*
G37*
G36*
X111213D02*
X110681Y73260D01*
X109719Y72862D01*
X108894Y72229D01*
X108260Y71403D01*
X107862Y70441D01*
X107792Y69909D01*
X111213D01*
Y73330D01*
D02*
G37*
G36*
Y68909D02*
X107792D01*
X107862Y68378D01*
X108260Y67416D01*
X108894Y66590D01*
X109719Y65957D01*
X110681Y65558D01*
X111213Y65488D01*
Y68909D01*
D02*
G37*
G36*
X115634D02*
X112213D01*
Y65488D01*
X112744Y65558D01*
X113706Y65957D01*
X114532Y66590D01*
X115165Y67416D01*
X115564Y68378D01*
X115634Y68909D01*
D02*
G37*
G36*
X71366Y65136D02*
Y63492D01*
X73010D01*
X72939Y63850D01*
X72452Y64578D01*
X71724Y65065D01*
X71366Y65136D01*
D02*
G37*
G36*
X70366D02*
X70008Y65065D01*
X69280Y64578D01*
X68794Y63850D01*
X68722Y63492D01*
X70366D01*
Y65136D01*
D02*
G37*
G36*
X93969Y70524D02*
X79771D01*
Y62625D01*
X93969D01*
Y70524D01*
D02*
G37*
G36*
X73010Y62492D02*
X71366D01*
Y60848D01*
X71724Y60920D01*
X72452Y61406D01*
X72939Y62134D01*
X73010Y62492D01*
D02*
G37*
G36*
X70366D02*
X68722D01*
X68794Y62134D01*
X69280Y61406D01*
X70008Y60920D01*
X70366Y60848D01*
Y62492D01*
D02*
G37*
G36*
X60047Y62183D02*
Y60539D01*
X61691D01*
X61620Y60898D01*
X61133Y61625D01*
X60406Y62112D01*
X60047Y62183D01*
D02*
G37*
G36*
X59047D02*
X58689Y62112D01*
X57961Y61625D01*
X57475Y60898D01*
X57404Y60539D01*
X59047D01*
Y62183D01*
D02*
G37*
G36*
X112213Y62425D02*
Y59004D01*
X115634D01*
X115564Y59536D01*
X115165Y60497D01*
X114532Y61323D01*
X113706Y61957D01*
X112744Y62355D01*
X112213Y62425D01*
D02*
G37*
G36*
X111213D02*
X110681Y62355D01*
X109719Y61957D01*
X108894Y61323D01*
X108260Y60497D01*
X107862Y59536D01*
X107792Y59004D01*
X111213D01*
Y62425D01*
D02*
G37*
G36*
X61691Y59539D02*
X60047D01*
Y57896D01*
X60406Y57967D01*
X61133Y58453D01*
X61620Y59181D01*
X61691Y59539D01*
D02*
G37*
G36*
X59047D02*
X57404D01*
X57475Y59181D01*
X57961Y58453D01*
X58689Y57967D01*
X59047Y57896D01*
Y59539D01*
D02*
G37*
G36*
X17670Y70524D02*
X3472D01*
Y62625D01*
X16084D01*
X17695Y61014D01*
X17478Y60524D01*
X17250Y60524D01*
X3472D01*
Y52625D01*
X17670D01*
Y54605D01*
X18170Y54873D01*
X18413Y54711D01*
X19193Y54555D01*
X19973Y54711D01*
X20635Y55153D01*
X21077Y55814D01*
X21232Y56595D01*
X21189Y56814D01*
X21428Y57007D01*
X21644Y57087D01*
X21943Y56887D01*
X22224Y56831D01*
X22230Y56798D01*
X22672Y56137D01*
X23334Y55695D01*
X24114Y55540D01*
X24894Y55695D01*
X25556Y56137D01*
X25998Y56798D01*
X26153Y57579D01*
X25998Y58359D01*
X25556Y59021D01*
X24894Y59463D01*
X24114Y59618D01*
X23334Y59463D01*
X22785Y59096D01*
X17670Y64211D01*
Y70524D01*
D02*
G37*
G36*
X115634Y58004D02*
X112213D01*
Y54583D01*
X112744Y54653D01*
X113706Y55051D01*
X114532Y55685D01*
X115165Y56511D01*
X115564Y57472D01*
X115634Y58004D01*
D02*
G37*
G36*
X111213D02*
X107792D01*
X107862Y57472D01*
X108260Y56511D01*
X108894Y55685D01*
X109719Y55051D01*
X110681Y54653D01*
X111213Y54583D01*
Y58004D01*
D02*
G37*
G36*
X111713Y160439D02*
X110733Y160310D01*
X109820Y159932D01*
X109036Y159330D01*
X108435Y158546D01*
X108056Y157633D01*
X107928Y156653D01*
X108056Y155674D01*
X108435Y154761D01*
X109036Y153977D01*
X109820Y153375D01*
X110733Y152997D01*
X111713Y152868D01*
X112692Y152997D01*
X113463Y153317D01*
X122894Y143886D01*
Y58250D01*
X122574Y58036D01*
X122132Y57375D01*
X121977Y56595D01*
X122132Y55814D01*
X122574Y55153D01*
X123235Y54711D01*
X124016Y54555D01*
X124796Y54711D01*
X125458Y55153D01*
X125900Y55814D01*
X126055Y56595D01*
X125900Y57375D01*
X125458Y58036D01*
X125137Y58250D01*
Y144350D01*
X125137Y144350D01*
X125052Y144780D01*
X124809Y145143D01*
X124809Y145143D01*
X115049Y154903D01*
X115369Y155674D01*
X115498Y156653D01*
X115369Y157633D01*
X114991Y158546D01*
X114389Y159330D01*
X113605Y159932D01*
X112692Y160310D01*
X111713Y160439D01*
D02*
G37*
G36*
X93969Y60524D02*
X79771D01*
Y52625D01*
X93969D01*
Y60524D01*
D02*
G37*
G36*
X112213Y51520D02*
Y48098D01*
X115634D01*
X115564Y48630D01*
X115165Y49592D01*
X114532Y50418D01*
X113706Y51051D01*
X112744Y51449D01*
X112213Y51520D01*
D02*
G37*
G36*
X111213D02*
X110681Y51449D01*
X109719Y51051D01*
X108894Y50418D01*
X108260Y49592D01*
X107862Y48630D01*
X107792Y48098D01*
X111213D01*
Y51520D01*
D02*
G37*
G36*
X17670Y50524D02*
X3472D01*
Y42625D01*
X17670D01*
Y44776D01*
X18170Y44927D01*
X18243Y44818D01*
X18905Y44376D01*
X19685Y44221D01*
X20465Y44376D01*
X21127Y44818D01*
X21569Y45480D01*
X21724Y46260D01*
X21569Y47040D01*
X21127Y47702D01*
X20465Y48144D01*
X19685Y48299D01*
X18905Y48144D01*
X18243Y47702D01*
X18170Y47592D01*
X17670Y47744D01*
Y50524D01*
D02*
G37*
G36*
X115634Y47098D02*
X112213D01*
Y43677D01*
X112744Y43747D01*
X113706Y44146D01*
X114532Y44779D01*
X115165Y45605D01*
X115564Y46567D01*
X115634Y47098D01*
D02*
G37*
G36*
X111213D02*
X107792D01*
X107862Y46567D01*
X108260Y45605D01*
X108894Y44779D01*
X109719Y44146D01*
X110681Y43747D01*
X111213Y43677D01*
Y47098D01*
D02*
G37*
G36*
X17670Y40524D02*
X3472D01*
Y32625D01*
X17670D01*
Y34920D01*
X18170Y35188D01*
X18413Y35026D01*
X19193Y34870D01*
X19973Y35026D01*
X20635Y35467D01*
X21077Y36129D01*
X21232Y36909D01*
X21077Y37690D01*
X20635Y38351D01*
X19973Y38793D01*
X19193Y38949D01*
X18413Y38793D01*
X18170Y38631D01*
X17670Y38899D01*
Y40524D01*
D02*
G37*
G36*
X42631Y36430D02*
X35125D01*
Y28924D01*
X42631D01*
Y36430D01*
D02*
G37*
G36*
X10071Y30724D02*
X3272D01*
Y27075D01*
X10071D01*
Y30724D01*
D02*
G37*
G36*
X19693Y26750D02*
Y25106D01*
X21337D01*
X21265Y25465D01*
X20779Y26192D01*
X20051Y26679D01*
X19693Y26750D01*
D02*
G37*
G36*
X53158Y26258D02*
Y24614D01*
X54801D01*
X54730Y24973D01*
X54244Y25700D01*
X53516Y26186D01*
X53158Y26258D01*
D02*
G37*
G36*
X52157D02*
X51799Y26186D01*
X51071Y25700D01*
X50585Y24973D01*
X50514Y24614D01*
X52157D01*
Y26258D01*
D02*
G37*
G36*
X21337Y24106D02*
X19693D01*
Y22463D01*
X20051Y22534D01*
X20779Y23020D01*
X21265Y23748D01*
X21337Y24106D01*
D02*
G37*
G36*
X17870Y30724D02*
X11071D01*
Y26575D01*
Y22425D01*
X17870D01*
Y22425D01*
X18329Y22525D01*
X18370Y22527D01*
X18693Y22463D01*
Y24606D01*
Y26750D01*
X18370Y26686D01*
X18258Y26692D01*
X17870Y26899D01*
Y30724D01*
D02*
G37*
G36*
X10071Y26075D02*
X3272D01*
Y22425D01*
X10071D01*
Y26075D01*
D02*
G37*
G36*
X94169Y26075D02*
X87370D01*
Y22425D01*
X94169D01*
Y26075D01*
D02*
G37*
G36*
X17670Y20524D02*
X3472D01*
Y12625D01*
X17670D01*
Y15147D01*
X24616D01*
X24616Y15147D01*
X25163Y15256D01*
X25626Y15565D01*
X25795Y15735D01*
X26083Y15677D01*
X26863Y15833D01*
X27525Y16275D01*
X27967Y16936D01*
X28122Y17717D01*
X27967Y18497D01*
X27525Y19159D01*
X26863Y19601D01*
X26083Y19756D01*
X25302Y19601D01*
X24641Y19159D01*
X24199Y18497D01*
X24119Y18096D01*
X24025Y18002D01*
X17670D01*
Y20524D01*
D02*
G37*
G36*
X106622Y25304D02*
Y15362D01*
X116564D01*
X116474Y16502D01*
X116090Y18101D01*
X115461Y19621D01*
X114602Y21023D01*
X113533Y22274D01*
X112283Y23342D01*
X110880Y24201D01*
X109361Y24830D01*
X107762Y25214D01*
X106622Y25304D01*
D02*
G37*
G36*
X105622D02*
X104482Y25214D01*
X102883Y24830D01*
X101364Y24201D01*
X99961Y23342D01*
X98711Y22274D01*
X97643Y21023D01*
X96783Y19621D01*
X96154Y18101D01*
X95770Y16502D01*
X95680Y15362D01*
X105622D01*
Y25304D01*
D02*
G37*
G36*
X54801Y23614D02*
X50514D01*
X50585Y23256D01*
X50695Y23091D01*
X50459Y22650D01*
X44968D01*
Y15145D01*
X52473D01*
Y21720D01*
X52658Y21871D01*
X53516Y22042D01*
X54244Y22528D01*
X54730Y23256D01*
X54801Y23614D01*
D02*
G37*
G36*
X80154Y20661D02*
X78256D01*
Y19018D01*
X78614Y19089D01*
X79271Y19528D01*
X79771Y19386D01*
Y12625D01*
X93969D01*
Y20524D01*
X80266D01*
X80154Y20661D01*
D02*
G37*
G36*
X49494Y14173D02*
Y12529D01*
X51138D01*
X51067Y12888D01*
X50581Y13615D01*
X49853Y14101D01*
X49494Y14173D01*
D02*
G37*
G36*
X48494D02*
X48136Y14101D01*
X47408Y13615D01*
X46922Y12888D01*
X46851Y12529D01*
X48494D01*
Y14173D01*
D02*
G37*
G36*
X105622Y14362D02*
X95680D01*
X95770Y13223D01*
X96154Y11623D01*
X96783Y10104D01*
X97643Y8702D01*
X98711Y7451D01*
X99961Y6383D01*
X101364Y5523D01*
X102883Y4894D01*
X104482Y4510D01*
X105622Y4420D01*
Y14362D01*
D02*
G37*
G36*
X116564D02*
X106622D01*
Y4420D01*
X107762Y4510D01*
X109361Y4894D01*
X110880Y5523D01*
X112283Y6383D01*
X113533Y7451D01*
X114602Y8702D01*
X115461Y10104D01*
X116090Y11623D01*
X116474Y13223D01*
X116564Y14362D01*
D02*
G37*
G36*
X17670Y10524D02*
X3472D01*
Y2625D01*
X17670D01*
Y10524D01*
D02*
G37*
%LPD*%
G36*
X34771Y203633D02*
Y192397D01*
X30848D01*
X30848Y192397D01*
X30419Y192312D01*
X30055Y192069D01*
X28532Y190546D01*
X27568D01*
X27373Y191009D01*
X27380Y191046D01*
X28017Y191472D01*
X28459Y192133D01*
X28614Y192913D01*
X28459Y193694D01*
X28017Y194355D01*
X27696Y194569D01*
Y197212D01*
X34309Y203825D01*
X34771Y203633D01*
D02*
G37*
G36*
X46956Y145754D02*
X47736Y145599D01*
X48414Y145733D01*
X48914Y145464D01*
Y128725D01*
X48414Y128573D01*
X48194Y128902D01*
X47532Y129345D01*
X46752Y129500D01*
X46397Y129791D01*
Y145597D01*
X46838Y145833D01*
X46956Y145754D01*
D02*
G37*
D15*
X23661Y134881D02*
Y137354D01*
X20669Y131890D02*
X23661Y134881D01*
X20375Y140640D02*
X23661Y137354D01*
X10571Y146575D02*
X13721D01*
X19656Y140640D02*
X20375D01*
X13721Y146575D02*
X19656Y140640D01*
X95965Y30512D02*
Y38767D01*
X88172Y41024D02*
X93707D01*
X86870Y42325D02*
X88172Y41024D01*
X93707D02*
X95965Y38767D01*
X86870Y42325D02*
Y46575D01*
D21*
X19341Y152411D02*
X19685Y152067D01*
X22372Y57923D02*
X23770D01*
X49705Y151575D02*
X50035Y151244D01*
X10571Y156575D02*
X13721D01*
X17884Y152411D01*
X50035Y88099D02*
Y151244D01*
Y88099D02*
X51181Y86953D01*
X10571Y166575D02*
X10827Y166831D01*
X19193D01*
X78740Y155512D02*
X85807D01*
X86870Y156575D01*
X78740Y164370D02*
X84665D01*
X86870Y166575D01*
X47575Y157565D02*
Y166992D01*
X47405Y147968D02*
X47736Y147638D01*
X45276Y128937D02*
X46752Y127461D01*
X45276Y128937D02*
Y160925D01*
X47405Y157396D02*
X47575Y157565D01*
X47244Y167323D02*
X47575Y166992D01*
X47405Y147968D02*
Y157396D01*
X106223Y90980D02*
Y140334D01*
X99982Y146575D02*
X106223Y140334D01*
X86870Y146575D02*
X99982D01*
X106223Y90980D02*
X112065Y85138D01*
X115765Y109137D02*
Y130791D01*
X111713Y134843D02*
X115765Y130791D01*
Y109137D02*
X118602Y106299D01*
X112065Y85138D02*
X116634D01*
X92122Y110824D02*
X94269Y112970D01*
Y132326D01*
X77756Y110728D02*
X77851Y110824D01*
X90020Y136575D02*
X94269Y132326D01*
X77851Y110824D02*
X92122D01*
X86870Y136575D02*
X90020D01*
X111713Y156653D02*
X124016Y144350D01*
Y56595D02*
Y144350D01*
X100472Y102463D02*
X104823Y98112D01*
Y28543D02*
Y98112D01*
X86870Y106575D02*
X95805D01*
X99917Y102463D02*
X100472D01*
X95805Y106575D02*
X99917Y102463D01*
X119587Y110728D02*
Y137874D01*
X111713Y145748D02*
X119587Y137874D01*
X77756Y192421D02*
X77930D01*
X80871Y189424D02*
X83720Y186575D01*
X86870D01*
X77930Y192421D02*
X80871Y189481D01*
Y189424D02*
Y189481D01*
X26575Y197677D02*
X38776Y209878D01*
X70417D01*
X26575Y192913D02*
Y197677D01*
X83720Y196575D02*
X86870D01*
X70417Y209878D02*
X83720Y196575D01*
X45276Y185039D02*
Y189275D01*
X28997Y189424D02*
X30848Y191276D01*
X13420Y189424D02*
X28997D01*
X10571Y186575D02*
X13420Y189424D01*
X30848Y191276D02*
X43275D01*
X45276Y189275D01*
X46022Y56539D02*
Y61266D01*
X42976Y55473D02*
X44622Y57118D01*
X42976Y46591D02*
Y55473D01*
X45276Y62013D02*
X46022Y61266D01*
X43056Y60589D02*
X44622Y59023D01*
X10905Y36909D02*
X19193D01*
X10571Y36575D02*
X10905Y36909D01*
X10571Y46575D02*
X10886Y46260D01*
X19685D01*
X10571Y66575D02*
X13721D01*
X23770Y57923D02*
X24114Y57579D01*
X13721Y66575D02*
X22372Y57923D01*
X10591Y56595D02*
X19193D01*
X10571Y56575D02*
X10591Y56595D01*
X56102Y167815D02*
Y189961D01*
X36909Y115650D02*
Y155474D01*
X32972Y111713D02*
X36909Y115650D01*
X51181Y86614D02*
Y86953D01*
X17884Y152411D02*
X19341D01*
X42265Y60589D02*
X43056D01*
X42976Y46591D02*
X45276Y44291D01*
X44622Y57118D02*
Y59023D01*
X45276Y62013D02*
Y62500D01*
Y53150D02*
Y55792D01*
X46022Y56539D01*
X40354Y62500D02*
X42265Y60589D01*
D43*
X76141Y154435D02*
X76772Y153805D01*
X75295Y25098D02*
Y66604D01*
X75891Y107021D02*
Y108918D01*
X76772Y147805D02*
Y153805D01*
X76121Y86289D02*
Y106791D01*
Y126644D02*
Y147154D01*
X75157Y11950D02*
Y24960D01*
X78248Y80709D02*
X78478Y80479D01*
X49213Y186516D02*
X52165Y183563D01*
X19685Y93179D02*
X20669Y94164D01*
X55118Y157156D02*
Y157480D01*
X52165Y160433D02*
Y183563D01*
X79171Y181124D02*
X83720Y176575D01*
X75157Y24960D02*
X75295Y25098D01*
X74803Y67097D02*
Y84972D01*
X75891Y107021D02*
X76121Y106791D01*
X76141Y167844D02*
X76772Y168474D01*
Y174277D01*
X75157Y11950D02*
X77982Y9124D01*
X76141Y154435D02*
Y167844D01*
X42815Y91043D02*
Y91368D01*
X74803Y67097D02*
X75295Y66604D01*
X75157Y109652D02*
Y125680D01*
X56102Y73819D02*
X59547Y70374D01*
Y60039D02*
Y70374D01*
X25561Y133169D02*
Y151605D01*
X51663Y13956D02*
X53072Y15365D01*
X54626Y114341D02*
X55118Y114833D01*
X52165Y160433D02*
X55118Y157480D01*
X24476Y131513D02*
Y132084D01*
X78248Y30512D02*
X78478Y30282D01*
X55118Y114833D02*
Y139931D01*
X54626Y94164D02*
X56102Y92687D01*
X53072Y15365D02*
Y23374D01*
X12539Y24606D02*
X19193D01*
X19685Y126476D02*
Y126722D01*
Y126152D02*
Y126476D01*
X10571Y76575D02*
X10768Y76772D01*
X48994Y12029D02*
X50921Y13956D01*
X19685Y76772D02*
Y93179D01*
X79816Y80479D02*
X83720Y76575D01*
X80680Y129616D02*
X83720Y126575D01*
X48720Y187333D02*
Y201969D01*
X10571Y26575D02*
X12539Y24606D01*
X20669Y94164D02*
Y94488D01*
X54626Y94164D02*
Y114341D01*
X10571Y126575D02*
X10669Y126476D01*
X52658Y23789D02*
X53072Y23374D01*
X19685Y176673D02*
X21792Y174566D01*
X52658Y23789D02*
Y24114D01*
X83720Y26575D02*
X86870D01*
X55610Y140423D02*
Y156664D01*
X78150Y176575D02*
X85173D01*
X55118Y139931D02*
X55610Y140423D01*
X78478Y80479D02*
X79816D01*
X21654Y155512D02*
X25561Y151605D01*
X54331Y207579D02*
X63878D01*
X80013Y30282D02*
X83720Y26575D01*
X21654Y155512D02*
X21792Y155650D01*
X102971Y197145D02*
X106122Y200295D01*
X84320Y9124D02*
X86870Y6575D01*
X37755Y85984D02*
X42815Y91043D01*
X40493Y59901D02*
X42323Y58071D01*
X37755Y61423D02*
X39278Y59901D01*
X75550Y175498D02*
Y186938D01*
X37755Y61423D02*
Y85984D01*
X75550Y175498D02*
X76772Y174277D01*
X10669Y176673D02*
X19685D01*
X80522Y129616D02*
X80680D01*
X94409Y26575D02*
X106122Y14862D01*
X86870Y26575D02*
X94409D01*
X10768Y76772D02*
X19685D01*
X48720Y201969D02*
X54331Y207579D01*
X78478Y30282D02*
X80013D01*
X10669Y126476D02*
X19685D01*
Y126722D02*
X24476Y131513D01*
X77986Y21391D02*
X78537D01*
X85173Y176575D02*
X90020D01*
X10571Y16575D02*
X24616D01*
X25758Y17717D02*
X26083D01*
X24616Y16575D02*
X25758Y17717D01*
X83720Y176575D02*
X85173D01*
X78740Y189207D02*
X79171Y188777D01*
X48720Y187333D02*
X49213Y186840D01*
X77756Y21161D02*
X77986Y21391D01*
X24476Y132084D02*
X25561Y133169D01*
X19685Y126152D02*
X20669Y125167D01*
X83720Y126575D02*
X86870D01*
X42323Y91860D02*
Y188976D01*
X77982Y9124D02*
X84320D01*
X90020Y176575D02*
X102971Y189526D01*
X56102Y73819D02*
Y92687D01*
X75157Y125680D02*
X76121Y126644D01*
X20669Y119095D02*
Y125167D01*
X49213Y186516D02*
Y186840D01*
X102971Y189526D02*
Y197145D01*
X10571Y176575D02*
X10669Y176673D01*
X78537Y21391D02*
X83720Y26575D01*
X78740Y131398D02*
X80522Y129616D01*
X83720Y26575D02*
X86870D01*
X79171Y181124D02*
Y188777D01*
X55118Y157156D02*
X55610Y156664D01*
X83720Y76575D02*
X86870D01*
X21792Y155650D02*
Y174566D01*
X50921Y13956D02*
X51663D01*
X39278Y59901D02*
X40493D01*
X74803Y84972D02*
X76121Y86289D01*
X75550Y186938D02*
X76279Y187667D01*
X75157Y109652D02*
X75891Y108918D01*
X76279Y187667D02*
Y187992D01*
X42323Y91860D02*
X42815Y91368D01*
X76121Y147154D02*
X76772Y147805D01*
D44*
X10571Y136575D02*
X10827Y136319D01*
X21161D01*
X32480Y127513D02*
Y163386D01*
X21543Y116575D02*
X32480Y127513D01*
X10571Y116575D02*
X21543D01*
D45*
X100531Y107579D02*
D03*
Y118484D02*
D03*
Y129390D02*
D03*
Y151201D02*
D03*
Y140295D02*
D03*
Y162106D02*
D03*
Y96673D02*
D03*
Y85768D02*
D03*
Y74862D02*
D03*
Y63957D02*
D03*
Y53051D02*
D03*
Y42146D02*
D03*
X111713Y167559D02*
D03*
Y156653D02*
D03*
Y145748D02*
D03*
Y134843D02*
D03*
Y123937D02*
D03*
Y113031D02*
D03*
Y102126D02*
D03*
Y91220D02*
D03*
Y80315D02*
D03*
Y69410D02*
D03*
Y58504D02*
D03*
Y47598D02*
D03*
D46*
X100531Y173012D02*
D03*
D47*
X106122Y14862D02*
D03*
Y200295D02*
D03*
D48*
X32480Y163386D02*
D03*
X36909Y155474D02*
D03*
X78740Y155512D02*
D03*
X45276Y160925D02*
D03*
X78740Y164370D02*
D03*
X47244Y167323D02*
D03*
X47736Y147638D02*
D03*
X46752Y127461D02*
D03*
X116634Y85138D02*
D03*
X77756Y110728D02*
D03*
X124016Y56595D02*
D03*
X104823Y28543D02*
D03*
X119587Y110728D02*
D03*
X118602Y106299D02*
D03*
X70866Y62992D02*
D03*
X24606Y131890D02*
D03*
X19685Y152067D02*
D03*
X19193Y166831D02*
D03*
X77756Y192421D02*
D03*
X95965Y30512D02*
D03*
X26083Y17717D02*
D03*
X63878Y207579D02*
D03*
X26575Y192913D02*
D03*
X45276Y185039D02*
D03*
X56102Y189961D02*
D03*
Y167815D02*
D03*
X55118Y157480D02*
D03*
X55610Y140748D02*
D03*
X54626Y94488D02*
D03*
X55118Y115157D02*
D03*
X20669Y94488D02*
D03*
Y119095D02*
D03*
X21654Y155512D02*
D03*
X32972Y111713D02*
D03*
X49705Y151575D02*
D03*
X51181Y86614D02*
D03*
X20669Y131890D02*
D03*
X21161Y136319D02*
D03*
X24114Y57579D02*
D03*
X19193Y36909D02*
D03*
X19685Y46260D02*
D03*
X19193Y56595D02*
D03*
X45276Y44291D02*
D03*
Y53150D02*
D03*
X52658Y24114D02*
D03*
X48994Y12029D02*
D03*
X77756Y21161D02*
D03*
X59547Y60039D02*
D03*
X56102Y73819D02*
D03*
X45276Y62500D02*
D03*
X40354Y62500D02*
D03*
X42323Y58071D02*
D03*
X49213Y186516D02*
D03*
X78150Y176575D02*
D03*
X78740Y131398D02*
D03*
X78248Y80709D02*
D03*
Y30512D02*
D03*
X19193Y24606D02*
D03*
X19685Y76772D02*
D03*
Y126476D02*
D03*
Y176673D02*
D03*
X42323Y188976D02*
D03*
Y173228D02*
D03*
Y151575D02*
D03*
Y131890D02*
D03*
Y111221D02*
D03*
X42815Y91043D02*
D03*
X76279Y187992D02*
D03*
X76772Y168799D02*
D03*
Y148130D02*
D03*
X76121Y126969D02*
D03*
Y106791D02*
D03*
Y86614D02*
D03*
X74803Y67421D02*
D03*
X75295Y45276D02*
D03*
Y25098D02*
D03*
Y11811D02*
D03*
D49*
X10571Y6575D02*
D03*
Y16575D02*
D03*
Y26575D02*
D03*
Y36575D02*
D03*
Y46575D02*
D03*
Y56575D02*
D03*
Y66575D02*
D03*
X10571Y76575D02*
D03*
X10571Y86575D02*
D03*
Y96575D02*
D03*
Y106575D02*
D03*
Y116575D02*
D03*
Y126575D02*
D03*
Y136575D02*
D03*
Y146575D02*
D03*
Y156575D02*
D03*
X10571Y166575D02*
D03*
X10571Y176575D02*
D03*
Y186575D02*
D03*
Y196575D02*
D03*
X86870D02*
D03*
Y186575D02*
D03*
Y176575D02*
D03*
Y166575D02*
D03*
Y156575D02*
D03*
Y146575D02*
D03*
Y136575D02*
D03*
Y126575D02*
D03*
Y116575D02*
D03*
Y106575D02*
D03*
Y96575D02*
D03*
Y86575D02*
D03*
Y76575D02*
D03*
Y66575D02*
D03*
Y56575D02*
D03*
Y46575D02*
D03*
Y36575D02*
D03*
Y26575D02*
D03*
Y16575D02*
D03*
Y6575D02*
D03*
D50*
X38721Y198819D02*
D03*
X48720D02*
D03*
X58720D02*
D03*
D51*
X48720Y18898D02*
D03*
X52658Y5906D02*
D03*
X44783D02*
D03*
X38878Y32677D02*
D03*
Y42520D02*
D03*
Y52362D02*
D03*
M02*
