G04*
G04 #@! TF.GenerationSoftware,Altium Limited,Altium Designer,21.3.1 (25)*
G04*
G04 Layer_Color=32896*
%FSLAX25Y25*%
%MOIN*%
G70*
G04*
G04 #@! TF.SameCoordinates,0F46E8F8-C812-4C73-86AE-EEEB37A8DDC9*
G04*
G04*
G04 #@! TF.FilePolarity,Positive*
G04*
G01*
G75*
%ADD10C,0.00787*%
%ADD55C,0.00127*%
%ADD56C,0.00394*%
G36*
X128995Y197183D02*
X129028Y197105D01*
X129516Y194561D01*
X129513Y194561D01*
X129545Y194482D01*
X129598Y194461D01*
X131728Y193578D01*
X131780Y193557D01*
X131859Y193589D01*
X134002Y195043D01*
X134001Y195045D01*
X134079Y195078D01*
X134184Y195034D01*
X134184Y195034D01*
X136009Y193193D01*
X136016Y193201D01*
X136016Y193201D01*
X136060Y193096D01*
X136027Y193018D01*
X134574Y190875D01*
X134571Y190876D01*
X134539Y190798D01*
X134561Y190745D01*
X135443Y188615D01*
X135443D01*
X135465Y188563D01*
X135543Y188531D01*
X138087Y188043D01*
X138087Y188045D01*
X138166Y188013D01*
X138209Y187908D01*
X138209D01*
X138198Y185316D01*
X138209D01*
X138166Y185211D01*
X138087Y185179D01*
X135544Y184691D01*
X135543Y184694D01*
X135465Y184661D01*
X135443Y184609D01*
X134561Y182479D01*
Y182479D01*
X134539Y182426D01*
X134571Y182348D01*
X136025Y180204D01*
X136027Y180206D01*
X136060Y180128D01*
X136016Y180023D01*
X136016Y180023D01*
X134176Y178198D01*
X134184Y178190D01*
X134079Y178147D01*
X134001Y178179D01*
X131857Y179633D01*
X131859Y179635D01*
X131780Y179668D01*
X131728Y179646D01*
X130752Y179242D01*
Y179242D01*
X130700Y179220D01*
X130595Y179264D01*
X130573Y179317D01*
X128777Y183715D01*
X128777Y183715D01*
X128756Y183767D01*
X128799Y183871D01*
X128847Y183891D01*
X128863Y183857D01*
X129754Y184452D01*
X130416Y185443D01*
X130649Y186612D01*
X130416Y187781D01*
X129754Y188772D01*
X128763Y189434D01*
X127594Y189666D01*
X126426Y189434D01*
X125435Y188772D01*
X124773Y187781D01*
X124540Y186612D01*
X124773Y185443D01*
X125435Y184452D01*
X126326Y183857D01*
X126342Y183891D01*
X126390Y183871D01*
X126433Y183767D01*
X126411Y183715D01*
X124616Y179317D01*
Y179317D01*
X124594Y179264D01*
X124489Y179220D01*
X124436Y179242D01*
X123461Y179646D01*
X123461D01*
X123409Y179668D01*
X123330Y179635D01*
X121187Y178182D01*
X121188Y178179D01*
X121110Y178147D01*
X121005Y178190D01*
X119180Y180031D01*
X119172Y180023D01*
X119129Y180128D01*
X119161Y180206D01*
X120615Y182350D01*
X120617Y182348D01*
X120650Y182426D01*
X120628Y182479D01*
X119746Y184609D01*
X119724Y184661D01*
X119646Y184694D01*
X117102Y185182D01*
X117102Y185179D01*
X117023Y185211D01*
X116980Y185316D01*
X116991Y187908D01*
X116980D01*
X117023Y188013D01*
X117102Y188045D01*
X119645Y188533D01*
X119646Y188530D01*
X119724Y188563D01*
X119746Y188615D01*
X120628Y190745D01*
Y190745D01*
X120650Y190798D01*
X120617Y190876D01*
X119164Y193020D01*
X119161Y193018D01*
X119129Y193096D01*
X119172Y193201D01*
X121013Y195026D01*
X121005Y195034D01*
X121005Y195034D01*
X121110Y195078D01*
X121188Y195045D01*
X123332Y193591D01*
X123330Y193589D01*
X123409Y193557D01*
X123461Y193578D01*
X125591Y194461D01*
X125644Y194482D01*
X125676Y194561D01*
X126164Y197104D01*
X126161Y197105D01*
X126194Y197183D01*
X126298Y197227D01*
X128891Y197215D01*
Y197227D01*
X128995Y197183D01*
D02*
G37*
G36*
X117859Y175773D02*
X117867Y175793D01*
X117900Y175786D01*
X118286Y175528D01*
X118310Y175556D01*
X118388Y175523D01*
X118467Y175333D01*
X118470Y175335D01*
X118578Y175073D01*
X118592Y175077D01*
X118653Y174766D01*
X118655Y174766D01*
X118724Y174417D01*
X118722Y174404D01*
X118724Y174392D01*
X118655Y174043D01*
X118653Y174043D01*
X118592Y173733D01*
X118578Y173737D01*
X118470Y173476D01*
X118467Y173478D01*
X118390Y173292D01*
X118309Y173258D01*
X118286Y173285D01*
X117905Y173031D01*
X117867Y173023D01*
X117859Y173042D01*
X117398Y172851D01*
X117391Y172854D01*
X117392Y172854D01*
X117385Y172851D01*
X117082Y172976D01*
X117083Y172979D01*
X116812Y173092D01*
X116811Y173090D01*
X116424Y173348D01*
X116363Y173439D01*
X116771Y173805D01*
X116816Y173696D01*
X117054Y173597D01*
X117055Y173599D01*
X117364Y173471D01*
X117370Y173473D01*
X117368Y173462D01*
X117387Y173454D01*
X117692Y173581D01*
X117692Y173581D01*
X117922Y173676D01*
X117943Y173728D01*
X117946Y173726D01*
X118067Y174018D01*
X118063Y174020D01*
X118135Y174381D01*
X118130Y174405D01*
X118130Y174404D01*
X118135Y174428D01*
X118063Y174791D01*
X118067Y174792D01*
X117946Y175085D01*
X117943Y175084D01*
X117921Y175137D01*
X117692Y175232D01*
X117692Y175232D01*
X117387Y175358D01*
X117368Y175350D01*
X117370Y175340D01*
X117364Y175342D01*
X117057Y175215D01*
X117056Y175216D01*
X116811Y175115D01*
X116768Y175011D01*
X116373Y175365D01*
X116363Y175374D01*
X116424Y175466D01*
X116811Y175724D01*
X116811Y175723D01*
X117083Y175835D01*
X117082Y175838D01*
X117385Y175964D01*
X117392Y175961D01*
X117391Y175961D01*
X117397Y175964D01*
X117859Y175773D01*
D02*
G37*
G36*
X119632Y175773D02*
X119632Y175773D01*
X119928Y175650D01*
X119959Y175575D01*
Y175521D01*
X119974Y175540D01*
X119959Y175575D01*
Y175824D01*
X120529D01*
Y172992D01*
X119959D01*
Y174694D01*
X120015Y174693D01*
X120022Y174711D01*
X119918Y174963D01*
X119917Y174963D01*
X119842Y175145D01*
X119802Y175162D01*
X119808Y175169D01*
X119409Y175335D01*
X119408Y175335D01*
X119408Y175331D01*
X119218Y175252D01*
X119015Y175168D01*
X118620Y175638D01*
X118593Y175672D01*
X118908Y175802D01*
X118908Y175802D01*
X119212Y175928D01*
X119212Y175928D01*
X119211Y175931D01*
X119230Y175939D01*
X119632Y175773D01*
D02*
G37*
G36*
X127819Y175896D02*
X127818Y175882D01*
X127833Y175885D01*
X128233Y175805D01*
X128234Y175808D01*
X128590Y175660D01*
X128582Y175651D01*
X128699Y175602D01*
X128799Y175362D01*
X128798Y175362D01*
X128947Y175002D01*
X128939Y174982D01*
X128945Y174968D01*
X128816Y174658D01*
X128816Y174658D01*
X128711Y174404D01*
X128666Y174386D01*
X128676Y174375D01*
X128380Y174253D01*
X128380Y174253D01*
X128062Y174121D01*
X127557Y174135D01*
X127554Y174171D01*
X127404Y174109D01*
X127404Y174108D01*
X127289Y174060D01*
X127291Y174057D01*
X127264Y174046D01*
X127231Y173968D01*
X127232Y173967D01*
X127188Y173862D01*
X127190Y173857D01*
X127187Y173858D01*
X127184Y173851D01*
X127248Y173698D01*
X127246Y173697D01*
X127278Y173620D01*
X127367Y173583D01*
X127366Y173581D01*
X127545Y173506D01*
X127544Y173501D01*
X127760Y173412D01*
X127769Y173416D01*
X127768Y173394D01*
X127780Y173389D01*
X128253Y173584D01*
X128252Y173584D01*
X128735Y173784D01*
X129060Y173463D01*
X129079Y173443D01*
X128494Y173052D01*
X128492Y173051D01*
X128490Y173057D01*
X127825Y172925D01*
X127813Y172927D01*
X127814Y172929D01*
X127798Y172925D01*
X127359Y173013D01*
X127357Y173005D01*
X126968Y173166D01*
X126975Y173176D01*
X126811Y173244D01*
X126722Y173458D01*
X126723Y173459D01*
X126576Y173815D01*
X126583Y173831D01*
X126563Y173829D01*
X126559Y173838D01*
X126685Y174143D01*
X126686Y174142D01*
X126804Y174428D01*
X126810Y174423D01*
X126839Y174494D01*
X127084Y174595D01*
Y174595D01*
X127253Y174666D01*
X127252Y174673D01*
X127456Y174757D01*
X127930Y174711D01*
X127932Y174664D01*
X128113Y174738D01*
X128112Y174741D01*
X128237Y174792D01*
X128240Y174790D01*
X128245Y174792D01*
X128285Y174888D01*
X128285Y174888D01*
X128322Y174978D01*
X128327Y174977D01*
X128330Y174986D01*
X128230Y175228D01*
X128210Y175236D01*
X128208Y175236D01*
X128051Y175301D01*
X128052Y175308D01*
X127836Y175398D01*
X127817Y175390D01*
X127820Y175400D01*
X127801Y175408D01*
X127409Y175246D01*
X127395Y175280D01*
X127394Y175280D01*
X127060Y175057D01*
X126708Y175471D01*
X126702Y175479D01*
X127137Y175769D01*
X127173Y175777D01*
X127175Y175772D01*
X127474Y175831D01*
X127474Y175832D01*
X127807Y175898D01*
X127819Y175896D01*
D02*
G37*
G36*
X137116Y175940D02*
X137114Y175931D01*
X137125Y175936D01*
X137515Y175774D01*
X137515Y175775D01*
X137861Y175631D01*
X137889Y175564D01*
X137847Y175824D01*
X138416D01*
Y168485D01*
X137847D01*
Y170172D01*
X137904Y170171D01*
X137909Y170184D01*
X137808Y170427D01*
X137808Y170427D01*
X137716Y170648D01*
X137716Y170648D01*
X137714Y170654D01*
X137506Y170740D01*
X137506Y170740D01*
X137290Y170830D01*
X137282Y170826D01*
X137283Y170825D01*
X137276Y170828D01*
X137064Y170740D01*
X137064Y170740D01*
X136858Y170655D01*
X136855Y170648D01*
X136855Y170648D01*
X136764Y170427D01*
X136763Y170427D01*
X136662Y170184D01*
X136668Y170171D01*
X136725Y168485D01*
X136155D01*
Y170368D01*
X136054Y170367D01*
X136051Y170374D01*
X136144Y170599D01*
X136152Y170598D01*
X136232Y170791D01*
X136356Y171090D01*
X136441Y171125D01*
X136426Y171142D01*
X136775Y171287D01*
Y171287D01*
X137099Y171421D01*
X137098Y171425D01*
X137117Y171433D01*
X137519Y171266D01*
X137519Y171266D01*
X137815Y171144D01*
X137847Y171069D01*
Y171015D01*
X137861Y171034D01*
X137847Y171069D01*
Y173182D01*
X137923Y173214D01*
X137847Y173292D01*
Y173182D01*
X137515Y173044D01*
X137513Y173047D01*
X137129Y172888D01*
X137114Y172894D01*
X137115Y172873D01*
X137107Y172870D01*
X136870Y172968D01*
X136871Y172973D01*
X136666Y173058D01*
X136666Y173057D01*
X136383Y173174D01*
X136330Y173303D01*
X136333Y173306D01*
X136180Y173676D01*
X136197Y173679D01*
X136141Y173962D01*
X136141Y173961D01*
X136087Y174370D01*
X136092Y174405D01*
X136091Y174404D01*
X136087Y174440D01*
X136141Y174850D01*
X136141Y174850D01*
X136197Y175133D01*
X136180Y175136D01*
X136334Y175506D01*
X136326Y175513D01*
X136378Y175638D01*
X136665Y175757D01*
X136665Y175756D01*
X136871Y175841D01*
X136870Y175845D01*
X137107Y175944D01*
X137116Y175940D01*
D02*
G37*
G36*
X140105Y175965D02*
X140104Y175881D01*
X140118Y175884D01*
X140405Y175827D01*
X140408Y175842D01*
X140646Y175744D01*
X140645Y175743D01*
X140828Y175621D01*
X140847Y175646D01*
X140997Y175584D01*
X141015Y175539D01*
X141017Y175541D01*
X141204Y175091D01*
X141206Y175092D01*
X141262Y174809D01*
X141273Y174810D01*
X141348Y174437D01*
X141342Y174412D01*
X141344Y174412D01*
X141350Y174384D01*
X141275Y174005D01*
X141263Y174006D01*
X141206Y173722D01*
X141204Y173722D01*
X141017Y173272D01*
X141010Y173279D01*
X140988Y173226D01*
X140846Y173167D01*
X140828Y173191D01*
X140646Y173069D01*
X140645Y173070D01*
X140408Y172972D01*
X140405Y172988D01*
X140118Y172931D01*
X140104Y172934D01*
X140104Y172934D01*
X140091Y172931D01*
X139807Y172988D01*
X139804Y172972D01*
X139567Y173070D01*
X139566Y173068D01*
X139383Y173191D01*
X139366Y173168D01*
X139217Y173229D01*
X139198Y173277D01*
X139193Y173272D01*
X139006Y173722D01*
X139004Y173722D01*
X138948Y174006D01*
X138936Y174005D01*
X138860Y174384D01*
X138866Y174412D01*
X138868Y174411D01*
X138863Y174437D01*
X138937Y174810D01*
X138948Y174809D01*
X139004Y175092D01*
X139006Y175091D01*
X139193Y175541D01*
X139193Y175542D01*
X139209Y175581D01*
X139365Y175645D01*
X139383Y175621D01*
X139567Y175744D01*
X139567Y175744D01*
X139804Y175842D01*
X139802Y175851D01*
X140091Y175971D01*
X140105Y175965D01*
D02*
G37*
G36*
X125121Y175965D02*
X125120Y175881D01*
X125134Y175884D01*
X125421Y175827D01*
X125424Y175842D01*
X125661Y175744D01*
X125661Y175743D01*
X125844Y175621D01*
X125862Y175646D01*
X126012Y175584D01*
X126031Y175539D01*
X126033Y175541D01*
X126220Y175091D01*
X126222Y175092D01*
X126278Y174809D01*
X126289Y174810D01*
X126363Y174437D01*
X126358Y174412D01*
X126360Y174412D01*
X126366Y174384D01*
X126290Y174005D01*
X126279Y174006D01*
X126222Y173722D01*
X126220Y173722D01*
X126033Y173272D01*
X126026Y173279D01*
X126004Y173226D01*
X125861Y173167D01*
X125844Y173191D01*
X125661Y173069D01*
X125661Y173070D01*
X125424Y172972D01*
X125421Y172988D01*
X125134Y172931D01*
X125120Y172934D01*
X125120Y172934D01*
X125107Y172931D01*
X124823Y172988D01*
X124819Y172972D01*
X124583Y173070D01*
X124582Y173068D01*
X124399Y173191D01*
X124382Y173168D01*
X124233Y173229D01*
X124213Y173277D01*
X124208Y173272D01*
X124022Y173722D01*
X124020Y173722D01*
X123963Y174006D01*
X123951Y174005D01*
X123876Y174384D01*
X123881Y174412D01*
X123884Y174411D01*
X123878Y174437D01*
X123953Y174810D01*
X123964Y174809D01*
X124020Y175092D01*
X124022Y175091D01*
X124208Y175541D01*
X124208Y175542D01*
X124225Y175581D01*
X124381Y175645D01*
X124399Y175621D01*
X124583Y175744D01*
X124583Y175744D01*
X124820Y175842D01*
X124818Y175851D01*
X125107Y175971D01*
X125121Y175965D01*
D02*
G37*
G36*
X134561Y175949D02*
X134560Y175944D01*
X134964Y175777D01*
X134975Y175803D01*
X134976Y175803D01*
X135357Y175548D01*
X135377Y175571D01*
X135449Y175541D01*
X135526Y175356D01*
X135529Y175359D01*
X135637Y175097D01*
X135645Y175100D01*
X135709Y174779D01*
X135711Y174779D01*
X135784Y174411D01*
X135781Y174396D01*
X135781Y174397D01*
X135784Y174380D01*
X135708Y173996D01*
X135706Y173997D01*
X135640Y173666D01*
X135627Y173671D01*
X135518Y173406D01*
X135513Y173409D01*
X135460Y173282D01*
X135329Y173227D01*
X135319Y173241D01*
X135013Y173037D01*
X134908Y173016D01*
X134904Y173027D01*
X134474Y172849D01*
X134474Y172931D01*
X134470Y172930D01*
X133915Y173041D01*
X133924Y173064D01*
X133653Y173176D01*
X133648Y173169D01*
X133447Y173252D01*
X133398Y173371D01*
X133862Y173767D01*
X133812Y173719D01*
X133821Y173699D01*
X134152Y173561D01*
X134153Y173562D01*
X134479Y173426D01*
X134485Y173428D01*
X134484Y173433D01*
X134494Y173429D01*
X134753Y173536D01*
X134753Y173536D01*
X134997Y173637D01*
X134994Y173641D01*
X135014Y173650D01*
X135112Y173886D01*
X135113Y173886D01*
X135233Y174175D01*
X135225Y174194D01*
X133395Y174193D01*
Y174661D01*
X133296Y174660D01*
X133287Y174682D01*
X133482Y175154D01*
X133482Y175153D01*
X133652Y175563D01*
X133700Y175582D01*
X133687Y175595D01*
X134123Y175776D01*
X134123Y175776D01*
X134552Y175953D01*
X134561Y175949D01*
D02*
G37*
G36*
X115039D02*
X115038Y175944D01*
X115442Y175777D01*
X115452Y175803D01*
X115454Y175803D01*
X115835Y175548D01*
X115855Y175571D01*
X115927Y175541D01*
X116004Y175356D01*
X116007Y175359D01*
X116115Y175097D01*
X116123Y175100D01*
X116186Y174779D01*
X116189Y174779D01*
X116262Y174412D01*
X116259Y174397D01*
X116259Y174397D01*
X116259Y174396D01*
X116259Y174397D01*
X116262Y174380D01*
X116186Y173996D01*
X116184Y173997D01*
X116118Y173666D01*
X116105Y173671D01*
X115996Y173406D01*
X115990Y173409D01*
X115938Y173282D01*
X115807Y173227D01*
X115797Y173241D01*
X115491Y173037D01*
X115386Y173016D01*
X115382Y173027D01*
X114952Y172849D01*
X114952Y172931D01*
X114947Y172930D01*
X114393Y173041D01*
X114402Y173064D01*
X114131Y173176D01*
X114126Y173169D01*
X113925Y173252D01*
X113876Y173371D01*
X114340Y173767D01*
X114290Y173719D01*
X114299Y173699D01*
X114630Y173561D01*
X114631Y173562D01*
X114957Y173426D01*
X114963Y173428D01*
X114962Y173433D01*
X114972Y173429D01*
X115231Y173536D01*
X115231Y173536D01*
X115475Y173637D01*
X115472Y173641D01*
X115492Y173650D01*
X115590Y173886D01*
X115591Y173886D01*
X115710Y174175D01*
X115703Y174194D01*
X113873Y174193D01*
Y174661D01*
X113774Y174660D01*
X113765Y174682D01*
X113960Y175154D01*
X113960Y175153D01*
X114130Y175563D01*
X114177Y175582D01*
X114164Y175595D01*
X114601Y175776D01*
X114601Y175776D01*
X115029Y175953D01*
X115039Y175949D01*
D02*
G37*
G36*
X132000Y175773D02*
X132000Y175773D01*
X132297Y175650D01*
X132328Y175575D01*
Y175521D01*
X132342Y175540D01*
X132328Y175575D01*
Y175824D01*
X132897D01*
Y172992D01*
X132328D01*
Y174678D01*
X132385Y174677D01*
X132390Y174691D01*
X132289Y174934D01*
X132289Y174934D01*
X132197Y175155D01*
X132197Y175155D01*
X132195Y175161D01*
X131987Y175247D01*
X131987Y175247D01*
X131771Y175336D01*
X131763Y175333D01*
X131764Y175331D01*
X131757Y175335D01*
X131545Y175247D01*
X131545Y175247D01*
X131339Y175161D01*
X131336Y175155D01*
X131336Y175155D01*
X131245Y174934D01*
X131244Y174934D01*
X131143Y174691D01*
X131149Y174677D01*
X131206Y172992D01*
X130636D01*
Y174874D01*
X130535Y174874D01*
X130532Y174881D01*
X130625Y175106D01*
X130633Y175104D01*
X130713Y175297D01*
X130837Y175597D01*
X130922Y175632D01*
X130907Y175649D01*
X131256Y175794D01*
Y175794D01*
X131580Y175928D01*
X131579Y175931D01*
X131598Y175939D01*
X132000Y175773D01*
D02*
G37*
G36*
X123436Y173941D02*
X123539Y173942D01*
X123542Y173934D01*
X123448Y173709D01*
X123440Y173710D01*
X123360Y173516D01*
X123360Y173516D01*
X123236Y173218D01*
X123151Y173183D01*
X123165Y173166D01*
X122816Y173021D01*
X122816Y173021D01*
X122487Y172885D01*
X122488Y172885D01*
X122469Y172877D01*
X122071Y173042D01*
X122071Y173042D01*
X121776Y173164D01*
X121745Y173240D01*
Y173292D01*
X121732Y173272D01*
X121745Y173240D01*
Y172992D01*
X121175D01*
Y175824D01*
X121745D01*
Y174135D01*
X121687Y174136D01*
X121682Y174122D01*
X121783Y173877D01*
X121784Y173878D01*
X121875Y173657D01*
X121875Y173656D01*
X121876Y173652D01*
X122084Y173566D01*
X122084Y173566D01*
X122296Y173478D01*
X122303Y173481D01*
X122302Y173480D01*
X122310Y173476D01*
X122526Y173566D01*
X122526Y173566D01*
X122736Y173653D01*
X122737Y173656D01*
X122736Y173657D01*
X122828Y173878D01*
X122828Y173877D01*
X122930Y174122D01*
X122924Y174136D01*
X122867Y175824D01*
X123436D01*
Y173941D01*
D02*
G37*
G36*
X116771Y173805D02*
X116770Y173807D01*
X116793Y173825D01*
X116771Y173805D01*
D02*
G37*
G36*
X131902Y171266D02*
X131902Y171266D01*
X132199Y171144D01*
X132230Y171069D01*
Y171015D01*
X132244Y171034D01*
X132230Y171069D01*
Y171317D01*
X132799D01*
Y168485D01*
X132230D01*
Y170187D01*
X132285Y170186D01*
X132293Y170204D01*
X132188Y170457D01*
X132188Y170456D01*
X132112Y170639D01*
X132072Y170655D01*
X132079Y170663D01*
X131679Y170828D01*
X131679Y170828D01*
X131678Y170824D01*
X131489Y170746D01*
Y170746D01*
X131285Y170661D01*
X130891Y171131D01*
X130863Y171165D01*
X131178Y171296D01*
X131178Y171296D01*
X131482Y171421D01*
X131482Y171421D01*
X131481Y171425D01*
X131500Y171433D01*
X131902Y171266D01*
D02*
G37*
G36*
X120353D02*
X120353Y171266D01*
X120650Y171144D01*
X120681Y171069D01*
Y171015D01*
X120695Y171034D01*
X120681Y171069D01*
Y171317D01*
X121250D01*
Y168485D01*
X120681D01*
Y170187D01*
X120736Y170186D01*
X120744Y170204D01*
X120639Y170457D01*
X120639Y170456D01*
X120563Y170639D01*
X120523Y170655D01*
X120530Y170663D01*
X120130Y170828D01*
X120130Y170828D01*
X120130Y170824D01*
X119940Y170746D01*
Y170746D01*
X119737Y170661D01*
X119342Y171131D01*
X119315Y171165D01*
X119630Y171296D01*
X119630Y171296D01*
X119933Y171421D01*
X119933Y171421D01*
X119932Y171425D01*
X119951Y171433D01*
X120353Y171266D01*
D02*
G37*
G36*
X134605Y171376D02*
X134604Y171370D01*
X134638Y171376D01*
X134892Y171326D01*
X134897Y171352D01*
X135143Y171249D01*
X135143Y171250D01*
X135494Y171104D01*
X135557Y170952D01*
X135100Y170593D01*
X135053Y170707D01*
X134904Y170769D01*
X134905Y170771D01*
X134760Y170830D01*
X134763Y170850D01*
X134584Y170923D01*
X134576Y170920D01*
X134579Y170892D01*
X134540Y170909D01*
X134324Y170819D01*
X134326Y170806D01*
X134148Y170732D01*
X134149Y170730D01*
X134083Y170703D01*
X134045Y170611D01*
X134045Y170611D01*
X133982Y170457D01*
X133987Y170446D01*
X134011Y170147D01*
X134778D01*
X134778Y170239D01*
X134786Y170243D01*
X135167Y170085D01*
X135167Y170084D01*
X135475Y169956D01*
X135483Y169937D01*
X135488Y169942D01*
X135616Y169633D01*
X135617Y169633D01*
X135748Y169316D01*
X135743Y169305D01*
X135738Y169307D01*
X135743Y169295D01*
X135607Y168966D01*
X135607Y168966D01*
X135486Y168674D01*
X135443Y168656D01*
X135453Y168649D01*
X135115Y168508D01*
X135115Y168507D01*
X134703Y168336D01*
X134703Y168414D01*
X134691Y168411D01*
X134455Y168458D01*
X134451Y168434D01*
X134260Y168513D01*
X134260Y168513D01*
X134077Y168588D01*
X134021Y168724D01*
X134011Y168725D01*
Y168475D01*
X133460D01*
Y170414D01*
X133434Y170414D01*
X133482Y170653D01*
X133460Y170657D01*
X133542Y170855D01*
X133542Y170855D01*
X133648Y171111D01*
X133765Y171159D01*
X133764Y171161D01*
X134135Y171315D01*
X134139Y171300D01*
X134564Y171385D01*
X134605Y171376D01*
D02*
G37*
G36*
X123065D02*
X123064Y171370D01*
X123098Y171376D01*
X123352Y171326D01*
X123357Y171352D01*
X123603Y171249D01*
X123603Y171250D01*
X123954Y171104D01*
X124017Y170952D01*
X123560Y170593D01*
X123513Y170707D01*
X123364Y170769D01*
X123365Y170771D01*
X123220Y170830D01*
X123223Y170850D01*
X123044Y170923D01*
X123036Y170920D01*
X123039Y170892D01*
X123000Y170909D01*
X122784Y170819D01*
X122786Y170806D01*
X122608Y170732D01*
X122609Y170730D01*
X122543Y170703D01*
X122505Y170611D01*
X122505Y170611D01*
X122442Y170457D01*
X122447Y170446D01*
X122471Y170147D01*
X123238D01*
X123238Y170239D01*
X123246Y170243D01*
X123627Y170085D01*
X123627Y170084D01*
X123935Y169956D01*
X123943Y169937D01*
X123948Y169942D01*
X124076Y169633D01*
X124077Y169633D01*
X124208Y169316D01*
X124203Y169305D01*
X124198Y169307D01*
X124203Y169295D01*
X124067Y168966D01*
X124067Y168966D01*
X123946Y168674D01*
X123903Y168656D01*
X123914Y168649D01*
X123574Y168508D01*
X123575Y168507D01*
X123163Y168336D01*
X123163Y168414D01*
X123151Y168411D01*
X122915Y168458D01*
X122911Y168434D01*
X122720Y168513D01*
X122720Y168513D01*
X122537Y168588D01*
X122481Y168724D01*
X122471Y168725D01*
Y168475D01*
X121920D01*
Y170414D01*
X121895Y170414D01*
X121942Y170653D01*
X121920Y170657D01*
X122002Y170855D01*
X122108Y171111D01*
X122225Y171159D01*
X122224Y171161D01*
X122595Y171315D01*
X122599Y171300D01*
X123024Y171385D01*
X123065Y171376D01*
D02*
G37*
G36*
X118138Y171443D02*
X118138Y171438D01*
X118541Y171271D01*
X118552Y171297D01*
X118553Y171296D01*
X118935Y171042D01*
X118954Y171065D01*
X119027Y171035D01*
X119103Y170850D01*
X119106Y170852D01*
X119215Y170591D01*
X119222Y170593D01*
X119286Y170272D01*
X119288Y170273D01*
X119361Y169905D01*
X119358Y169890D01*
X119358Y169890D01*
X119362Y169873D01*
X119285Y169490D01*
X119283Y169490D01*
X119218Y169160D01*
X119205Y169164D01*
X119095Y168899D01*
X119090Y168902D01*
X119037Y168775D01*
X118906Y168721D01*
X118897Y168734D01*
X118591Y168530D01*
X118485Y168509D01*
X118482Y168520D01*
X118051Y168342D01*
X118051Y168425D01*
X118047Y168424D01*
X117492Y168534D01*
X117501Y168557D01*
X117231Y168669D01*
X117225Y168663D01*
X117024Y168746D01*
X116975Y168864D01*
X117440Y169260D01*
X117390Y169212D01*
X117399Y169192D01*
X117730Y169055D01*
X117730Y169055D01*
X118057Y168920D01*
X118062Y168922D01*
X118061Y168926D01*
X118072Y168922D01*
X118331Y169029D01*
X118330Y169030D01*
X118575Y169131D01*
X118571Y169135D01*
X118591Y169143D01*
X118689Y169380D01*
X118690Y169379D01*
X118810Y169668D01*
X118802Y169687D01*
X116973Y169686D01*
Y170155D01*
X116874Y170153D01*
X116864Y170175D01*
X117060Y170647D01*
X117060Y170647D01*
X117229Y171056D01*
X117277Y171076D01*
X117264Y171088D01*
X117701Y171269D01*
X117701Y171269D01*
X118129Y171447D01*
X118138Y171443D01*
D02*
G37*
G36*
X135100Y170593D02*
X135098Y170592D01*
X135100Y170593D01*
X135100Y170593D01*
D02*
G37*
G36*
X123560D02*
X123558Y170592D01*
X123560Y170593D01*
X123560Y170593D01*
D02*
G37*
G36*
X129163Y171042D02*
X129495Y171264D01*
X129497Y171259D01*
X129883Y171419D01*
X129895Y171414D01*
X129894Y171435D01*
X129902Y171438D01*
X130141Y171339D01*
X130140Y171335D01*
X130347Y171249D01*
X130347Y171250D01*
X130624Y171135D01*
X130679Y171002D01*
X130677Y171001D01*
X130831Y170629D01*
X130814Y170626D01*
X130870Y170345D01*
X130870Y170345D01*
X130923Y169939D01*
X130919Y169904D01*
X130920Y169905D01*
X130925Y169869D01*
X130871Y169458D01*
X130871Y169458D01*
X130814Y169174D01*
X130832Y169171D01*
X130677Y168798D01*
X130676Y168800D01*
X130620Y168664D01*
X130347Y168551D01*
X130347Y168551D01*
X130141Y168466D01*
X130142Y168461D01*
X129902Y168362D01*
X129894Y168366D01*
X129895Y168377D01*
X129884Y168373D01*
X129495Y168534D01*
X129495Y168534D01*
X129144Y168679D01*
X129119Y168741D01*
X129163Y168485D01*
X128593D01*
Y172460D01*
X129163D01*
Y171042D01*
D02*
G37*
G36*
X127346Y168485D02*
X126843D01*
X126251Y170466D01*
X126241D01*
X125648Y168485D01*
X125146D01*
X124241Y171317D01*
X124844D01*
X125386Y169334D01*
X125398D01*
X126038Y171317D01*
X126453D01*
X127094Y169334D01*
X127105D01*
X127648Y171317D01*
X128250D01*
X127346Y168485D01*
D02*
G37*
G36*
X79733Y211460D02*
X79340D01*
Y211912D01*
X79733D01*
Y211460D01*
D02*
G37*
G36*
X18294Y211922D02*
X18372Y211916D01*
X18447Y211903D01*
X18515Y211888D01*
X18581Y211869D01*
X18640Y211850D01*
X18693Y211828D01*
X18743Y211806D01*
X18787Y211785D01*
X18827Y211763D01*
X18858Y211744D01*
X18887Y211725D01*
X18908Y211710D01*
X18924Y211697D01*
X18933Y211691D01*
X18936Y211688D01*
X18983Y211641D01*
X19027Y211591D01*
X19064Y211538D01*
X19099Y211482D01*
X19127Y211423D01*
X19152Y211366D01*
X19173Y211310D01*
X19192Y211257D01*
X19205Y211204D01*
X19217Y211157D01*
X19227Y211114D01*
X19236Y211076D01*
X19239Y211045D01*
X19242Y211020D01*
X19245Y211008D01*
Y211001D01*
X18843Y210961D01*
X18840Y211017D01*
X18837Y211067D01*
X18827Y211117D01*
X18818Y211160D01*
X18802Y211201D01*
X18790Y211242D01*
X18774Y211276D01*
X18759Y211307D01*
X18743Y211335D01*
X18727Y211360D01*
X18712Y211382D01*
X18699Y211398D01*
X18690Y211410D01*
X18681Y211423D01*
X18677Y211426D01*
X18674Y211429D01*
X18640Y211460D01*
X18606Y211485D01*
X18568Y211510D01*
X18531Y211529D01*
X18456Y211560D01*
X18381Y211579D01*
X18350Y211585D01*
X18319Y211591D01*
X18291Y211594D01*
X18266Y211597D01*
X18247Y211600D01*
X18219D01*
X18169Y211597D01*
X18122Y211594D01*
X18038Y211576D01*
X17963Y211550D01*
X17929Y211535D01*
X17901Y211519D01*
X17873Y211504D01*
X17851Y211488D01*
X17829Y211476D01*
X17813Y211463D01*
X17801Y211454D01*
X17788Y211444D01*
X17785Y211441D01*
X17782Y211438D01*
X17751Y211407D01*
X17726Y211376D01*
X17704Y211342D01*
X17685Y211310D01*
X17654Y211245D01*
X17635Y211182D01*
X17623Y211126D01*
X17620Y211104D01*
X17617Y211086D01*
X17614Y211067D01*
Y211054D01*
Y211048D01*
Y211045D01*
X17617Y211004D01*
X17623Y210961D01*
X17632Y210920D01*
X17642Y210877D01*
X17673Y210799D01*
X17707Y210727D01*
X17726Y210696D01*
X17741Y210664D01*
X17757Y210640D01*
X17773Y210618D01*
X17782Y210599D01*
X17791Y210587D01*
X17798Y210577D01*
X17801Y210574D01*
X17838Y210524D01*
X17885Y210474D01*
X17935Y210418D01*
X17988Y210362D01*
X18103Y210249D01*
X18222Y210140D01*
X18278Y210090D01*
X18331Y210044D01*
X18378Y210000D01*
X18422Y209966D01*
X18456Y209934D01*
X18484Y209912D01*
X18500Y209900D01*
X18506Y209894D01*
X18565Y209844D01*
X18624Y209794D01*
X18677Y209747D01*
X18727Y209703D01*
X18771Y209660D01*
X18815Y209619D01*
X18852Y209582D01*
X18887Y209551D01*
X18918Y209519D01*
X18943Y209491D01*
X18965Y209466D01*
X18983Y209448D01*
X18999Y209432D01*
X19008Y209420D01*
X19014Y209413D01*
X19017Y209410D01*
X19080Y209332D01*
X19133Y209257D01*
X19177Y209186D01*
X19214Y209120D01*
X19242Y209064D01*
X19252Y209042D01*
X19261Y209023D01*
X19267Y209008D01*
X19273Y208995D01*
X19276Y208989D01*
Y208986D01*
X19292Y208936D01*
X19305Y208889D01*
X19311Y208842D01*
X19317Y208802D01*
X19320Y208764D01*
Y208739D01*
Y208721D01*
Y208718D01*
Y208714D01*
X17208D01*
Y209092D01*
X18777D01*
X18752Y209133D01*
X18724Y209170D01*
X18696Y209204D01*
X18671Y209239D01*
X18646Y209264D01*
X18628Y209285D01*
X18615Y209301D01*
X18612Y209304D01*
X18590Y209326D01*
X18562Y209351D01*
X18531Y209382D01*
X18496Y209413D01*
X18422Y209479D01*
X18347Y209544D01*
X18272Y209607D01*
X18241Y209635D01*
X18213Y209660D01*
X18191Y209679D01*
X18172Y209694D01*
X18159Y209703D01*
X18156Y209707D01*
X18081Y209772D01*
X18010Y209831D01*
X17944Y209891D01*
X17885Y209944D01*
X17829Y209994D01*
X17782Y210040D01*
X17735Y210084D01*
X17698Y210122D01*
X17663Y210156D01*
X17632Y210184D01*
X17610Y210209D01*
X17589Y210231D01*
X17573Y210246D01*
X17564Y210259D01*
X17557Y210265D01*
X17554Y210268D01*
X17489Y210343D01*
X17436Y210415D01*
X17389Y210484D01*
X17355Y210540D01*
X17326Y210590D01*
X17317Y210608D01*
X17308Y210627D01*
X17301Y210640D01*
X17295Y210649D01*
X17292Y210655D01*
Y210658D01*
X17264Y210727D01*
X17245Y210795D01*
X17230Y210861D01*
X17220Y210917D01*
X17214Y210967D01*
Y210986D01*
X17211Y211004D01*
Y211017D01*
Y211026D01*
Y211033D01*
Y211036D01*
X17214Y211104D01*
X17223Y211170D01*
X17236Y211235D01*
X17252Y211295D01*
X17273Y211351D01*
X17295Y211401D01*
X17320Y211451D01*
X17345Y211494D01*
X17370Y211535D01*
X17395Y211569D01*
X17417Y211597D01*
X17439Y211622D01*
X17454Y211644D01*
X17467Y211657D01*
X17476Y211666D01*
X17479Y211669D01*
X17532Y211713D01*
X17589Y211753D01*
X17645Y211788D01*
X17707Y211816D01*
X17766Y211841D01*
X17829Y211862D01*
X17888Y211878D01*
X17944Y211894D01*
X18000Y211903D01*
X18050Y211912D01*
X18094Y211919D01*
X18131Y211922D01*
X18166D01*
X18188Y211925D01*
X18209D01*
X18294Y211922D01*
D02*
G37*
G36*
X32749Y208714D02*
X32324D01*
Y210221D01*
X30665D01*
Y208714D01*
X30240D01*
Y211912D01*
X30665D01*
Y210599D01*
X32324D01*
Y211912D01*
X32749D01*
Y208714D01*
D02*
G37*
G36*
X37931Y209675D02*
X36724D01*
Y210072D01*
X37931D01*
Y209675D01*
D02*
G37*
G36*
X27257D02*
X26050D01*
Y210072D01*
X27257D01*
Y209675D01*
D02*
G37*
G36*
X40957Y208714D02*
X40552D01*
Y211223D01*
X38873Y208714D01*
X38436D01*
Y211912D01*
X38842D01*
Y209401D01*
X40524Y211912D01*
X40957D01*
Y208714D01*
D02*
G37*
G36*
X20755D02*
X20387D01*
X19507Y211033D01*
X19913D01*
X20428Y209616D01*
X20462Y209523D01*
X20490Y209438D01*
X20515Y209363D01*
X20537Y209301D01*
X20546Y209273D01*
X20553Y209248D01*
X20559Y209226D01*
X20565Y209210D01*
X20568Y209195D01*
X20571Y209186D01*
X20574Y209179D01*
Y209176D01*
X20599Y209267D01*
X20627Y209351D01*
X20652Y209429D01*
X20674Y209501D01*
X20684Y209532D01*
X20693Y209560D01*
X20699Y209585D01*
X20709Y209604D01*
X20715Y209622D01*
X20718Y209635D01*
X20721Y209641D01*
Y209644D01*
X21220Y211033D01*
X21632D01*
X20755Y208714D01*
D02*
G37*
G36*
X49076Y211965D02*
X49154Y211959D01*
X49225Y211950D01*
X49297Y211937D01*
X49366Y211925D01*
X49431Y211906D01*
X49491Y211891D01*
X49544Y211872D01*
X49597Y211853D01*
X49640Y211838D01*
X49681Y211819D01*
X49712Y211806D01*
X49740Y211794D01*
X49759Y211785D01*
X49771Y211778D01*
X49775Y211775D01*
X49840Y211738D01*
X49899Y211694D01*
X49955Y211650D01*
X50008Y211604D01*
X50055Y211557D01*
X50102Y211510D01*
X50143Y211463D01*
X50177Y211420D01*
X50211Y211376D01*
X50239Y211335D01*
X50261Y211301D01*
X50283Y211270D01*
X50299Y211245D01*
X50308Y211223D01*
X50314Y211210D01*
X50317Y211207D01*
X50352Y211136D01*
X50380Y211064D01*
X50405Y210989D01*
X50427Y210914D01*
X50445Y210842D01*
X50461Y210767D01*
X50473Y210699D01*
X50483Y210633D01*
X50492Y210571D01*
X50498Y210515D01*
X50501Y210465D01*
X50505Y210421D01*
X50508Y210387D01*
Y210359D01*
Y210343D01*
Y210337D01*
X50505Y210253D01*
X50501Y210168D01*
X50492Y210087D01*
X50483Y210009D01*
X50467Y209934D01*
X50455Y209863D01*
X50439Y209797D01*
X50423Y209735D01*
X50408Y209679D01*
X50392Y209629D01*
X50377Y209585D01*
X50364Y209547D01*
X50355Y209519D01*
X50345Y209498D01*
X50342Y209485D01*
X50339Y209479D01*
X50305Y209407D01*
X50271Y209338D01*
X50230Y209276D01*
X50193Y209217D01*
X50152Y209161D01*
X50111Y209111D01*
X50071Y209067D01*
X50030Y209027D01*
X49993Y208989D01*
X49959Y208958D01*
X49931Y208930D01*
X49902Y208911D01*
X49881Y208892D01*
X49862Y208880D01*
X49852Y208874D01*
X49849Y208870D01*
X49787Y208833D01*
X49721Y208802D01*
X49650Y208774D01*
X49581Y208749D01*
X49509Y208730D01*
X49441Y208711D01*
X49372Y208699D01*
X49306Y208686D01*
X49244Y208680D01*
X49188Y208674D01*
X49138Y208668D01*
X49094Y208664D01*
X49057Y208661D01*
X49007D01*
X48917Y208664D01*
X48826Y208674D01*
X48745Y208686D01*
X48664Y208705D01*
X48589Y208724D01*
X48520Y208749D01*
X48455Y208771D01*
X48395Y208799D01*
X48346Y208824D01*
X48299Y208849D01*
X48258Y208870D01*
X48224Y208889D01*
X48196Y208908D01*
X48177Y208920D01*
X48165Y208930D01*
X48161Y208933D01*
X48099Y208986D01*
X48040Y209045D01*
X47990Y209108D01*
X47940Y209173D01*
X47896Y209239D01*
X47856Y209304D01*
X47821Y209370D01*
X47790Y209435D01*
X47765Y209494D01*
X47740Y209551D01*
X47721Y209600D01*
X47706Y209644D01*
X47697Y209679D01*
X47687Y209707D01*
X47681Y209722D01*
Y209729D01*
X48105Y209835D01*
X48124Y209763D01*
X48146Y209694D01*
X48168Y209629D01*
X48193Y209569D01*
X48221Y209516D01*
X48249Y209466D01*
X48277Y209420D01*
X48305Y209379D01*
X48330Y209345D01*
X48355Y209314D01*
X48380Y209285D01*
X48399Y209264D01*
X48414Y209248D01*
X48430Y209236D01*
X48436Y209229D01*
X48439Y209226D01*
X48486Y209192D01*
X48536Y209161D01*
X48586Y209133D01*
X48636Y209108D01*
X48689Y209089D01*
X48739Y209073D01*
X48832Y209048D01*
X48876Y209039D01*
X48917Y209033D01*
X48951Y209030D01*
X48982Y209027D01*
X49007Y209023D01*
X49041D01*
X49094Y209027D01*
X49147Y209030D01*
X49250Y209048D01*
X49341Y209070D01*
X49384Y209086D01*
X49422Y209098D01*
X49459Y209114D01*
X49491Y209126D01*
X49519Y209139D01*
X49540Y209151D01*
X49559Y209161D01*
X49572Y209167D01*
X49581Y209170D01*
X49584Y209173D01*
X49628Y209204D01*
X49672Y209236D01*
X49746Y209307D01*
X49809Y209382D01*
X49862Y209457D01*
X49902Y209523D01*
X49918Y209551D01*
X49931Y209576D01*
X49940Y209597D01*
X49946Y209613D01*
X49952Y209622D01*
Y209626D01*
X49993Y209744D01*
X50021Y209866D01*
X50043Y209987D01*
X50049Y210044D01*
X50055Y210097D01*
X50062Y210150D01*
X50065Y210193D01*
X50068Y210237D01*
Y210271D01*
X50071Y210299D01*
Y210321D01*
Y210337D01*
Y210340D01*
X50068Y210455D01*
X50055Y210568D01*
X50040Y210671D01*
X50030Y210721D01*
X50021Y210764D01*
X50012Y210805D01*
X50002Y210842D01*
X49993Y210874D01*
X49987Y210902D01*
X49980Y210923D01*
X49974Y210939D01*
X49971Y210948D01*
Y210951D01*
X49949Y211008D01*
X49927Y211058D01*
X49902Y211107D01*
X49874Y211151D01*
X49846Y211195D01*
X49818Y211235D01*
X49790Y211270D01*
X49759Y211304D01*
X49734Y211332D01*
X49709Y211357D01*
X49684Y211379D01*
X49665Y211398D01*
X49647Y211410D01*
X49634Y211420D01*
X49628Y211426D01*
X49625Y211429D01*
X49578Y211460D01*
X49528Y211488D01*
X49475Y211510D01*
X49425Y211532D01*
X49372Y211550D01*
X49322Y211563D01*
X49222Y211585D01*
X49179Y211591D01*
X49138Y211597D01*
X49101Y211600D01*
X49069Y211604D01*
X49041Y211607D01*
X49007D01*
X48948Y211604D01*
X48891Y211600D01*
X48789Y211582D01*
X48742Y211569D01*
X48698Y211557D01*
X48658Y211541D01*
X48623Y211526D01*
X48589Y211510D01*
X48561Y211494D01*
X48536Y211482D01*
X48514Y211469D01*
X48498Y211460D01*
X48486Y211451D01*
X48480Y211448D01*
X48477Y211444D01*
X48439Y211413D01*
X48402Y211376D01*
X48336Y211298D01*
X48280Y211214D01*
X48233Y211133D01*
X48215Y211092D01*
X48199Y211058D01*
X48183Y211023D01*
X48174Y210995D01*
X48165Y210973D01*
X48158Y210955D01*
X48152Y210942D01*
Y210939D01*
X47734Y211036D01*
X47762Y211117D01*
X47790Y211192D01*
X47824Y211263D01*
X47862Y211329D01*
X47899Y211391D01*
X47937Y211448D01*
X47974Y211497D01*
X48012Y211544D01*
X48049Y211585D01*
X48083Y211622D01*
X48112Y211653D01*
X48140Y211679D01*
X48161Y211697D01*
X48177Y211710D01*
X48189Y211719D01*
X48193Y211722D01*
X48255Y211766D01*
X48321Y211803D01*
X48389Y211838D01*
X48458Y211866D01*
X48523Y211888D01*
X48592Y211909D01*
X48658Y211925D01*
X48717Y211937D01*
X48776Y211947D01*
X48829Y211956D01*
X48876Y211962D01*
X48917Y211965D01*
X48951Y211969D01*
X48998D01*
X49076Y211965D01*
D02*
G37*
G36*
X63106Y209594D02*
Y209507D01*
X63103Y209432D01*
X63100Y209370D01*
X63094Y209317D01*
X63091Y209276D01*
X63087Y209248D01*
X63084Y209232D01*
Y209226D01*
X63069Y209164D01*
X63050Y209108D01*
X63031Y209058D01*
X63013Y209017D01*
X62994Y208983D01*
X62978Y208958D01*
X62969Y208942D01*
X62966Y208936D01*
X62928Y208892D01*
X62888Y208855D01*
X62844Y208821D01*
X62801Y208792D01*
X62760Y208771D01*
X62729Y208755D01*
X62716Y208749D01*
X62707Y208742D01*
X62704Y208739D01*
X62701D01*
X62632Y208715D01*
X62567Y208696D01*
X62501Y208680D01*
X62442Y208671D01*
X62392Y208664D01*
X62370D01*
X62351Y208661D01*
X62317D01*
X62233Y208664D01*
X62151Y208677D01*
X62077Y208699D01*
X62008Y208724D01*
X61942Y208752D01*
X61883Y208786D01*
X61827Y208821D01*
X61777Y208858D01*
X61733Y208892D01*
X61693Y208927D01*
X61662Y208961D01*
X61634Y208992D01*
X61612Y209014D01*
X61596Y209036D01*
X61587Y209048D01*
X61584Y209051D01*
Y208715D01*
X61231D01*
Y211033D01*
X61624D01*
Y209788D01*
Y209735D01*
X61627Y209685D01*
X61630Y209635D01*
X61634Y209591D01*
X61640Y209551D01*
X61646Y209513D01*
X61652Y209482D01*
X61655Y209451D01*
X61662Y209423D01*
X61668Y209401D01*
X61674Y209382D01*
X61680Y209363D01*
X61683Y209351D01*
X61687Y209342D01*
X61690Y209338D01*
Y209335D01*
X61718Y209279D01*
X61752Y209232D01*
X61790Y209189D01*
X61824Y209154D01*
X61858Y209126D01*
X61886Y209104D01*
X61905Y209092D01*
X61908Y209089D01*
X61911D01*
X61971Y209058D01*
X62027Y209036D01*
X62083Y209020D01*
X62133Y209011D01*
X62177Y209005D01*
X62208Y208998D01*
X62239D01*
X62301Y209001D01*
X62357Y209011D01*
X62410Y209027D01*
X62451Y209042D01*
X62489Y209058D01*
X62513Y209073D01*
X62529Y209083D01*
X62535Y209086D01*
X62576Y209120D01*
X62610Y209161D01*
X62635Y209201D01*
X62657Y209242D01*
X62673Y209276D01*
X62682Y209304D01*
X62688Y209323D01*
X62691Y209326D01*
Y209329D01*
X62694Y209351D01*
X62697Y209379D01*
X62701Y209407D01*
X62704Y209438D01*
X62707Y209507D01*
X62710Y209576D01*
X62713Y209641D01*
Y209669D01*
Y209694D01*
Y209716D01*
Y209732D01*
Y209741D01*
Y209744D01*
Y211033D01*
X63106D01*
Y209594D01*
D02*
G37*
G36*
X77917Y211079D02*
X78020Y211064D01*
X78113Y211039D01*
X78157Y211026D01*
X78198Y211014D01*
X78235Y211001D01*
X78266Y210989D01*
X78294Y210977D01*
X78319Y210964D01*
X78338Y210955D01*
X78351Y210948D01*
X78360Y210945D01*
X78363Y210942D01*
X78410Y210914D01*
X78450Y210883D01*
X78528Y210817D01*
X78594Y210749D01*
X78647Y210680D01*
X78688Y210618D01*
X78703Y210590D01*
X78716Y210568D01*
X78728Y210549D01*
X78734Y210533D01*
X78737Y210524D01*
X78741Y210521D01*
X78781Y210412D01*
X78812Y210299D01*
X78831Y210190D01*
X78840Y210137D01*
X78847Y210087D01*
X78853Y210040D01*
X78856Y209997D01*
X78859Y209959D01*
Y209925D01*
X78862Y209900D01*
Y209878D01*
Y209866D01*
Y209863D01*
X78859Y209756D01*
X78850Y209657D01*
X78834Y209566D01*
X78819Y209479D01*
X78797Y209398D01*
X78772Y209326D01*
X78747Y209257D01*
X78719Y209198D01*
X78691Y209145D01*
X78666Y209098D01*
X78641Y209061D01*
X78619Y209030D01*
X78600Y209001D01*
X78588Y208986D01*
X78578Y208973D01*
X78575Y208970D01*
X78519Y208917D01*
X78460Y208867D01*
X78397Y208827D01*
X78332Y208792D01*
X78269Y208761D01*
X78207Y208736D01*
X78145Y208718D01*
X78085Y208699D01*
X78029Y208686D01*
X77976Y208677D01*
X77929Y208671D01*
X77889Y208668D01*
X77858Y208664D01*
X77833Y208661D01*
X77811D01*
X77742Y208664D01*
X77674Y208671D01*
X77611Y208683D01*
X77549Y208696D01*
X77493Y208715D01*
X77439Y208733D01*
X77393Y208752D01*
X77349Y208774D01*
X77308Y208796D01*
X77274Y208814D01*
X77243Y208833D01*
X77218Y208852D01*
X77196Y208864D01*
X77184Y208877D01*
X77174Y208883D01*
X77171Y208886D01*
X77124Y208930D01*
X77081Y208977D01*
X77043Y209027D01*
X77009Y209080D01*
X76978Y209129D01*
X76953Y209183D01*
X76928Y209232D01*
X76909Y209282D01*
X76894Y209329D01*
X76878Y209373D01*
X76865Y209410D01*
X76859Y209444D01*
X76850Y209473D01*
X76847Y209491D01*
X76844Y209507D01*
Y209510D01*
X77231Y209563D01*
X77240Y209510D01*
X77252Y209460D01*
X77265Y209413D01*
X77280Y209370D01*
X77296Y209329D01*
X77312Y209295D01*
X77330Y209261D01*
X77346Y209232D01*
X77362Y209207D01*
X77377Y209186D01*
X77393Y209167D01*
X77405Y209151D01*
X77415Y209139D01*
X77424Y209129D01*
X77427Y209126D01*
X77430Y209123D01*
X77458Y209098D01*
X77489Y209076D01*
X77555Y209042D01*
X77617Y209017D01*
X77680Y209001D01*
X77733Y208989D01*
X77755Y208986D01*
X77776D01*
X77792Y208983D01*
X77814D01*
X77867Y208986D01*
X77917Y208992D01*
X77964Y209001D01*
X78010Y209017D01*
X78051Y209033D01*
X78088Y209051D01*
X78126Y209070D01*
X78157Y209089D01*
X78185Y209108D01*
X78210Y209129D01*
X78232Y209145D01*
X78251Y209161D01*
X78263Y209176D01*
X78273Y209186D01*
X78279Y209192D01*
X78282Y209195D01*
X78313Y209239D01*
X78341Y209285D01*
X78363Y209335D01*
X78385Y209391D01*
X78400Y209448D01*
X78416Y209504D01*
X78438Y209616D01*
X78444Y209666D01*
X78450Y209716D01*
X78453Y209760D01*
X78457Y209800D01*
X78460Y209831D01*
Y209853D01*
Y209869D01*
Y209875D01*
X78457Y209959D01*
X78450Y210037D01*
X78444Y210109D01*
X78432Y210175D01*
X78416Y210237D01*
X78400Y210290D01*
X78385Y210340D01*
X78366Y210387D01*
X78351Y210424D01*
X78335Y210458D01*
X78319Y210487D01*
X78304Y210508D01*
X78291Y210527D01*
X78285Y210540D01*
X78279Y210546D01*
X78276Y210549D01*
X78238Y210587D01*
X78201Y210621D01*
X78160Y210649D01*
X78120Y210674D01*
X78079Y210696D01*
X78042Y210711D01*
X78001Y210727D01*
X77964Y210736D01*
X77929Y210746D01*
X77895Y210752D01*
X77867Y210758D01*
X77842Y210761D01*
X77820Y210764D01*
X77792D01*
X77720Y210758D01*
X77658Y210746D01*
X77599Y210727D01*
X77552Y210705D01*
X77511Y210683D01*
X77483Y210665D01*
X77464Y210652D01*
X77458Y210646D01*
X77408Y210596D01*
X77368Y210540D01*
X77333Y210484D01*
X77308Y210424D01*
X77287Y210374D01*
X77280Y210352D01*
X77271Y210331D01*
X77268Y210315D01*
X77265Y210302D01*
X77262Y210296D01*
Y210293D01*
X76881Y210352D01*
X76897Y210415D01*
X76915Y210477D01*
X76934Y210533D01*
X76959Y210583D01*
X76984Y210633D01*
X77009Y210677D01*
X77034Y210718D01*
X77062Y210755D01*
X77087Y210786D01*
X77109Y210814D01*
X77131Y210836D01*
X77153Y210858D01*
X77168Y210874D01*
X77181Y210883D01*
X77187Y210889D01*
X77190Y210892D01*
X77237Y210927D01*
X77287Y210955D01*
X77337Y210983D01*
X77386Y211004D01*
X77439Y211023D01*
X77489Y211039D01*
X77589Y211061D01*
X77633Y211070D01*
X77677Y211076D01*
X77714Y211079D01*
X77745Y211083D01*
X77770Y211086D01*
X77864D01*
X77917Y211079D01*
D02*
G37*
G36*
X75646Y211083D02*
X75730Y211073D01*
X75808Y211054D01*
X75883Y211036D01*
X75951Y211011D01*
X76017Y210983D01*
X76076Y210955D01*
X76129Y210923D01*
X76179Y210892D01*
X76220Y210864D01*
X76257Y210836D01*
X76285Y210811D01*
X76310Y210792D01*
X76326Y210777D01*
X76338Y210764D01*
X76341Y210761D01*
X76394Y210699D01*
X76441Y210630D01*
X76479Y210558D01*
X76513Y210484D01*
X76544Y210405D01*
X76569Y210331D01*
X76588Y210256D01*
X76603Y210187D01*
X76616Y210119D01*
X76625Y210056D01*
X76631Y210000D01*
X76635Y209950D01*
X76638Y209909D01*
X76641Y209878D01*
Y209859D01*
Y209856D01*
Y209853D01*
X76638Y209750D01*
X76628Y209654D01*
X76613Y209560D01*
X76594Y209476D01*
X76572Y209398D01*
X76547Y209326D01*
X76519Y209261D01*
X76491Y209201D01*
X76466Y209148D01*
X76438Y209101D01*
X76413Y209064D01*
X76391Y209033D01*
X76372Y209005D01*
X76357Y208989D01*
X76348Y208977D01*
X76344Y208973D01*
X76285Y208917D01*
X76223Y208871D01*
X76157Y208830D01*
X76092Y208792D01*
X76023Y208764D01*
X75958Y208736D01*
X75892Y208718D01*
X75827Y208702D01*
X75767Y208686D01*
X75714Y208677D01*
X75664Y208671D01*
X75621Y208668D01*
X75586Y208664D01*
X75558Y208661D01*
X75536D01*
X75461Y208664D01*
X75393Y208671D01*
X75327Y208680D01*
X75262Y208693D01*
X75206Y208705D01*
X75149Y208724D01*
X75099Y208739D01*
X75056Y208758D01*
X75015Y208777D01*
X74978Y208792D01*
X74947Y208811D01*
X74922Y208824D01*
X74900Y208836D01*
X74887Y208845D01*
X74878Y208852D01*
X74875Y208855D01*
X74828Y208892D01*
X74784Y208936D01*
X74744Y208980D01*
X74709Y209023D01*
X74675Y209070D01*
X74647Y209117D01*
X74622Y209164D01*
X74597Y209207D01*
X74578Y209248D01*
X74563Y209285D01*
X74547Y209320D01*
X74538Y209351D01*
X74529Y209376D01*
X74522Y209395D01*
X74519Y209407D01*
Y209410D01*
X74925Y209463D01*
X74944Y209417D01*
X74962Y209376D01*
X74981Y209335D01*
X75000Y209298D01*
X75040Y209236D01*
X75081Y209186D01*
X75115Y209145D01*
X75143Y209117D01*
X75162Y209101D01*
X75165Y209095D01*
X75168D01*
X75227Y209058D01*
X75290Y209030D01*
X75352Y209011D01*
X75408Y208998D01*
X75461Y208989D01*
X75480Y208986D01*
X75499D01*
X75515Y208983D01*
X75536D01*
X75589Y208986D01*
X75642Y208992D01*
X75689Y209001D01*
X75736Y209014D01*
X75780Y209030D01*
X75820Y209048D01*
X75855Y209064D01*
X75889Y209086D01*
X75920Y209104D01*
X75945Y209120D01*
X75970Y209139D01*
X75989Y209154D01*
X76004Y209167D01*
X76014Y209176D01*
X76020Y209183D01*
X76023Y209186D01*
X76057Y209226D01*
X76089Y209270D01*
X76113Y209317D01*
X76139Y209363D01*
X76157Y209410D01*
X76176Y209460D01*
X76204Y209554D01*
X76213Y209600D01*
X76220Y209641D01*
X76226Y209679D01*
X76232Y209710D01*
X76235Y209735D01*
X76238Y209756D01*
Y209769D01*
Y209772D01*
X74507D01*
Y209797D01*
X74504Y209816D01*
Y209835D01*
Y209850D01*
Y209859D01*
Y209869D01*
Y209875D01*
X74507Y209981D01*
X74516Y210078D01*
X74532Y210172D01*
X74550Y210256D01*
X74572Y210337D01*
X74597Y210409D01*
X74625Y210477D01*
X74650Y210537D01*
X74678Y210590D01*
X74706Y210636D01*
X74731Y210677D01*
X74753Y210708D01*
X74772Y210733D01*
X74787Y210752D01*
X74797Y210764D01*
X74800Y210767D01*
X74856Y210824D01*
X74915Y210874D01*
X74978Y210914D01*
X75043Y210951D01*
X75106Y210983D01*
X75168Y211008D01*
X75231Y211030D01*
X75290Y211045D01*
X75343Y211058D01*
X75396Y211070D01*
X75443Y211076D01*
X75480Y211079D01*
X75515Y211083D01*
X75536Y211086D01*
X75558D01*
X75646Y211083D01*
D02*
G37*
G36*
X68445D02*
X68529Y211073D01*
X68607Y211054D01*
X68682Y211036D01*
X68750Y211011D01*
X68816Y210983D01*
X68875Y210955D01*
X68928Y210923D01*
X68978Y210892D01*
X69019Y210864D01*
X69056Y210836D01*
X69084Y210811D01*
X69109Y210792D01*
X69125Y210777D01*
X69137Y210764D01*
X69140Y210761D01*
X69193Y210699D01*
X69240Y210630D01*
X69278Y210558D01*
X69312Y210484D01*
X69343Y210405D01*
X69368Y210331D01*
X69387Y210256D01*
X69402Y210187D01*
X69415Y210119D01*
X69424Y210056D01*
X69431Y210000D01*
X69434Y209950D01*
X69437Y209909D01*
X69440Y209878D01*
Y209859D01*
Y209856D01*
Y209853D01*
X69437Y209750D01*
X69427Y209654D01*
X69412Y209560D01*
X69393Y209476D01*
X69371Y209398D01*
X69346Y209326D01*
X69318Y209261D01*
X69290Y209201D01*
X69265Y209148D01*
X69237Y209101D01*
X69212Y209064D01*
X69190Y209033D01*
X69172Y209005D01*
X69156Y208989D01*
X69147Y208977D01*
X69143Y208973D01*
X69084Y208917D01*
X69022Y208871D01*
X68956Y208830D01*
X68891Y208792D01*
X68822Y208764D01*
X68757Y208736D01*
X68691Y208718D01*
X68625Y208702D01*
X68566Y208686D01*
X68513Y208677D01*
X68463Y208671D01*
X68420Y208668D01*
X68385Y208664D01*
X68357Y208661D01*
X68335D01*
X68261Y208664D01*
X68192Y208671D01*
X68126Y208680D01*
X68061Y208693D01*
X68005Y208705D01*
X67949Y208724D01*
X67899Y208739D01*
X67855Y208758D01*
X67814Y208777D01*
X67777Y208792D01*
X67746Y208811D01*
X67721Y208824D01*
X67699Y208836D01*
X67686Y208845D01*
X67677Y208852D01*
X67674Y208855D01*
X67627Y208892D01*
X67583Y208936D01*
X67543Y208980D01*
X67509Y209023D01*
X67474Y209070D01*
X67446Y209117D01*
X67421Y209164D01*
X67396Y209207D01*
X67378Y209248D01*
X67362Y209285D01*
X67346Y209320D01*
X67337Y209351D01*
X67328Y209376D01*
X67321Y209395D01*
X67318Y209407D01*
Y209410D01*
X67724Y209463D01*
X67743Y209417D01*
X67761Y209376D01*
X67780Y209335D01*
X67799Y209298D01*
X67839Y209236D01*
X67880Y209186D01*
X67914Y209145D01*
X67942Y209117D01*
X67961Y209101D01*
X67964Y209095D01*
X67967D01*
X68027Y209058D01*
X68089Y209030D01*
X68151Y209011D01*
X68207Y208998D01*
X68261Y208989D01*
X68279Y208986D01*
X68298D01*
X68313Y208983D01*
X68335D01*
X68388Y208986D01*
X68441Y208992D01*
X68488Y209001D01*
X68535Y209014D01*
X68579Y209030D01*
X68619Y209048D01*
X68654Y209064D01*
X68688Y209086D01*
X68719Y209104D01*
X68744Y209120D01*
X68769Y209139D01*
X68788Y209154D01*
X68803Y209167D01*
X68813Y209176D01*
X68819Y209183D01*
X68822Y209186D01*
X68856Y209226D01*
X68888Y209270D01*
X68913Y209317D01*
X68937Y209363D01*
X68956Y209410D01*
X68975Y209460D01*
X69003Y209554D01*
X69012Y209600D01*
X69019Y209641D01*
X69025Y209679D01*
X69031Y209710D01*
X69034Y209735D01*
X69037Y209756D01*
Y209769D01*
Y209772D01*
X67306D01*
Y209797D01*
X67303Y209816D01*
Y209835D01*
Y209850D01*
Y209859D01*
Y209869D01*
Y209875D01*
X67306Y209981D01*
X67315Y210078D01*
X67331Y210172D01*
X67349Y210256D01*
X67371Y210337D01*
X67396Y210409D01*
X67424Y210477D01*
X67449Y210537D01*
X67477Y210590D01*
X67505Y210636D01*
X67530Y210677D01*
X67552Y210708D01*
X67571Y210733D01*
X67587Y210752D01*
X67596Y210764D01*
X67599Y210767D01*
X67655Y210824D01*
X67715Y210874D01*
X67777Y210914D01*
X67842Y210951D01*
X67905Y210983D01*
X67967Y211008D01*
X68030Y211030D01*
X68089Y211045D01*
X68142Y211058D01*
X68195Y211070D01*
X68242Y211076D01*
X68279Y211079D01*
X68313Y211083D01*
X68335Y211086D01*
X68357D01*
X68445Y211083D01*
D02*
G37*
G36*
X54785D02*
X54869Y211073D01*
X54947Y211054D01*
X55022Y211036D01*
X55091Y211011D01*
X55156Y210983D01*
X55216Y210955D01*
X55269Y210923D01*
X55319Y210892D01*
X55359Y210864D01*
X55397Y210836D01*
X55425Y210811D01*
X55450Y210792D01*
X55465Y210777D01*
X55478Y210764D01*
X55481Y210761D01*
X55534Y210699D01*
X55581Y210630D01*
X55618Y210558D01*
X55653Y210484D01*
X55684Y210405D01*
X55709Y210331D01*
X55727Y210256D01*
X55743Y210187D01*
X55756Y210119D01*
X55765Y210056D01*
X55771Y210000D01*
X55774Y209950D01*
X55777Y209909D01*
X55781Y209878D01*
Y209859D01*
Y209856D01*
Y209853D01*
X55777Y209750D01*
X55768Y209654D01*
X55752Y209560D01*
X55734Y209476D01*
X55712Y209398D01*
X55687Y209326D01*
X55659Y209261D01*
X55631Y209201D01*
X55606Y209148D01*
X55578Y209101D01*
X55553Y209064D01*
X55531Y209033D01*
X55512Y209005D01*
X55497Y208989D01*
X55487Y208977D01*
X55484Y208973D01*
X55425Y208917D01*
X55362Y208871D01*
X55297Y208830D01*
X55231Y208792D01*
X55163Y208764D01*
X55097Y208736D01*
X55032Y208718D01*
X54966Y208702D01*
X54907Y208686D01*
X54854Y208677D01*
X54804Y208671D01*
X54760Y208668D01*
X54726Y208664D01*
X54698Y208661D01*
X54676D01*
X54601Y208664D01*
X54532Y208671D01*
X54467Y208680D01*
X54401Y208693D01*
X54345Y208705D01*
X54289Y208724D01*
X54239Y208739D01*
X54195Y208758D01*
X54155Y208777D01*
X54118Y208792D01*
X54086Y208811D01*
X54061Y208824D01*
X54040Y208836D01*
X54027Y208845D01*
X54018Y208852D01*
X54015Y208855D01*
X53968Y208892D01*
X53924Y208936D01*
X53883Y208980D01*
X53849Y209023D01*
X53815Y209070D01*
X53787Y209117D01*
X53762Y209164D01*
X53737Y209207D01*
X53718Y209248D01*
X53703Y209285D01*
X53687Y209320D01*
X53678Y209351D01*
X53668Y209376D01*
X53662Y209395D01*
X53659Y209407D01*
Y209410D01*
X54065Y209463D01*
X54083Y209417D01*
X54102Y209376D01*
X54121Y209335D01*
X54139Y209298D01*
X54180Y209236D01*
X54220Y209186D01*
X54255Y209145D01*
X54283Y209117D01*
X54302Y209101D01*
X54305Y209095D01*
X54308D01*
X54367Y209058D01*
X54430Y209030D01*
X54492Y209011D01*
X54548Y208998D01*
X54601Y208989D01*
X54620Y208986D01*
X54639D01*
X54654Y208983D01*
X54676D01*
X54729Y208986D01*
X54782Y208992D01*
X54829Y209001D01*
X54876Y209014D01*
X54919Y209030D01*
X54960Y209048D01*
X54994Y209064D01*
X55029Y209086D01*
X55060Y209104D01*
X55085Y209120D01*
X55110Y209139D01*
X55128Y209154D01*
X55144Y209167D01*
X55153Y209176D01*
X55160Y209183D01*
X55163Y209186D01*
X55197Y209226D01*
X55228Y209270D01*
X55253Y209317D01*
X55278Y209363D01*
X55297Y209410D01*
X55316Y209460D01*
X55344Y209554D01*
X55353Y209600D01*
X55359Y209641D01*
X55366Y209679D01*
X55372Y209710D01*
X55375Y209735D01*
X55378Y209756D01*
Y209769D01*
Y209772D01*
X53646D01*
Y209797D01*
X53643Y209816D01*
Y209835D01*
Y209850D01*
Y209859D01*
Y209869D01*
Y209875D01*
X53646Y209981D01*
X53656Y210078D01*
X53671Y210172D01*
X53690Y210256D01*
X53712Y210337D01*
X53737Y210409D01*
X53765Y210477D01*
X53790Y210537D01*
X53818Y210590D01*
X53846Y210636D01*
X53871Y210677D01*
X53893Y210708D01*
X53912Y210733D01*
X53927Y210752D01*
X53937Y210764D01*
X53940Y210767D01*
X53996Y210824D01*
X54055Y210874D01*
X54118Y210914D01*
X54183Y210951D01*
X54245Y210983D01*
X54308Y211008D01*
X54370Y211030D01*
X54430Y211045D01*
X54483Y211058D01*
X54536Y211070D01*
X54582Y211076D01*
X54620Y211079D01*
X54654Y211083D01*
X54676Y211086D01*
X54698D01*
X54785Y211083D01*
D02*
G37*
G36*
X82185Y208715D02*
X80188D01*
Y209092D01*
X81761D01*
Y211912D01*
X82185D01*
Y208715D01*
D02*
G37*
G36*
X79733D02*
X79340D01*
Y211033D01*
X79733D01*
Y208715D01*
D02*
G37*
G36*
X73025Y211083D02*
X73109Y211070D01*
X73184Y211051D01*
X73256Y211026D01*
X73321Y210998D01*
X73383Y210964D01*
X73437Y210930D01*
X73487Y210895D01*
X73530Y210858D01*
X73568Y210824D01*
X73599Y210792D01*
X73627Y210761D01*
X73646Y210736D01*
X73661Y210718D01*
X73671Y210705D01*
X73674Y210702D01*
Y211033D01*
X74026D01*
Y208715D01*
X73633D01*
Y209981D01*
X73630Y210062D01*
X73624Y210134D01*
X73618Y210203D01*
X73605Y210262D01*
X73593Y210318D01*
X73577Y210368D01*
X73558Y210412D01*
X73543Y210449D01*
X73527Y210480D01*
X73508Y210508D01*
X73493Y210533D01*
X73480Y210552D01*
X73468Y210565D01*
X73458Y210577D01*
X73455Y210580D01*
X73452Y210583D01*
X73418Y210611D01*
X73380Y210636D01*
X73346Y210658D01*
X73309Y210677D01*
X73237Y210705D01*
X73168Y210727D01*
X73109Y210736D01*
X73084Y210739D01*
X73062Y210742D01*
X73047Y210746D01*
X73022D01*
X72965Y210742D01*
X72912Y210733D01*
X72866Y210724D01*
X72825Y210711D01*
X72791Y210696D01*
X72769Y210686D01*
X72753Y210677D01*
X72747Y210674D01*
X72707Y210646D01*
X72672Y210614D01*
X72644Y210583D01*
X72622Y210552D01*
X72607Y210524D01*
X72594Y210502D01*
X72588Y210490D01*
X72585Y210484D01*
X72569Y210434D01*
X72557Y210377D01*
X72550Y210318D01*
X72544Y210259D01*
X72541Y210206D01*
X72538Y210184D01*
Y210165D01*
Y210146D01*
Y210134D01*
Y210128D01*
Y210125D01*
Y208715D01*
X72145D01*
Y210137D01*
Y210187D01*
Y210234D01*
X72148Y210275D01*
Y210312D01*
X72151Y210349D01*
Y210381D01*
X72154Y210409D01*
Y210434D01*
X72157Y210452D01*
X72161Y210471D01*
X72164Y210499D01*
X72167Y210515D01*
Y210521D01*
X72182Y210583D01*
X72201Y210636D01*
X72223Y210686D01*
X72242Y210730D01*
X72260Y210764D01*
X72276Y210789D01*
X72288Y210805D01*
X72291Y210811D01*
X72329Y210855D01*
X72369Y210892D01*
X72413Y210927D01*
X72454Y210955D01*
X72494Y210977D01*
X72526Y210995D01*
X72538Y211001D01*
X72547Y211004D01*
X72550Y211008D01*
X72554D01*
X72619Y211033D01*
X72688Y211051D01*
X72750Y211067D01*
X72809Y211076D01*
X72862Y211083D01*
X72884D01*
X72903Y211086D01*
X72937D01*
X73025Y211083D01*
D02*
G37*
G36*
X59615D02*
X59699Y211070D01*
X59774Y211051D01*
X59846Y211026D01*
X59911Y210998D01*
X59974Y210964D01*
X60027Y210930D01*
X60077Y210895D01*
X60120Y210858D01*
X60158Y210824D01*
X60189Y210792D01*
X60217Y210761D01*
X60236Y210736D01*
X60251Y210718D01*
X60261Y210705D01*
X60264Y210702D01*
Y211033D01*
X60616D01*
Y208715D01*
X60223D01*
Y209981D01*
X60220Y210062D01*
X60214Y210134D01*
X60208Y210203D01*
X60195Y210262D01*
X60183Y210318D01*
X60167Y210368D01*
X60149Y210412D01*
X60133Y210449D01*
X60117Y210480D01*
X60099Y210508D01*
X60083Y210533D01*
X60071Y210552D01*
X60058Y210565D01*
X60049Y210577D01*
X60045Y210580D01*
X60042Y210583D01*
X60008Y210611D01*
X59971Y210636D01*
X59936Y210658D01*
X59899Y210677D01*
X59827Y210705D01*
X59759Y210727D01*
X59699Y210736D01*
X59674Y210739D01*
X59652Y210742D01*
X59637Y210746D01*
X59612D01*
X59556Y210742D01*
X59503Y210733D01*
X59456Y210724D01*
X59415Y210711D01*
X59381Y210696D01*
X59359Y210686D01*
X59343Y210677D01*
X59337Y210674D01*
X59297Y210646D01*
X59262Y210614D01*
X59234Y210583D01*
X59212Y210552D01*
X59197Y210524D01*
X59184Y210502D01*
X59178Y210490D01*
X59175Y210484D01*
X59159Y210434D01*
X59147Y210377D01*
X59141Y210318D01*
X59135Y210259D01*
X59131Y210206D01*
X59128Y210184D01*
Y210165D01*
Y210146D01*
Y210134D01*
Y210128D01*
Y210125D01*
Y208715D01*
X58735D01*
Y210137D01*
Y210187D01*
Y210234D01*
X58738Y210275D01*
Y210312D01*
X58741Y210349D01*
Y210381D01*
X58745Y210409D01*
Y210434D01*
X58748Y210452D01*
X58751Y210471D01*
X58754Y210499D01*
X58757Y210515D01*
Y210521D01*
X58773Y210583D01*
X58791Y210636D01*
X58813Y210686D01*
X58832Y210730D01*
X58851Y210764D01*
X58866Y210789D01*
X58879Y210805D01*
X58882Y210811D01*
X58919Y210855D01*
X58960Y210892D01*
X59003Y210927D01*
X59044Y210955D01*
X59085Y210977D01*
X59116Y210995D01*
X59128Y211001D01*
X59138Y211004D01*
X59141Y211008D01*
X59144D01*
X59209Y211033D01*
X59278Y211051D01*
X59340Y211067D01*
X59400Y211076D01*
X59453Y211083D01*
X59475D01*
X59493Y211086D01*
X59528D01*
X59615Y211083D01*
D02*
G37*
G36*
X52364Y211083D02*
X52411Y211073D01*
X52455Y211061D01*
X52492Y211045D01*
X52523Y211030D01*
X52545Y211017D01*
X52561Y211008D01*
X52567Y211004D01*
X52589Y210989D01*
X52611Y210967D01*
X52654Y210920D01*
X52698Y210867D01*
X52735Y210814D01*
X52767Y210761D01*
X52782Y210739D01*
X52795Y210721D01*
X52804Y210702D01*
X52810Y210689D01*
X52813Y210683D01*
X52816Y210680D01*
Y211033D01*
X53169D01*
Y208714D01*
X52776D01*
Y209928D01*
X52773Y210019D01*
X52767Y210106D01*
X52757Y210184D01*
X52745Y210253D01*
X52738Y210281D01*
X52732Y210309D01*
X52729Y210331D01*
X52723Y210349D01*
X52720Y210365D01*
X52717Y210377D01*
X52714Y210384D01*
Y210387D01*
X52695Y210437D01*
X52673Y210477D01*
X52648Y210515D01*
X52623Y210546D01*
X52601Y210571D01*
X52583Y210587D01*
X52570Y210599D01*
X52567Y210602D01*
X52526Y210627D01*
X52486Y210646D01*
X52448Y210661D01*
X52414Y210671D01*
X52383Y210677D01*
X52358Y210680D01*
X52336D01*
X52283Y210677D01*
X52230Y210668D01*
X52183Y210652D01*
X52139Y210636D01*
X52102Y210621D01*
X52074Y210605D01*
X52055Y210596D01*
X52049Y210593D01*
X51909Y210958D01*
X51987Y211001D01*
X52058Y211033D01*
X52127Y211054D01*
X52189Y211070D01*
X52239Y211079D01*
X52261Y211083D01*
X52280D01*
X52295Y211086D01*
X52314D01*
X52364Y211083D01*
D02*
G37*
G36*
X47151Y208714D02*
X44764D01*
Y209092D01*
X46726D01*
Y210181D01*
X44957D01*
Y210558D01*
X46726D01*
Y211535D01*
X44839D01*
Y211912D01*
X47151D01*
Y208714D01*
D02*
G37*
G36*
X44171D02*
X43747D01*
Y210134D01*
X43201D01*
X43151Y210131D01*
X43110Y210128D01*
X43079D01*
X43054Y210125D01*
X43035Y210122D01*
X43026Y210118D01*
X43023D01*
X42985Y210109D01*
X42951Y210093D01*
X42920Y210081D01*
X42892Y210065D01*
X42867Y210053D01*
X42848Y210040D01*
X42836Y210034D01*
X42832Y210031D01*
X42795Y210006D01*
X42758Y209972D01*
X42723Y209938D01*
X42689Y209903D01*
X42661Y209872D01*
X42636Y209844D01*
X42623Y209825D01*
X42617Y209822D01*
Y209819D01*
X42592Y209788D01*
X42570Y209756D01*
X42517Y209685D01*
X42467Y209613D01*
X42417Y209541D01*
X42377Y209479D01*
X42358Y209451D01*
X42343Y209426D01*
X42330Y209407D01*
X42321Y209391D01*
X42315Y209382D01*
X42311Y209379D01*
X41887Y208714D01*
X41360D01*
X41912Y209582D01*
X41974Y209672D01*
X42037Y209756D01*
X42096Y209828D01*
X42149Y209891D01*
X42174Y209919D01*
X42196Y209941D01*
X42215Y209962D01*
X42230Y209978D01*
X42243Y209991D01*
X42252Y210003D01*
X42258Y210006D01*
X42261Y210009D01*
X42299Y210037D01*
X42340Y210068D01*
X42380Y210093D01*
X42421Y210118D01*
X42458Y210137D01*
X42489Y210156D01*
X42502Y210159D01*
X42511Y210165D01*
X42514Y210168D01*
X42517D01*
X42433Y210181D01*
X42355Y210200D01*
X42283Y210218D01*
X42218Y210240D01*
X42155Y210265D01*
X42099Y210290D01*
X42049Y210315D01*
X42006Y210340D01*
X41965Y210365D01*
X41931Y210387D01*
X41903Y210409D01*
X41878Y210427D01*
X41859Y210443D01*
X41847Y210455D01*
X41840Y210462D01*
X41837Y210465D01*
X41797Y210508D01*
X41765Y210555D01*
X41734Y210605D01*
X41709Y210652D01*
X41687Y210702D01*
X41669Y210749D01*
X41656Y210795D01*
X41644Y210839D01*
X41634Y210880D01*
X41628Y210920D01*
X41622Y210951D01*
X41619Y210983D01*
X41616Y211004D01*
Y211023D01*
Y211036D01*
Y211039D01*
Y211089D01*
X41622Y211136D01*
X41638Y211226D01*
X41659Y211307D01*
X41681Y211379D01*
X41694Y211410D01*
X41706Y211435D01*
X41719Y211460D01*
X41728Y211482D01*
X41737Y211497D01*
X41744Y211510D01*
X41747Y211516D01*
X41750Y211519D01*
X41803Y211594D01*
X41862Y211660D01*
X41921Y211713D01*
X41978Y211753D01*
X42028Y211785D01*
X42049Y211797D01*
X42068Y211809D01*
X42084Y211816D01*
X42096Y211822D01*
X42102Y211825D01*
X42105D01*
X42149Y211841D01*
X42196Y211853D01*
X42299Y211875D01*
X42408Y211891D01*
X42514Y211903D01*
X42561Y211906D01*
X42608Y211909D01*
X42648D01*
X42683Y211912D01*
X44171D01*
Y208714D01*
D02*
G37*
G36*
X29554D02*
X27557D01*
Y209092D01*
X29129D01*
Y211912D01*
X29554D01*
Y208714D01*
D02*
G37*
G36*
X25566D02*
X25142D01*
Y210016D01*
X24321D01*
X24200Y210019D01*
X24088Y210028D01*
X23985Y210040D01*
X23891Y210059D01*
X23804Y210081D01*
X23729Y210106D01*
X23660Y210131D01*
X23601Y210156D01*
X23548Y210181D01*
X23504Y210209D01*
X23467Y210231D01*
X23435Y210253D01*
X23414Y210271D01*
X23398Y210284D01*
X23389Y210293D01*
X23385Y210296D01*
X23339Y210352D01*
X23298Y210409D01*
X23264Y210465D01*
X23233Y210524D01*
X23208Y210583D01*
X23186Y210640D01*
X23170Y210696D01*
X23155Y210749D01*
X23145Y210799D01*
X23136Y210842D01*
X23133Y210883D01*
X23127Y210917D01*
Y210945D01*
X23123Y210967D01*
Y210983D01*
Y210986D01*
X23127Y211073D01*
X23139Y211154D01*
X23155Y211229D01*
X23173Y211295D01*
X23183Y211323D01*
X23192Y211348D01*
X23201Y211370D01*
X23208Y211388D01*
X23214Y211404D01*
X23220Y211413D01*
X23223Y211420D01*
Y211423D01*
X23261Y211494D01*
X23304Y211557D01*
X23348Y211607D01*
X23389Y211653D01*
X23423Y211688D01*
X23454Y211713D01*
X23473Y211725D01*
X23476Y211732D01*
X23479D01*
X23541Y211769D01*
X23607Y211800D01*
X23676Y211828D01*
X23738Y211847D01*
X23791Y211862D01*
X23816Y211869D01*
X23835Y211872D01*
X23854Y211878D01*
X23866D01*
X23872Y211881D01*
X23875D01*
X23907Y211888D01*
X23944Y211891D01*
X24022Y211900D01*
X24103Y211906D01*
X24181Y211909D01*
X24219D01*
X24253Y211912D01*
X25566D01*
Y208714D01*
D02*
G37*
G36*
X70847Y211083D02*
X70909Y211079D01*
X70969Y211070D01*
X71019Y211061D01*
X71062Y211051D01*
X71093Y211045D01*
X71106Y211042D01*
X71115Y211039D01*
X71118Y211036D01*
X71122D01*
X71178Y211017D01*
X71228Y210998D01*
X71268Y210980D01*
X71306Y210961D01*
X71334Y210945D01*
X71352Y210936D01*
X71368Y210927D01*
X71371Y210923D01*
X71415Y210889D01*
X71452Y210852D01*
X71487Y210814D01*
X71515Y210780D01*
X71536Y210749D01*
X71552Y210724D01*
X71561Y210708D01*
X71565Y210705D01*
Y210702D01*
X71586Y210652D01*
X71605Y210602D01*
X71618Y210552D01*
X71624Y210508D01*
X71630Y210471D01*
X71633Y210443D01*
Y210431D01*
Y210421D01*
Y210418D01*
Y210415D01*
X71630Y210352D01*
X71621Y210296D01*
X71605Y210243D01*
X71589Y210196D01*
X71577Y210159D01*
X71561Y210131D01*
X71552Y210112D01*
X71549Y210109D01*
Y210106D01*
X71512Y210056D01*
X71471Y210012D01*
X71430Y209975D01*
X71390Y209944D01*
X71352Y209919D01*
X71324Y209900D01*
X71312Y209894D01*
X71302Y209888D01*
X71299Y209885D01*
X71296D01*
X71262Y209869D01*
X71221Y209853D01*
X71178Y209838D01*
X71131Y209822D01*
X71031Y209791D01*
X70934Y209763D01*
X70888Y209747D01*
X70841Y209735D01*
X70803Y209725D01*
X70766Y209716D01*
X70738Y209707D01*
X70716Y209703D01*
X70703Y209697D01*
X70697D01*
X70641Y209682D01*
X70588Y209669D01*
X70541Y209654D01*
X70498Y209641D01*
X70460Y209632D01*
X70429Y209619D01*
X70401Y209610D01*
X70376Y209600D01*
X70354Y209591D01*
X70338Y209585D01*
X70323Y209579D01*
X70313Y209573D01*
X70298Y209566D01*
X70295Y209563D01*
X70254Y209532D01*
X70226Y209498D01*
X70204Y209463D01*
X70192Y209429D01*
X70182Y209398D01*
X70179Y209373D01*
X70176Y209357D01*
Y209354D01*
Y209351D01*
Y209323D01*
X70182Y209298D01*
X70198Y209248D01*
X70220Y209204D01*
X70242Y209167D01*
X70267Y209136D01*
X70288Y209111D01*
X70304Y209098D01*
X70307Y209092D01*
X70310D01*
X70335Y209073D01*
X70367Y209054D01*
X70429Y209030D01*
X70494Y209011D01*
X70560Y208995D01*
X70619Y208989D01*
X70647Y208986D01*
X70669D01*
X70688Y208983D01*
X70713D01*
X70806Y208989D01*
X70891Y209001D01*
X70962Y209020D01*
X70994Y209033D01*
X71022Y209045D01*
X71047Y209054D01*
X71069Y209067D01*
X71087Y209076D01*
X71103Y209086D01*
X71115Y209092D01*
X71125Y209098D01*
X71128Y209104D01*
X71131D01*
X71181Y209157D01*
X71221Y209214D01*
X71253Y209273D01*
X71277Y209332D01*
X71293Y209385D01*
X71299Y209407D01*
X71306Y209429D01*
X71309Y209444D01*
Y209457D01*
X71312Y209463D01*
Y209466D01*
X71699Y209404D01*
X71686Y209338D01*
X71667Y209276D01*
X71649Y209217D01*
X71627Y209161D01*
X71602Y209111D01*
X71577Y209067D01*
X71552Y209027D01*
X71524Y208989D01*
X71502Y208955D01*
X71477Y208927D01*
X71455Y208905D01*
X71437Y208883D01*
X71421Y208867D01*
X71409Y208858D01*
X71402Y208852D01*
X71399Y208849D01*
X71352Y208814D01*
X71302Y208786D01*
X71246Y208761D01*
X71190Y208739D01*
X71134Y208724D01*
X71078Y208708D01*
X70965Y208686D01*
X70912Y208677D01*
X70866Y208671D01*
X70822Y208668D01*
X70785Y208664D01*
X70753Y208661D01*
X70710D01*
X70610Y208664D01*
X70516Y208677D01*
X70435Y208693D01*
X70398Y208699D01*
X70360Y208708D01*
X70329Y208718D01*
X70301Y208727D01*
X70279Y208733D01*
X70257Y208739D01*
X70242Y208746D01*
X70229Y208752D01*
X70223Y208755D01*
X70220D01*
X70145Y208792D01*
X70076Y208836D01*
X70020Y208880D01*
X69973Y208924D01*
X69936Y208964D01*
X69911Y208995D01*
X69902Y209008D01*
X69895Y209017D01*
X69889Y209020D01*
Y209023D01*
X69852Y209089D01*
X69824Y209154D01*
X69802Y209217D01*
X69789Y209276D01*
X69780Y209323D01*
X69777Y209345D01*
Y209360D01*
X69774Y209376D01*
Y209385D01*
Y209391D01*
Y209395D01*
X69777Y209466D01*
X69789Y209532D01*
X69805Y209588D01*
X69820Y209638D01*
X69839Y209675D01*
X69855Y209703D01*
X69867Y209722D01*
X69870Y209729D01*
X69908Y209778D01*
X69951Y209819D01*
X69992Y209853D01*
X70036Y209885D01*
X70073Y209906D01*
X70101Y209922D01*
X70114Y209928D01*
X70123Y209931D01*
X70126Y209934D01*
X70129D01*
X70164Y209947D01*
X70201Y209963D01*
X70242Y209978D01*
X70288Y209994D01*
X70385Y210025D01*
X70479Y210053D01*
X70526Y210065D01*
X70569Y210078D01*
X70607Y210090D01*
X70641Y210100D01*
X70669Y210109D01*
X70691Y210112D01*
X70703Y210119D01*
X70710D01*
X70760Y210134D01*
X70806Y210146D01*
X70847Y210156D01*
X70884Y210168D01*
X70916Y210178D01*
X70947Y210184D01*
X70969Y210190D01*
X70991Y210196D01*
X71009Y210203D01*
X71022Y210206D01*
X71043Y210215D01*
X71053Y210218D01*
X71056D01*
X71093Y210237D01*
X71122Y210253D01*
X71150Y210271D01*
X71168Y210287D01*
X71184Y210302D01*
X71196Y210315D01*
X71203Y210321D01*
X71206Y210324D01*
X71221Y210349D01*
X71234Y210371D01*
X71240Y210396D01*
X71246Y210418D01*
X71249Y210434D01*
X71253Y210449D01*
Y210458D01*
Y210462D01*
X71246Y210505D01*
X71234Y210546D01*
X71215Y210583D01*
X71193Y210614D01*
X71175Y210640D01*
X71156Y210658D01*
X71143Y210671D01*
X71137Y210674D01*
X71112Y210689D01*
X71087Y210705D01*
X71028Y210727D01*
X70965Y210742D01*
X70903Y210752D01*
X70844Y210761D01*
X70819D01*
X70797Y210764D01*
X70753D01*
X70672Y210761D01*
X70600Y210749D01*
X70538Y210733D01*
X70488Y210714D01*
X70451Y210693D01*
X70420Y210677D01*
X70404Y210665D01*
X70398Y210661D01*
X70354Y210621D01*
X70320Y210577D01*
X70295Y210530D01*
X70273Y210487D01*
X70260Y210446D01*
X70251Y210412D01*
X70248Y210402D01*
X70245Y210393D01*
Y210387D01*
Y210384D01*
X69861Y210437D01*
X69877Y210515D01*
X69898Y210587D01*
X69920Y210646D01*
X69942Y210699D01*
X69964Y210739D01*
X69983Y210767D01*
X69995Y210786D01*
X69998Y210792D01*
X70039Y210839D01*
X70086Y210883D01*
X70139Y210917D01*
X70189Y210948D01*
X70232Y210973D01*
X70270Y210989D01*
X70285Y210995D01*
X70295Y211001D01*
X70301Y211004D01*
X70304D01*
X70382Y211033D01*
X70466Y211051D01*
X70544Y211067D01*
X70619Y211076D01*
X70653Y211079D01*
X70685Y211083D01*
X70713D01*
X70735Y211086D01*
X70781D01*
X70847Y211083D01*
D02*
G37*
G36*
X65353Y210767D02*
X65393Y210817D01*
X65437Y210861D01*
X65484Y210902D01*
X65524Y210933D01*
X65562Y210961D01*
X65593Y210980D01*
X65605Y210986D01*
X65615Y210992D01*
X65618Y210995D01*
X65621D01*
X65683Y211026D01*
X65746Y211048D01*
X65808Y211064D01*
X65867Y211073D01*
X65917Y211083D01*
X65939D01*
X65958Y211086D01*
X65992D01*
X66045Y211083D01*
X66095Y211079D01*
X66192Y211061D01*
X66279Y211039D01*
X66320Y211023D01*
X66357Y211011D01*
X66388Y210995D01*
X66420Y210983D01*
X66445Y210967D01*
X66466Y210958D01*
X66485Y210948D01*
X66498Y210939D01*
X66504Y210936D01*
X66507Y210933D01*
X66548Y210905D01*
X66588Y210870D01*
X66660Y210802D01*
X66719Y210730D01*
X66766Y210661D01*
X66803Y210596D01*
X66819Y210571D01*
X66831Y210546D01*
X66841Y210527D01*
X66847Y210512D01*
X66853Y210502D01*
Y210499D01*
X66891Y210393D01*
X66919Y210284D01*
X66941Y210178D01*
X66947Y210125D01*
X66953Y210078D01*
X66959Y210034D01*
X66963Y209994D01*
X66966Y209959D01*
Y209928D01*
X66969Y209903D01*
Y209885D01*
Y209872D01*
Y209869D01*
X66963Y209741D01*
X66950Y209619D01*
X66941Y209566D01*
X66928Y209513D01*
X66919Y209466D01*
X66906Y209420D01*
X66894Y209379D01*
X66885Y209345D01*
X66872Y209314D01*
X66863Y209289D01*
X66856Y209267D01*
X66850Y209251D01*
X66844Y209242D01*
Y209239D01*
X66791Y209142D01*
X66735Y209058D01*
X66676Y208986D01*
X66644Y208955D01*
X66616Y208924D01*
X66591Y208898D01*
X66566Y208877D01*
X66541Y208858D01*
X66523Y208842D01*
X66507Y208830D01*
X66495Y208821D01*
X66488Y208817D01*
X66485Y208814D01*
X66442Y208786D01*
X66395Y208764D01*
X66351Y208742D01*
X66307Y208727D01*
X66220Y208699D01*
X66142Y208680D01*
X66105Y208674D01*
X66073Y208671D01*
X66045Y208668D01*
X66020Y208664D01*
X66002Y208661D01*
X65974D01*
X65895Y208664D01*
X65824Y208677D01*
X65755Y208693D01*
X65693Y208715D01*
X65633Y208739D01*
X65580Y208771D01*
X65531Y208799D01*
X65490Y208833D01*
X65449Y208864D01*
X65418Y208895D01*
X65390Y208924D01*
X65365Y208948D01*
X65346Y208970D01*
X65334Y208986D01*
X65328Y208998D01*
X65325Y209001D01*
Y208715D01*
X64960D01*
Y211912D01*
X65353D01*
Y210767D01*
D02*
G37*
G36*
X56660D02*
X56701Y210817D01*
X56745Y210861D01*
X56791Y210902D01*
X56832Y210933D01*
X56869Y210961D01*
X56901Y210980D01*
X56913Y210986D01*
X56922Y210992D01*
X56925Y210995D01*
X56929D01*
X56991Y211026D01*
X57053Y211048D01*
X57116Y211064D01*
X57175Y211073D01*
X57225Y211083D01*
X57247D01*
X57266Y211086D01*
X57300D01*
X57353Y211083D01*
X57403Y211079D01*
X57500Y211061D01*
X57587Y211039D01*
X57627Y211023D01*
X57665Y211011D01*
X57696Y210995D01*
X57727Y210983D01*
X57752Y210967D01*
X57774Y210958D01*
X57793Y210948D01*
X57805Y210939D01*
X57812Y210936D01*
X57815Y210933D01*
X57855Y210905D01*
X57896Y210870D01*
X57968Y210802D01*
X58027Y210730D01*
X58074Y210661D01*
X58111Y210596D01*
X58127Y210571D01*
X58139Y210546D01*
X58149Y210527D01*
X58155Y210512D01*
X58161Y210502D01*
Y210499D01*
X58198Y210393D01*
X58227Y210284D01*
X58248Y210178D01*
X58255Y210125D01*
X58261Y210078D01*
X58267Y210034D01*
X58270Y209994D01*
X58273Y209959D01*
Y209928D01*
X58276Y209903D01*
Y209885D01*
Y209872D01*
Y209869D01*
X58270Y209741D01*
X58258Y209619D01*
X58248Y209566D01*
X58236Y209513D01*
X58227Y209466D01*
X58214Y209420D01*
X58202Y209379D01*
X58192Y209345D01*
X58180Y209314D01*
X58170Y209289D01*
X58164Y209267D01*
X58158Y209251D01*
X58152Y209242D01*
Y209239D01*
X58099Y209142D01*
X58043Y209058D01*
X57983Y208986D01*
X57952Y208955D01*
X57924Y208924D01*
X57899Y208898D01*
X57874Y208877D01*
X57849Y208858D01*
X57830Y208842D01*
X57815Y208830D01*
X57802Y208821D01*
X57796Y208817D01*
X57793Y208814D01*
X57749Y208786D01*
X57702Y208764D01*
X57659Y208742D01*
X57615Y208727D01*
X57528Y208699D01*
X57450Y208680D01*
X57412Y208674D01*
X57381Y208671D01*
X57353Y208668D01*
X57328Y208664D01*
X57309Y208661D01*
X57281D01*
X57203Y208664D01*
X57131Y208677D01*
X57063Y208693D01*
X57000Y208715D01*
X56941Y208739D01*
X56888Y208771D01*
X56838Y208799D01*
X56798Y208833D01*
X56757Y208864D01*
X56726Y208895D01*
X56698Y208924D01*
X56673Y208948D01*
X56654Y208970D01*
X56642Y208986D01*
X56635Y208998D01*
X56632Y209001D01*
Y208715D01*
X56267D01*
Y211912D01*
X56660D01*
Y210767D01*
D02*
G37*
G36*
X34961Y211962D02*
X35076Y211950D01*
X35188Y211928D01*
X35295Y211897D01*
X35391Y211862D01*
X35482Y211825D01*
X35566Y211785D01*
X35641Y211744D01*
X35710Y211700D01*
X35769Y211660D01*
X35822Y211622D01*
X35862Y211588D01*
X35897Y211557D01*
X35922Y211535D01*
X35934Y211522D01*
X35940Y211516D01*
X36015Y211429D01*
X36081Y211335D01*
X36137Y211235D01*
X36187Y211133D01*
X36227Y211030D01*
X36265Y210927D01*
X36293Y210824D01*
X36315Y210727D01*
X36330Y210633D01*
X36346Y210546D01*
X36355Y210471D01*
X36362Y210402D01*
X36365Y210374D01*
Y210349D01*
Y210324D01*
X36368Y210306D01*
Y210290D01*
Y210281D01*
Y210274D01*
Y210271D01*
X36365Y210193D01*
X36358Y210115D01*
X36352Y210040D01*
X36340Y209969D01*
X36327Y209900D01*
X36312Y209835D01*
X36293Y209772D01*
X36277Y209713D01*
X36262Y209663D01*
X36243Y209613D01*
X36227Y209572D01*
X36215Y209538D01*
X36202Y209510D01*
X36193Y209488D01*
X36190Y209476D01*
X36187Y209473D01*
X36149Y209404D01*
X36112Y209338D01*
X36068Y209276D01*
X36025Y209220D01*
X35981Y209167D01*
X35934Y209117D01*
X35890Y209073D01*
X35847Y209033D01*
X35806Y208998D01*
X35769Y208967D01*
X35735Y208939D01*
X35706Y208917D01*
X35681Y208898D01*
X35663Y208886D01*
X35650Y208880D01*
X35647Y208877D01*
X35579Y208839D01*
X35510Y208805D01*
X35441Y208777D01*
X35369Y208752D01*
X35301Y208730D01*
X35235Y208714D01*
X35170Y208699D01*
X35111Y208689D01*
X35051Y208680D01*
X35001Y208674D01*
X34955Y208668D01*
X34914Y208664D01*
X34883Y208661D01*
X34839D01*
X34761Y208664D01*
X34686Y208671D01*
X34611Y208680D01*
X34543Y208693D01*
X34474Y208708D01*
X34409Y208724D01*
X34349Y208742D01*
X34293Y208761D01*
X34243Y208777D01*
X34196Y208796D01*
X34159Y208811D01*
X34125Y208827D01*
X34097Y208839D01*
X34078Y208849D01*
X34065Y208855D01*
X34062Y208858D01*
X33997Y208898D01*
X33934Y208939D01*
X33875Y208986D01*
X33822Y209033D01*
X33772Y209080D01*
X33725Y209129D01*
X33685Y209176D01*
X33647Y209223D01*
X33613Y209267D01*
X33585Y209307D01*
X33560Y209345D01*
X33541Y209376D01*
X33525Y209401D01*
X33513Y209423D01*
X33507Y209435D01*
X33504Y209438D01*
X33469Y209510D01*
X33438Y209585D01*
X33413Y209660D01*
X33391Y209738D01*
X33369Y209810D01*
X33354Y209881D01*
X33341Y209953D01*
X33332Y210019D01*
X33323Y210078D01*
X33316Y210134D01*
X33313Y210184D01*
X33310Y210228D01*
X33307Y210262D01*
Y210287D01*
Y210302D01*
Y210309D01*
X33310Y210396D01*
X33316Y210484D01*
X33326Y210565D01*
X33335Y210643D01*
X33351Y210718D01*
X33366Y210789D01*
X33382Y210855D01*
X33401Y210914D01*
X33419Y210970D01*
X33435Y211020D01*
X33451Y211061D01*
X33466Y211098D01*
X33476Y211126D01*
X33485Y211148D01*
X33491Y211160D01*
X33494Y211164D01*
X33532Y211232D01*
X33572Y211298D01*
X33613Y211360D01*
X33657Y211416D01*
X33703Y211469D01*
X33747Y211519D01*
X33794Y211563D01*
X33834Y211604D01*
X33878Y211638D01*
X33915Y211669D01*
X33950Y211697D01*
X33978Y211719D01*
X34003Y211735D01*
X34022Y211747D01*
X34034Y211753D01*
X34037Y211756D01*
X34106Y211794D01*
X34174Y211825D01*
X34243Y211856D01*
X34312Y211878D01*
X34380Y211900D01*
X34446Y211916D01*
X34508Y211931D01*
X34571Y211944D01*
X34627Y211950D01*
X34677Y211956D01*
X34724Y211962D01*
X34761Y211965D01*
X34792Y211969D01*
X34836D01*
X34961Y211962D01*
D02*
G37*
G36*
X122405Y211979D02*
X122435Y211934D01*
X122499Y211841D01*
X122566Y211754D01*
X122634Y211676D01*
X122668Y211642D01*
X122697Y211608D01*
X122728Y211582D01*
X122750Y211556D01*
X122769Y211537D01*
X122787Y211522D01*
X122795Y211514D01*
X122799Y211510D01*
X122915Y211417D01*
X123031Y211331D01*
X123147Y211252D01*
X123256Y211188D01*
X123305Y211158D01*
X123350Y211136D01*
X123388Y211113D01*
X123421Y211094D01*
X123451Y211079D01*
X123470Y211068D01*
X123485Y211064D01*
X123489Y211061D01*
Y210607D01*
X123406Y210641D01*
X123320Y210678D01*
X123238Y210719D01*
X123162Y210757D01*
X123095Y210790D01*
X123069Y210806D01*
X123043Y210821D01*
X123024Y210832D01*
X123009Y210839D01*
X123001Y210847D01*
X122997D01*
X122900Y210907D01*
X122810Y210967D01*
X122731Y211023D01*
X122668Y211072D01*
X122615Y211113D01*
X122578Y211147D01*
X122566Y211158D01*
X122555Y211165D01*
X122551Y211173D01*
X122547D01*
Y208169D01*
X122075D01*
Y212028D01*
X122382D01*
X122405Y211979D01*
D02*
G37*
G36*
X131221Y208169D02*
X130693D01*
X129189Y212013D01*
X129706D01*
X130749Y209219D01*
X130790Y209103D01*
X130831Y208987D01*
X130865Y208882D01*
X130895Y208788D01*
X130910Y208743D01*
X130921Y208705D01*
X130929Y208672D01*
X130940Y208642D01*
X130947Y208619D01*
X130951Y208604D01*
X130955Y208593D01*
Y208589D01*
X130989Y208702D01*
X131023Y208810D01*
X131056Y208915D01*
X131086Y209013D01*
X131101Y209058D01*
X131116Y209096D01*
X131128Y209133D01*
X131139Y209163D01*
X131146Y209186D01*
X131154Y209204D01*
X131158Y209215D01*
Y209219D01*
X132155Y212013D01*
X132706D01*
X131221Y208169D01*
D02*
G37*
G36*
X139764D02*
X139254D01*
Y209875D01*
X138598D01*
X138538Y209872D01*
X138489Y209868D01*
X138451D01*
X138421Y209864D01*
X138399Y209860D01*
X138388Y209857D01*
X138384D01*
X138339Y209845D01*
X138297Y209827D01*
X138260Y209812D01*
X138226Y209793D01*
X138196Y209778D01*
X138174Y209763D01*
X138159Y209755D01*
X138155Y209752D01*
X138110Y209722D01*
X138065Y209681D01*
X138024Y209639D01*
X137982Y209598D01*
X137949Y209560D01*
X137919Y209527D01*
X137904Y209504D01*
X137896Y209501D01*
Y209497D01*
X137866Y209459D01*
X137840Y209422D01*
X137776Y209335D01*
X137716Y209249D01*
X137656Y209163D01*
X137608Y209088D01*
X137585Y209054D01*
X137566Y209024D01*
X137551Y209002D01*
X137540Y208983D01*
X137532Y208972D01*
X137529Y208968D01*
X137019Y208169D01*
X136385D01*
X137049Y209212D01*
X137124Y209320D01*
X137199Y209422D01*
X137270Y209508D01*
X137334Y209583D01*
X137364Y209617D01*
X137390Y209643D01*
X137413Y209669D01*
X137431Y209688D01*
X137446Y209703D01*
X137458Y209718D01*
X137465Y209722D01*
X137469Y209725D01*
X137514Y209759D01*
X137563Y209797D01*
X137611Y209827D01*
X137660Y209857D01*
X137705Y209879D01*
X137742Y209902D01*
X137758Y209906D01*
X137769Y209913D01*
X137773Y209917D01*
X137776D01*
X137675Y209932D01*
X137581Y209954D01*
X137495Y209977D01*
X137416Y210003D01*
X137341Y210033D01*
X137274Y210063D01*
X137214Y210093D01*
X137161Y210123D01*
X137112Y210153D01*
X137071Y210179D01*
X137038Y210206D01*
X137007Y210228D01*
X136985Y210247D01*
X136970Y210262D01*
X136962Y210269D01*
X136959Y210273D01*
X136910Y210326D01*
X136872Y210382D01*
X136835Y210442D01*
X136805Y210498D01*
X136779Y210558D01*
X136756Y210614D01*
X136741Y210670D01*
X136726Y210723D01*
X136715Y210772D01*
X136707Y210821D01*
X136700Y210858D01*
X136696Y210895D01*
X136693Y210922D01*
Y210944D01*
Y210959D01*
Y210963D01*
Y211023D01*
X136700Y211079D01*
X136719Y211188D01*
X136745Y211285D01*
X136771Y211372D01*
X136786Y211409D01*
X136801Y211439D01*
X136816Y211469D01*
X136828Y211495D01*
X136839Y211514D01*
X136846Y211529D01*
X136850Y211537D01*
X136854Y211541D01*
X136917Y211631D01*
X136989Y211709D01*
X137060Y211773D01*
X137127Y211822D01*
X137188Y211859D01*
X137214Y211874D01*
X137236Y211889D01*
X137255Y211897D01*
X137270Y211904D01*
X137277Y211908D01*
X137281D01*
X137334Y211927D01*
X137390Y211942D01*
X137514Y211968D01*
X137645Y211987D01*
X137773Y212002D01*
X137829Y212005D01*
X137885Y212009D01*
X137934D01*
X137975Y212013D01*
X139764D01*
Y208169D01*
D02*
G37*
G36*
X135886D02*
X133018D01*
Y208623D01*
X135376D01*
Y209932D01*
X133250D01*
Y210385D01*
X135376D01*
Y211559D01*
X133107D01*
Y212013D01*
X135886D01*
Y208169D01*
D02*
G37*
G36*
X127659D02*
X127122D01*
X126702Y209332D01*
X125090D01*
X124644Y208169D01*
X124066D01*
X125637Y212013D01*
X126189D01*
X127659Y208169D01*
D02*
G37*
G36*
X1006Y-5939D02*
X1090Y-5951D01*
X1166Y-5967D01*
X1200Y-5976D01*
X1231Y-5987D01*
X1259Y-5996D01*
X1284Y-6004D01*
X1307Y-6012D01*
X1323Y-6021D01*
X1337Y-6029D01*
X1349Y-6032D01*
X1354Y-6038D01*
X1357D01*
X1424Y-6080D01*
X1481Y-6128D01*
X1529Y-6178D01*
X1568Y-6226D01*
X1599Y-6271D01*
X1610Y-6291D01*
X1618Y-6307D01*
X1627Y-6319D01*
X1632Y-6330D01*
X1635Y-6335D01*
Y-6338D01*
X1652Y-6378D01*
X1666Y-6420D01*
X1689Y-6510D01*
X1703Y-6602D01*
X1714Y-6692D01*
X1717Y-6735D01*
X1719Y-6774D01*
X1722Y-6808D01*
X1725Y-6838D01*
Y-6864D01*
Y-6881D01*
Y-6895D01*
Y-6898D01*
Y-8862D01*
X1343D01*
Y-6878D01*
Y-6833D01*
X1340Y-6791D01*
Y-6751D01*
X1337Y-6718D01*
X1335Y-6684D01*
X1329Y-6656D01*
X1326Y-6628D01*
X1323Y-6605D01*
X1318Y-6583D01*
X1315Y-6566D01*
X1312Y-6549D01*
X1307Y-6538D01*
X1304Y-6521D01*
X1301Y-6515D01*
X1284Y-6476D01*
X1261Y-6440D01*
X1239Y-6411D01*
X1214Y-6386D01*
X1191Y-6364D01*
X1174Y-6350D01*
X1163Y-6341D01*
X1158Y-6338D01*
X1118Y-6316D01*
X1076Y-6302D01*
X1034Y-6291D01*
X995Y-6282D01*
X961Y-6277D01*
X936Y-6274D01*
X910D01*
X874Y-6277D01*
X843Y-6279D01*
X781Y-6293D01*
X728Y-6313D01*
X685Y-6335D01*
X649Y-6355D01*
X624Y-6375D01*
X610Y-6389D01*
X604Y-6395D01*
X584Y-6420D01*
X567Y-6448D01*
X553Y-6482D01*
X539Y-6515D01*
X517Y-6591D01*
X503Y-6664D01*
X497Y-6701D01*
X492Y-6735D01*
X489Y-6765D01*
X486Y-6791D01*
Y-6813D01*
X483Y-6830D01*
Y-6841D01*
Y-6844D01*
X140Y-6796D01*
Y-6718D01*
X146Y-6645D01*
X154Y-6577D01*
X166Y-6515D01*
X180Y-6456D01*
X197Y-6403D01*
X213Y-6355D01*
X233Y-6313D01*
X250Y-6274D01*
X270Y-6240D01*
X286Y-6215D01*
X301Y-6189D01*
X312Y-6173D01*
X323Y-6161D01*
X329Y-6153D01*
X331Y-6150D01*
X371Y-6111D01*
X416Y-6080D01*
X461Y-6049D01*
X508Y-6026D01*
X556Y-6004D01*
X604Y-5987D01*
X652Y-5973D01*
X699Y-5962D01*
X742Y-5951D01*
X784Y-5945D01*
X820Y-5939D01*
X851Y-5937D01*
X876D01*
X896Y-5934D01*
X913D01*
X1006Y-5939D01*
D02*
G37*
G36*
X3226Y-5937D02*
X3299Y-5945D01*
X3369Y-5956D01*
X3434Y-5973D01*
X3495Y-5993D01*
X3552Y-6012D01*
X3605Y-6035D01*
X3653Y-6060D01*
X3692Y-6083D01*
X3731Y-6105D01*
X3762Y-6125D01*
X3788Y-6145D01*
X3807Y-6161D01*
X3824Y-6173D01*
X3833Y-6181D01*
X3836Y-6184D01*
X3880Y-6232D01*
X3923Y-6282D01*
X3956Y-6333D01*
X3987Y-6386D01*
X4013Y-6440D01*
X4032Y-6490D01*
X4049Y-6541D01*
X4063Y-6588D01*
X4074Y-6633D01*
X4083Y-6676D01*
X4088Y-6712D01*
X4094Y-6743D01*
Y-6768D01*
X4097Y-6788D01*
Y-6802D01*
Y-6805D01*
X4094Y-6855D01*
X4091Y-6900D01*
X4074Y-6990D01*
X4052Y-7066D01*
X4041Y-7103D01*
X4027Y-7134D01*
X4013Y-7162D01*
X4001Y-7190D01*
X3990Y-7209D01*
X3979Y-7229D01*
X3970Y-7243D01*
X3962Y-7254D01*
X3959Y-7260D01*
X3956Y-7263D01*
X3928Y-7297D01*
X3900Y-7330D01*
X3836Y-7386D01*
X3768Y-7434D01*
X3703Y-7474D01*
X3644Y-7504D01*
X3619Y-7516D01*
X3597Y-7524D01*
X3580Y-7533D01*
X3566Y-7538D01*
X3557Y-7541D01*
X3554D01*
X3630Y-7575D01*
X3695Y-7611D01*
X3748Y-7648D01*
X3793Y-7684D01*
X3827Y-7718D01*
X3852Y-7743D01*
X3866Y-7763D01*
X3872Y-7766D01*
Y-7769D01*
X3909Y-7828D01*
X3934Y-7887D01*
X3954Y-7946D01*
X3965Y-7999D01*
X3973Y-8047D01*
X3976Y-8069D01*
Y-8086D01*
X3979Y-8100D01*
Y-8111D01*
Y-8117D01*
Y-8120D01*
X3976Y-8179D01*
X3970Y-8232D01*
X3956Y-8286D01*
X3942Y-8336D01*
X3925Y-8384D01*
X3906Y-8426D01*
X3886Y-8468D01*
X3864Y-8505D01*
X3841Y-8539D01*
X3821Y-8567D01*
X3802Y-8595D01*
X3785Y-8614D01*
X3771Y-8631D01*
X3760Y-8643D01*
X3751Y-8651D01*
X3748Y-8654D01*
X3703Y-8693D01*
X3656Y-8727D01*
X3608Y-8755D01*
X3557Y-8780D01*
X3507Y-8803D01*
X3456Y-8820D01*
X3405Y-8834D01*
X3358Y-8845D01*
X3313Y-8853D01*
X3274Y-8862D01*
X3237Y-8867D01*
X3203Y-8870D01*
X3178Y-8873D01*
X3141D01*
X3074Y-8870D01*
X3007Y-8864D01*
X2947Y-8853D01*
X2888Y-8839D01*
X2835Y-8822D01*
X2785Y-8805D01*
X2740Y-8786D01*
X2700Y-8766D01*
X2664Y-8744D01*
X2630Y-8724D01*
X2605Y-8707D01*
X2582Y-8690D01*
X2562Y-8676D01*
X2551Y-8665D01*
X2543Y-8659D01*
X2540Y-8657D01*
X2501Y-8614D01*
X2467Y-8572D01*
X2436Y-8527D01*
X2411Y-8485D01*
X2388Y-8440D01*
X2372Y-8395D01*
X2355Y-8353D01*
X2343Y-8314D01*
X2335Y-8275D01*
X2327Y-8238D01*
X2321Y-8207D01*
X2318Y-8182D01*
Y-8159D01*
X2315Y-8142D01*
Y-8131D01*
Y-8128D01*
X2321Y-8053D01*
X2332Y-7985D01*
X2349Y-7923D01*
X2369Y-7873D01*
X2386Y-7830D01*
X2394Y-7814D01*
X2402Y-7797D01*
X2411Y-7785D01*
X2414Y-7777D01*
X2419Y-7774D01*
Y-7772D01*
X2464Y-7718D01*
X2515Y-7673D01*
X2571Y-7634D01*
X2624Y-7600D01*
X2672Y-7575D01*
X2695Y-7564D01*
X2712Y-7555D01*
X2726Y-7549D01*
X2740Y-7544D01*
X2745Y-7541D01*
X2748D01*
X2700Y-7527D01*
X2655Y-7510D01*
X2613Y-7493D01*
X2574Y-7474D01*
X2537Y-7451D01*
X2503Y-7429D01*
X2473Y-7409D01*
X2444Y-7386D01*
X2422Y-7367D01*
X2400Y-7347D01*
X2383Y-7330D01*
X2366Y-7313D01*
X2355Y-7299D01*
X2346Y-7291D01*
X2343Y-7285D01*
X2341Y-7282D01*
X2315Y-7246D01*
X2296Y-7209D01*
X2276Y-7170D01*
X2259Y-7131D01*
X2234Y-7052D01*
X2217Y-6976D01*
X2211Y-6943D01*
X2208Y-6912D01*
X2206Y-6883D01*
X2203Y-6861D01*
X2200Y-6841D01*
Y-6825D01*
Y-6816D01*
Y-6813D01*
X2203Y-6743D01*
X2211Y-6678D01*
X2225Y-6617D01*
X2239Y-6558D01*
X2259Y-6501D01*
X2282Y-6448D01*
X2304Y-6400D01*
X2329Y-6358D01*
X2355Y-6319D01*
X2377Y-6285D01*
X2400Y-6254D01*
X2419Y-6229D01*
X2436Y-6209D01*
X2447Y-6195D01*
X2456Y-6187D01*
X2459Y-6184D01*
X2509Y-6139D01*
X2562Y-6102D01*
X2619Y-6069D01*
X2678Y-6041D01*
X2734Y-6015D01*
X2790Y-5996D01*
X2846Y-5979D01*
X2900Y-5965D01*
X2950Y-5953D01*
X2998Y-5948D01*
X3040Y-5942D01*
X3077Y-5937D01*
X3105D01*
X3127Y-5934D01*
X3147D01*
X3226Y-5937D01*
D02*
G37*
%LPC*%
G36*
X118721Y174405D02*
X118722Y174404D01*
Y174404D01*
X118721Y174405D01*
D02*
G37*
G36*
X137279Y175358D02*
X137104Y175285D01*
X137105Y175279D01*
X136964Y175220D01*
X136965Y175220D01*
X136873Y175182D01*
X136802Y175010D01*
X136799Y175011D01*
X136682Y174424D01*
X136686Y174404D01*
X136687Y174405D01*
X136683Y174384D01*
X136799Y173800D01*
X136802Y173801D01*
X136873Y173631D01*
X136965Y173593D01*
X136965Y173592D01*
X137105Y173534D01*
X137104Y173527D01*
X137279Y173455D01*
X137288Y173459D01*
X137288Y173461D01*
X137296Y173458D01*
X137471Y173530D01*
X137470Y173536D01*
X137610Y173594D01*
X137610Y173594D01*
X137697Y173630D01*
X137771Y173811D01*
X137773Y173810D01*
X137890Y174398D01*
X137889Y174405D01*
X137889Y174404D01*
X137890Y174412D01*
X137773Y175002D01*
X137771Y175001D01*
X137696Y175183D01*
X137610Y175218D01*
X137610Y175219D01*
X137470Y175277D01*
X137471Y175283D01*
X137296Y175355D01*
X137287Y175351D01*
X137288Y175354D01*
X137279Y175358D01*
D02*
G37*
%LPD*%
G36*
X137288Y173461D02*
X137287Y173461D01*
X137288Y173526D01*
X137288Y173461D01*
D02*
G37*
%LPC*%
G36*
X140120Y175341D02*
X140104Y175334D01*
X140089Y175340D01*
X139835Y175235D01*
X139835Y175235D01*
X139670Y175167D01*
X139636Y175085D01*
X139632Y175088D01*
X139530Y174841D01*
X139522Y174843D01*
X139451Y174671D01*
X139481Y174670D01*
X139433Y174425D01*
X139437Y174404D01*
X139437D01*
X139437Y174405D01*
X139506Y174405D01*
X139437Y174404D01*
X139433Y174384D01*
X139482Y174140D01*
X139451Y174139D01*
X139522Y173968D01*
X139530Y173969D01*
X139632Y173724D01*
X139636Y173727D01*
X139670Y173646D01*
X139835Y173578D01*
X139835Y173578D01*
X140089Y173473D01*
X140104Y173479D01*
X140120Y173472D01*
X140375Y173578D01*
X140375Y173578D01*
X140536Y173645D01*
X140571Y173729D01*
X140578Y173722D01*
X140681Y173970D01*
X140694Y173968D01*
X140766Y174142D01*
X140733Y174143D01*
X140782Y174390D01*
X140778Y174411D01*
X140774Y174411D01*
X140778Y174431D01*
X140730Y174671D01*
X140764Y174673D01*
X140693Y174843D01*
X140681Y174841D01*
X140578Y175090D01*
X140571Y175084D01*
X140536Y175168D01*
X140375Y175235D01*
X140375Y175235D01*
X140120Y175341D01*
D02*
G37*
G36*
X141342Y174412D02*
X141272Y174411D01*
X141342Y174411D01*
X141342Y174412D01*
D02*
G37*
%LPD*%
G36*
X140105Y175334D02*
X140103Y175334D01*
X140104Y175334D01*
X140105Y175334D01*
D02*
G37*
G36*
X140104Y173479D02*
X140103Y173479D01*
X140105Y173479D01*
X140104Y173479D01*
D02*
G37*
%LPC*%
G36*
X125136Y175341D02*
X125120Y175334D01*
X125105Y175340D01*
X124851Y175235D01*
X124851Y175235D01*
X124686Y175167D01*
X124652Y175085D01*
X124648Y175088D01*
X124546Y174841D01*
X124537Y174843D01*
X124466Y174671D01*
X124497Y174670D01*
X124449Y174425D01*
X124453Y174404D01*
X124453D01*
X124453Y174405D01*
X124522Y174405D01*
X124453Y174404D01*
X124449Y174384D01*
X124497Y174140D01*
X124466Y174139D01*
X124537Y173968D01*
X124546Y173969D01*
X124647Y173724D01*
X124652Y173727D01*
X124686Y173646D01*
X124851Y173578D01*
X124851Y173578D01*
X125105Y173473D01*
X125120Y173479D01*
X125119Y173479D01*
X125121Y173479D01*
X125120Y173479D01*
X125136Y173472D01*
X125391Y173578D01*
X125391Y173578D01*
X125552Y173645D01*
X125586Y173728D01*
X125594Y173722D01*
X125697Y173970D01*
X125710Y173968D01*
X125782Y174142D01*
X125749Y174143D01*
X125798Y174391D01*
X125794Y174411D01*
X125790Y174411D01*
X125794Y174431D01*
X125746Y174671D01*
X125779Y174673D01*
X125709Y174843D01*
X125697Y174841D01*
X125593Y175090D01*
X125586Y175084D01*
X125552Y175168D01*
X125391Y175235D01*
X125391Y175235D01*
X125136Y175341D01*
D02*
G37*
G36*
X126358Y174412D02*
X126288Y174411D01*
X126358Y174411D01*
X126358Y174412D01*
D02*
G37*
%LPD*%
G36*
X125121Y175334D02*
X125119Y175334D01*
X125120Y175334D01*
X125121Y175334D01*
D02*
G37*
%LPC*%
G36*
X134568Y175371D02*
X134560Y175367D01*
X134561Y175366D01*
X134553Y175369D01*
X134331Y175277D01*
X134331Y175277D01*
X134117Y175189D01*
X134113Y175179D01*
X134112Y175180D01*
X134014Y174943D01*
X134013Y174943D01*
X133897Y174663D01*
X135159Y174661D01*
X135228Y174662D01*
X135111Y174944D01*
X135110Y174943D01*
X135012Y175180D01*
X135012Y175180D01*
X135009Y175188D01*
X134793Y175277D01*
X134793Y175277D01*
X134568Y175371D01*
D02*
G37*
G36*
X115045D02*
X115038Y175367D01*
X115039Y175366D01*
X115031Y175369D01*
X114809Y175277D01*
X114809Y175277D01*
X114595Y175189D01*
X114591Y175179D01*
X114590Y175180D01*
X114492Y174943D01*
X114491Y174943D01*
X114375Y174663D01*
X115636Y174661D01*
X115706Y174662D01*
X115589Y174944D01*
X115588Y174943D01*
X115490Y175180D01*
X115490Y175180D01*
X115487Y175188D01*
X115270Y175277D01*
X115270Y175277D01*
X115045Y175371D01*
D02*
G37*
G36*
X134676Y169751D02*
X134011Y169678D01*
Y169470D01*
X133949Y169472D01*
X133939Y169446D01*
X134038Y169206D01*
X134043Y169208D01*
X134080Y169117D01*
X134082Y169118D01*
X134100Y169073D01*
X134139Y169057D01*
X134140Y169058D01*
X134334Y168977D01*
X134336Y168994D01*
X134586Y168944D01*
X134634Y168953D01*
X134632Y168910D01*
X134650Y168903D01*
X134873Y168996D01*
X134871Y169000D01*
X135044Y169071D01*
X135040Y169075D01*
X135079Y169092D01*
X135125Y169201D01*
X135124Y169201D01*
X135178Y169332D01*
X135177Y169334D01*
X135175Y169333D01*
X135181Y169347D01*
X135127Y169479D01*
X135127Y169479D01*
X135089Y169570D01*
X135041Y169590D01*
X135043Y169593D01*
X134888Y169657D01*
X134890Y169663D01*
X134676Y169751D01*
D02*
G37*
G36*
X123136Y169751D02*
X122471Y169678D01*
Y169470D01*
X122409Y169472D01*
X122399Y169446D01*
X122498Y169206D01*
X122503Y169208D01*
X122540Y169117D01*
X122542Y169118D01*
X122560Y169073D01*
X122599Y169057D01*
X122600Y169058D01*
X122794Y168977D01*
X122796Y168994D01*
X123046Y168944D01*
X123094Y168953D01*
X123092Y168910D01*
X123109Y168903D01*
X123333Y168996D01*
X123331Y169000D01*
X123504Y169071D01*
X123500Y169075D01*
X123539Y169092D01*
X123584Y169201D01*
X123584Y169201D01*
X123638Y169332D01*
X123637Y169334D01*
X123635Y169333D01*
X123641Y169347D01*
X123587Y169479D01*
X123587Y169479D01*
X123549Y169570D01*
X123501Y169590D01*
X123503Y169593D01*
X123348Y169657D01*
X123350Y169663D01*
X123136Y169751D01*
D02*
G37*
G36*
X118145Y170864D02*
X118137Y170861D01*
X118138Y170860D01*
X118131Y170863D01*
X117908Y170771D01*
X117908Y170771D01*
X117694Y170682D01*
X117691Y170673D01*
X117690Y170674D01*
X117592Y170437D01*
X117591Y170437D01*
X117474Y170156D01*
X118736Y170155D01*
X118805Y170155D01*
X118689Y170437D01*
X118688Y170437D01*
X118590Y170674D01*
X118590Y170673D01*
X118587Y170681D01*
X118370Y170771D01*
X118370Y170771D01*
X118145Y170864D01*
D02*
G37*
G36*
X129729Y170852D02*
X129720Y170848D01*
X129720Y170844D01*
X129721Y170844D01*
X129720Y170780D01*
X129720Y170844D01*
X129712Y170847D01*
X129539Y170776D01*
X129540Y170770D01*
X129401Y170712D01*
X129401Y170712D01*
X129315Y170676D01*
X129240Y170494D01*
X129237Y170495D01*
X129120Y169908D01*
X129121Y169904D01*
X129121Y169905D01*
X129120Y169896D01*
X129237Y169305D01*
X129240Y169305D01*
X129315Y169123D01*
X129401Y169088D01*
X129401Y169087D01*
X129540Y169030D01*
X129539Y169024D01*
X129712Y168952D01*
X129721Y168956D01*
X129720Y168951D01*
X129729Y168948D01*
X129905Y169020D01*
X129904Y169027D01*
X130044Y169086D01*
X130044Y169086D01*
X130137Y169125D01*
X130207Y169294D01*
X130210Y169293D01*
X130327Y169881D01*
X130323Y169904D01*
X130323Y169904D01*
X130322Y169905D01*
X130323Y169904D01*
X130326Y169924D01*
X130210Y170507D01*
X130207Y170505D01*
X130137Y170675D01*
X130044Y170713D01*
X130044Y170714D01*
X129904Y170772D01*
X129905Y170779D01*
X129729Y170852D01*
D02*
G37*
G36*
X75583Y210764D02*
X75558D01*
X75502Y210761D01*
X75452Y210755D01*
X75402Y210742D01*
X75355Y210727D01*
X75312Y210711D01*
X75271Y210693D01*
X75234Y210671D01*
X75199Y210649D01*
X75171Y210627D01*
X75143Y210605D01*
X75121Y210587D01*
X75103Y210571D01*
X75087Y210555D01*
X75078Y210543D01*
X75071Y210537D01*
X75068Y210533D01*
X75046Y210505D01*
X75028Y210471D01*
X74993Y210402D01*
X74968Y210331D01*
X74947Y210259D01*
X74934Y210193D01*
X74928Y210165D01*
X74925Y210140D01*
X74922Y210122D01*
X74919Y210106D01*
Y210097D01*
Y210093D01*
X76217D01*
X76210Y210150D01*
X76201Y210203D01*
X76192Y210249D01*
X76176Y210296D01*
X76160Y210340D01*
X76145Y210381D01*
X76126Y210418D01*
X76107Y210449D01*
X76089Y210480D01*
X76073Y210505D01*
X76057Y210527D01*
X76042Y210546D01*
X76029Y210561D01*
X76023Y210571D01*
X76017Y210577D01*
X76014Y210580D01*
X75979Y210611D01*
X75942Y210643D01*
X75905Y210665D01*
X75864Y210686D01*
X75827Y210705D01*
X75789Y210721D01*
X75717Y210742D01*
X75683Y210749D01*
X75655Y210755D01*
X75627Y210758D01*
X75602Y210761D01*
X75583Y210764D01*
D02*
G37*
G36*
X68382D02*
X68357D01*
X68301Y210761D01*
X68251Y210755D01*
X68201Y210742D01*
X68154Y210727D01*
X68111Y210711D01*
X68070Y210693D01*
X68033Y210671D01*
X67998Y210649D01*
X67970Y210627D01*
X67942Y210605D01*
X67920Y210587D01*
X67902Y210571D01*
X67886Y210555D01*
X67877Y210543D01*
X67870Y210537D01*
X67867Y210533D01*
X67845Y210505D01*
X67827Y210471D01*
X67792Y210402D01*
X67768Y210331D01*
X67746Y210259D01*
X67733Y210193D01*
X67727Y210165D01*
X67724Y210140D01*
X67721Y210122D01*
X67718Y210106D01*
Y210097D01*
Y210093D01*
X69016D01*
X69009Y210150D01*
X69000Y210203D01*
X68991Y210249D01*
X68975Y210296D01*
X68959Y210340D01*
X68944Y210381D01*
X68925Y210418D01*
X68906Y210449D01*
X68888Y210480D01*
X68872Y210505D01*
X68856Y210527D01*
X68841Y210546D01*
X68828Y210561D01*
X68822Y210571D01*
X68816Y210577D01*
X68813Y210580D01*
X68778Y210611D01*
X68741Y210643D01*
X68704Y210665D01*
X68663Y210686D01*
X68625Y210705D01*
X68588Y210721D01*
X68516Y210742D01*
X68482Y210749D01*
X68454Y210755D01*
X68426Y210758D01*
X68401Y210761D01*
X68382Y210764D01*
D02*
G37*
G36*
X54723D02*
X54698D01*
X54642Y210761D01*
X54592Y210755D01*
X54542Y210742D01*
X54495Y210727D01*
X54451Y210711D01*
X54411Y210693D01*
X54373Y210671D01*
X54339Y210649D01*
X54311Y210627D01*
X54283Y210605D01*
X54261Y210587D01*
X54242Y210571D01*
X54227Y210555D01*
X54217Y210543D01*
X54211Y210537D01*
X54208Y210533D01*
X54186Y210505D01*
X54167Y210471D01*
X54133Y210402D01*
X54108Y210331D01*
X54086Y210259D01*
X54074Y210193D01*
X54068Y210165D01*
X54065Y210140D01*
X54061Y210122D01*
X54058Y210106D01*
Y210097D01*
Y210093D01*
X55356D01*
X55350Y210150D01*
X55341Y210203D01*
X55331Y210249D01*
X55316Y210296D01*
X55300Y210340D01*
X55284Y210381D01*
X55266Y210418D01*
X55247Y210449D01*
X55228Y210480D01*
X55213Y210505D01*
X55197Y210527D01*
X55181Y210546D01*
X55169Y210561D01*
X55163Y210571D01*
X55156Y210577D01*
X55153Y210580D01*
X55119Y210611D01*
X55082Y210643D01*
X55044Y210665D01*
X55004Y210686D01*
X54966Y210705D01*
X54929Y210721D01*
X54857Y210742D01*
X54823Y210749D01*
X54795Y210755D01*
X54766Y210758D01*
X54742Y210761D01*
X54723Y210764D01*
D02*
G37*
G36*
X43747Y211560D02*
X42670D01*
X42611Y211554D01*
X42558Y211547D01*
X42505Y211538D01*
X42458Y211526D01*
X42417Y211513D01*
X42380Y211501D01*
X42346Y211488D01*
X42315Y211473D01*
X42290Y211460D01*
X42268Y211448D01*
X42249Y211435D01*
X42237Y211426D01*
X42224Y211420D01*
X42221Y211416D01*
X42218Y211413D01*
X42190Y211385D01*
X42162Y211354D01*
X42140Y211326D01*
X42121Y211292D01*
X42093Y211229D01*
X42074Y211170D01*
X42062Y211120D01*
X42059Y211095D01*
X42056Y211076D01*
X42053Y211061D01*
Y211048D01*
Y211042D01*
Y211039D01*
X42056Y210983D01*
X42065Y210927D01*
X42081Y210880D01*
X42096Y210836D01*
X42112Y210799D01*
X42127Y210774D01*
X42137Y210755D01*
X42140Y210752D01*
Y210749D01*
X42174Y210702D01*
X42215Y210664D01*
X42255Y210630D01*
X42296Y210605D01*
X42330Y210583D01*
X42358Y210571D01*
X42380Y210561D01*
X42383Y210558D01*
X42386D01*
X42452Y210540D01*
X42527Y210524D01*
X42602Y210515D01*
X42673Y210505D01*
X42708D01*
X42739Y210502D01*
X42767D01*
X42792Y210499D01*
X43747D01*
Y211560D01*
D02*
G37*
G36*
X25142Y211535D02*
X24225D01*
X24181Y211532D01*
X24141Y211529D01*
X24106D01*
X24075Y211526D01*
X24047Y211522D01*
X24019Y211519D01*
X24000Y211516D01*
X23981Y211513D01*
X23966Y211510D01*
X23953D01*
X23938Y211504D01*
X23932D01*
X23872Y211482D01*
X23819Y211457D01*
X23772Y211426D01*
X23735Y211395D01*
X23704Y211363D01*
X23682Y211338D01*
X23666Y211323D01*
X23663Y211320D01*
Y211316D01*
X23629Y211260D01*
X23604Y211201D01*
X23585Y211145D01*
X23573Y211092D01*
X23566Y211045D01*
X23563Y211023D01*
X23560Y211008D01*
Y210992D01*
Y210983D01*
Y210977D01*
Y210973D01*
X23563Y210923D01*
X23566Y210877D01*
X23588Y210789D01*
X23601Y210752D01*
X23616Y210714D01*
X23632Y210683D01*
X23648Y210655D01*
X23663Y210627D01*
X23679Y210605D01*
X23694Y210587D01*
X23707Y210571D01*
X23719Y210558D01*
X23729Y210549D01*
X23732Y210546D01*
X23735Y210543D01*
X23769Y210518D01*
X23810Y210493D01*
X23854Y210474D01*
X23897Y210455D01*
X23994Y210431D01*
X24091Y210412D01*
X24134Y210405D01*
X24178Y210402D01*
X24215Y210396D01*
X24250D01*
X24278Y210393D01*
X25142D01*
Y211535D01*
D02*
G37*
G36*
X65980Y210761D02*
X65955D01*
X65905Y210758D01*
X65858Y210752D01*
X65814Y210739D01*
X65771Y210727D01*
X65693Y210689D01*
X65658Y210671D01*
X65627Y210649D01*
X65599Y210627D01*
X65574Y210608D01*
X65552Y210590D01*
X65537Y210571D01*
X65521Y210558D01*
X65512Y210546D01*
X65505Y210540D01*
X65502Y210537D01*
X65471Y210493D01*
X65440Y210443D01*
X65418Y210390D01*
X65396Y210334D01*
X65378Y210275D01*
X65362Y210218D01*
X65340Y210103D01*
X65334Y210050D01*
X65328Y210000D01*
X65325Y209953D01*
X65321Y209916D01*
X65318Y209885D01*
Y209859D01*
Y209844D01*
Y209838D01*
X65321Y209760D01*
X65325Y209685D01*
X65334Y209616D01*
X65346Y209554D01*
X65359Y209494D01*
X65374Y209441D01*
X65393Y209395D01*
X65409Y209351D01*
X65424Y209314D01*
X65443Y209282D01*
X65459Y209254D01*
X65471Y209232D01*
X65484Y209214D01*
X65490Y209201D01*
X65496Y209195D01*
X65499Y209192D01*
X65534Y209154D01*
X65571Y209123D01*
X65605Y209095D01*
X65643Y209070D01*
X65680Y209051D01*
X65718Y209033D01*
X65786Y209008D01*
X65846Y208995D01*
X65871Y208989D01*
X65892Y208986D01*
X65911Y208983D01*
X65936D01*
X65983Y208986D01*
X66030Y208992D01*
X66073Y209001D01*
X66114Y209017D01*
X66189Y209051D01*
X66254Y209092D01*
X66282Y209114D01*
X66307Y209133D01*
X66329Y209151D01*
X66345Y209167D01*
X66360Y209183D01*
X66370Y209192D01*
X66376Y209198D01*
X66379Y209201D01*
X66413Y209245D01*
X66442Y209295D01*
X66466Y209345D01*
X66488Y209398D01*
X66504Y209454D01*
X66519Y209510D01*
X66541Y209619D01*
X66551Y209669D01*
X66557Y209716D01*
X66560Y209760D01*
X66563Y209797D01*
X66566Y209825D01*
Y209850D01*
Y209863D01*
Y209869D01*
X66563Y209953D01*
X66560Y210031D01*
X66551Y210103D01*
X66538Y210168D01*
X66526Y210231D01*
X66510Y210287D01*
X66495Y210337D01*
X66479Y210381D01*
X66463Y210421D01*
X66448Y210452D01*
X66432Y210484D01*
X66420Y210505D01*
X66407Y210524D01*
X66398Y210537D01*
X66395Y210543D01*
X66392Y210546D01*
X66357Y210583D01*
X66323Y210618D01*
X66286Y210646D01*
X66248Y210671D01*
X66214Y210693D01*
X66176Y210708D01*
X66142Y210724D01*
X66108Y210733D01*
X66045Y210749D01*
X66020Y210755D01*
X65999Y210758D01*
X65980Y210761D01*
D02*
G37*
G36*
X57287D02*
X57262D01*
X57213Y210758D01*
X57166Y210752D01*
X57122Y210739D01*
X57078Y210727D01*
X57000Y210689D01*
X56966Y210671D01*
X56935Y210649D01*
X56907Y210627D01*
X56882Y210608D01*
X56860Y210590D01*
X56844Y210571D01*
X56829Y210558D01*
X56819Y210546D01*
X56813Y210540D01*
X56810Y210537D01*
X56779Y210493D01*
X56748Y210443D01*
X56726Y210390D01*
X56704Y210334D01*
X56685Y210275D01*
X56670Y210218D01*
X56648Y210103D01*
X56642Y210050D01*
X56635Y210000D01*
X56632Y209953D01*
X56629Y209916D01*
X56626Y209885D01*
Y209859D01*
Y209844D01*
Y209838D01*
X56629Y209760D01*
X56632Y209685D01*
X56642Y209616D01*
X56654Y209554D01*
X56667Y209494D01*
X56682Y209441D01*
X56701Y209395D01*
X56717Y209351D01*
X56732Y209314D01*
X56751Y209282D01*
X56766Y209254D01*
X56779Y209232D01*
X56791Y209214D01*
X56798Y209201D01*
X56804Y209195D01*
X56807Y209192D01*
X56841Y209154D01*
X56879Y209123D01*
X56913Y209095D01*
X56950Y209070D01*
X56988Y209051D01*
X57025Y209033D01*
X57094Y209008D01*
X57153Y208995D01*
X57178Y208989D01*
X57200Y208986D01*
X57219Y208983D01*
X57244D01*
X57291Y208986D01*
X57337Y208992D01*
X57381Y209001D01*
X57422Y209017D01*
X57497Y209051D01*
X57562Y209092D01*
X57590Y209114D01*
X57615Y209133D01*
X57637Y209151D01*
X57652Y209167D01*
X57668Y209183D01*
X57677Y209192D01*
X57684Y209198D01*
X57687Y209201D01*
X57721Y209245D01*
X57749Y209295D01*
X57774Y209345D01*
X57796Y209398D01*
X57812Y209454D01*
X57827Y209510D01*
X57849Y209619D01*
X57858Y209669D01*
X57865Y209716D01*
X57868Y209760D01*
X57871Y209797D01*
X57874Y209825D01*
Y209850D01*
Y209863D01*
Y209869D01*
X57871Y209953D01*
X57868Y210031D01*
X57858Y210103D01*
X57846Y210168D01*
X57833Y210231D01*
X57818Y210287D01*
X57802Y210337D01*
X57787Y210381D01*
X57771Y210421D01*
X57755Y210452D01*
X57740Y210484D01*
X57727Y210505D01*
X57715Y210524D01*
X57705Y210537D01*
X57702Y210543D01*
X57699Y210546D01*
X57665Y210583D01*
X57631Y210618D01*
X57593Y210646D01*
X57556Y210671D01*
X57521Y210693D01*
X57484Y210708D01*
X57450Y210724D01*
X57415Y210733D01*
X57353Y210749D01*
X57328Y210755D01*
X57306Y210758D01*
X57287Y210761D01*
D02*
G37*
G36*
X34855Y211604D02*
X34836D01*
X34777Y211600D01*
X34721Y211597D01*
X34611Y211579D01*
X34561Y211566D01*
X34515Y211554D01*
X34471Y211538D01*
X34430Y211522D01*
X34393Y211507D01*
X34362Y211491D01*
X34334Y211479D01*
X34309Y211466D01*
X34290Y211457D01*
X34277Y211448D01*
X34268Y211444D01*
X34265Y211441D01*
X34218Y211410D01*
X34174Y211376D01*
X34097Y211304D01*
X34031Y211229D01*
X33975Y211154D01*
X33934Y211089D01*
X33915Y211061D01*
X33903Y211039D01*
X33891Y211017D01*
X33884Y211001D01*
X33878Y210992D01*
Y210989D01*
X33853Y210933D01*
X33834Y210877D01*
X33800Y210761D01*
X33775Y210646D01*
X33769Y210593D01*
X33759Y210540D01*
X33756Y210493D01*
X33750Y210446D01*
X33747Y210409D01*
Y210374D01*
X33744Y210346D01*
Y210328D01*
Y210312D01*
Y210309D01*
X33747Y210196D01*
X33756Y210090D01*
X33772Y209994D01*
X33791Y209900D01*
X33816Y209816D01*
X33841Y209738D01*
X33869Y209666D01*
X33897Y209604D01*
X33928Y209544D01*
X33956Y209498D01*
X33981Y209454D01*
X34003Y209420D01*
X34025Y209391D01*
X34040Y209373D01*
X34050Y209360D01*
X34053Y209357D01*
X34112Y209298D01*
X34174Y209248D01*
X34240Y209201D01*
X34306Y209164D01*
X34374Y209133D01*
X34440Y209104D01*
X34502Y209083D01*
X34565Y209064D01*
X34621Y209051D01*
X34674Y209042D01*
X34721Y209033D01*
X34761Y209030D01*
X34795Y209027D01*
X34820Y209023D01*
X34842D01*
X34926Y209027D01*
X35011Y209039D01*
X35089Y209054D01*
X35160Y209076D01*
X35229Y209101D01*
X35295Y209129D01*
X35354Y209157D01*
X35407Y209189D01*
X35457Y209220D01*
X35497Y209248D01*
X35535Y209276D01*
X35566Y209301D01*
X35591Y209323D01*
X35607Y209338D01*
X35619Y209351D01*
X35622Y209354D01*
X35675Y209420D01*
X35725Y209488D01*
X35766Y209563D01*
X35800Y209638D01*
X35831Y209713D01*
X35856Y209788D01*
X35875Y209863D01*
X35894Y209934D01*
X35906Y210003D01*
X35915Y210065D01*
X35922Y210122D01*
X35925Y210168D01*
X35928Y210209D01*
X35931Y210240D01*
Y210259D01*
Y210262D01*
Y210265D01*
X35928Y210396D01*
X35919Y210518D01*
X35900Y210627D01*
X35881Y210730D01*
X35856Y210824D01*
X35828Y210908D01*
X35800Y210983D01*
X35769Y211051D01*
X35741Y211107D01*
X35713Y211160D01*
X35685Y211201D01*
X35660Y211235D01*
X35638Y211260D01*
X35622Y211279D01*
X35613Y211292D01*
X35610Y211295D01*
X35547Y211348D01*
X35482Y211398D01*
X35416Y211438D01*
X35351Y211473D01*
X35285Y211504D01*
X35223Y211529D01*
X35160Y211547D01*
X35101Y211566D01*
X35045Y211579D01*
X34995Y211588D01*
X34951Y211594D01*
X34911Y211597D01*
X34880Y211600D01*
X34855Y211604D01*
D02*
G37*
G36*
X139254Y211589D02*
X137960D01*
X137889Y211582D01*
X137825Y211574D01*
X137761Y211563D01*
X137705Y211548D01*
X137656Y211533D01*
X137611Y211518D01*
X137570Y211503D01*
X137532Y211484D01*
X137503Y211469D01*
X137476Y211454D01*
X137454Y211439D01*
X137439Y211428D01*
X137424Y211420D01*
X137420Y211417D01*
X137416Y211413D01*
X137382Y211379D01*
X137349Y211342D01*
X137322Y211308D01*
X137300Y211267D01*
X137266Y211192D01*
X137244Y211121D01*
X137229Y211061D01*
X137225Y211031D01*
X137221Y211008D01*
X137217Y210989D01*
Y210974D01*
Y210967D01*
Y210963D01*
X137221Y210895D01*
X137232Y210828D01*
X137251Y210772D01*
X137270Y210719D01*
X137289Y210674D01*
X137308Y210644D01*
X137319Y210622D01*
X137322Y210618D01*
Y210614D01*
X137364Y210558D01*
X137413Y210513D01*
X137461Y210472D01*
X137510Y210442D01*
X137551Y210416D01*
X137585Y210401D01*
X137611Y210389D01*
X137615Y210385D01*
X137619D01*
X137698Y210363D01*
X137787Y210344D01*
X137878Y210333D01*
X137964Y210322D01*
X138005D01*
X138042Y210318D01*
X138076D01*
X138106Y210314D01*
X139254D01*
Y211589D01*
D02*
G37*
G36*
X125926Y211608D02*
X125908Y211548D01*
X125889Y211484D01*
X125844Y211353D01*
X125799Y211218D01*
X125754Y211090D01*
X125735Y211034D01*
X125716Y210982D01*
X125698Y210933D01*
X125682Y210892D01*
X125671Y210858D01*
X125660Y210832D01*
X125656Y210817D01*
X125653Y210809D01*
X125248Y209744D01*
X126560D01*
X126133Y210873D01*
X126087Y211012D01*
X126046Y211143D01*
X126009Y211267D01*
X125994Y211323D01*
X125979Y211379D01*
X125968Y211428D01*
X125956Y211473D01*
X125949Y211510D01*
X125941Y211544D01*
X125934Y211571D01*
X125930Y211593D01*
X125926Y211604D01*
Y211608D01*
D02*
G37*
G36*
X3175Y-6223D02*
X3150D01*
X3091Y-6226D01*
X3035Y-6234D01*
X2981Y-6248D01*
X2936Y-6262D01*
X2897Y-6274D01*
X2869Y-6288D01*
X2858Y-6293D01*
X2849Y-6296D01*
X2846Y-6299D01*
X2843D01*
X2793Y-6330D01*
X2751Y-6367D01*
X2714Y-6403D01*
X2686Y-6440D01*
X2664Y-6470D01*
X2647Y-6496D01*
X2636Y-6513D01*
X2633Y-6515D01*
Y-6518D01*
X2610Y-6572D01*
X2593Y-6622D01*
X2579Y-6673D01*
X2571Y-6718D01*
X2565Y-6754D01*
X2562Y-6785D01*
Y-6796D01*
Y-6805D01*
Y-6808D01*
Y-6810D01*
X2565Y-6855D01*
X2571Y-6900D01*
X2577Y-6940D01*
X2588Y-6979D01*
X2613Y-7049D01*
X2630Y-7080D01*
X2644Y-7111D01*
X2658Y-7136D01*
X2675Y-7159D01*
X2689Y-7179D01*
X2700Y-7193D01*
X2712Y-7207D01*
X2720Y-7215D01*
X2723Y-7221D01*
X2726Y-7224D01*
X2756Y-7252D01*
X2790Y-7280D01*
X2824Y-7299D01*
X2858Y-7319D01*
X2894Y-7336D01*
X2928Y-7350D01*
X2992Y-7370D01*
X3023Y-7375D01*
X3052Y-7381D01*
X3077Y-7384D01*
X3096Y-7386D01*
X3113Y-7389D01*
X3139D01*
X3186Y-7386D01*
X3231Y-7381D01*
X3274Y-7372D01*
X3313Y-7364D01*
X3386Y-7336D01*
X3417Y-7322D01*
X3448Y-7305D01*
X3473Y-7288D01*
X3495Y-7274D01*
X3515Y-7260D01*
X3532Y-7246D01*
X3546Y-7238D01*
X3554Y-7229D01*
X3560Y-7224D01*
X3563Y-7221D01*
X3594Y-7190D01*
X3619Y-7156D01*
X3642Y-7119D01*
X3661Y-7086D01*
X3678Y-7049D01*
X3692Y-7016D01*
X3712Y-6948D01*
X3720Y-6917D01*
X3726Y-6889D01*
X3729Y-6864D01*
X3731Y-6841D01*
X3734Y-6825D01*
Y-6810D01*
Y-6802D01*
Y-6799D01*
X3731Y-6754D01*
X3726Y-6709D01*
X3720Y-6667D01*
X3709Y-6628D01*
X3681Y-6558D01*
X3667Y-6524D01*
X3653Y-6496D01*
X3636Y-6470D01*
X3622Y-6448D01*
X3608Y-6428D01*
X3594Y-6414D01*
X3583Y-6400D01*
X3577Y-6392D01*
X3571Y-6386D01*
X3568Y-6383D01*
X3538Y-6355D01*
X3504Y-6330D01*
X3470Y-6310D01*
X3434Y-6291D01*
X3400Y-6277D01*
X3363Y-6262D01*
X3299Y-6243D01*
X3268Y-6237D01*
X3240Y-6232D01*
X3215Y-6229D01*
X3192Y-6226D01*
X3175Y-6223D01*
D02*
G37*
G36*
X3170Y-7679D02*
X3150D01*
X3111Y-7682D01*
X3074Y-7684D01*
X3007Y-7698D01*
X2947Y-7721D01*
X2900Y-7743D01*
X2860Y-7766D01*
X2832Y-7788D01*
X2821Y-7797D01*
X2813Y-7802D01*
X2810Y-7808D01*
X2807D01*
X2785Y-7833D01*
X2765Y-7859D01*
X2731Y-7915D01*
X2709Y-7971D01*
X2695Y-8024D01*
X2683Y-8072D01*
X2681Y-8092D01*
Y-8109D01*
X2678Y-8123D01*
Y-8134D01*
Y-8140D01*
Y-8142D01*
X2681Y-8176D01*
X2683Y-8207D01*
X2697Y-8266D01*
X2720Y-8319D01*
X2745Y-8364D01*
X2768Y-8401D01*
X2790Y-8429D01*
X2804Y-8446D01*
X2810Y-8449D01*
Y-8451D01*
X2835Y-8474D01*
X2863Y-8496D01*
X2919Y-8527D01*
X2976Y-8553D01*
X3029Y-8567D01*
X3074Y-8578D01*
X3096Y-8581D01*
X3113D01*
X3127Y-8584D01*
X3147D01*
X3184Y-8581D01*
X3220Y-8578D01*
X3285Y-8564D01*
X3341Y-8541D01*
X3389Y-8516D01*
X3428Y-8491D01*
X3456Y-8471D01*
X3467Y-8460D01*
X3476Y-8454D01*
X3479Y-8451D01*
X3481Y-8449D01*
X3504Y-8423D01*
X3526Y-8398D01*
X3560Y-8342D01*
X3583Y-8288D01*
X3599Y-8235D01*
X3611Y-8190D01*
X3613Y-8170D01*
Y-8156D01*
X3616Y-8142D01*
Y-8131D01*
Y-8125D01*
Y-8123D01*
Y-8089D01*
X3611Y-8055D01*
X3597Y-7993D01*
X3574Y-7940D01*
X3552Y-7892D01*
X3526Y-7856D01*
X3504Y-7828D01*
X3495Y-7819D01*
X3490Y-7811D01*
X3487Y-7808D01*
X3484Y-7805D01*
X3459Y-7783D01*
X3434Y-7763D01*
X3377Y-7732D01*
X3321Y-7710D01*
X3268Y-7696D01*
X3223Y-7684D01*
X3200Y-7682D01*
X3184D01*
X3170Y-7679D01*
D02*
G37*
%LPD*%
D10*
X1476Y6299D02*
G03*
X1083Y6299I-197J0D01*
G01*
D02*
G03*
X1476Y6299I197J0D01*
G01*
D02*
G03*
X1083Y6299I-197J0D01*
G01*
D55*
X117027Y168908D02*
G03*
X117251Y168698I1042J883D01*
G01*
X117730Y169055D02*
G03*
X118062Y168987I327J746D01*
G01*
X117440Y169260D02*
G03*
X117730Y169055I678J651D01*
G01*
X118051Y168453D02*
G03*
X118481Y168523I-1J1347D01*
G01*
X118062Y168987D02*
G03*
X118330Y169030I10J786D01*
G01*
X117501Y168557D02*
G03*
X118051Y168453I546J1369D01*
G01*
X118330Y169030D02*
G03*
X118546Y169162I-214J596D01*
G01*
X117251Y168698D02*
G03*
X117501Y168557I662J888D01*
G01*
X122483Y168725D02*
G03*
X122720Y168513I405J215D01*
G01*
X123871Y168692D02*
G03*
X124067Y168966I-531J588D01*
G01*
X123574Y168510D02*
G03*
X123871Y168692I-249J739D01*
G01*
X122602Y169061D02*
G03*
X122796Y168995I267J464D01*
G01*
X123330Y169004D02*
G03*
X123490Y169088I-93J371D01*
G01*
X123093Y168976D02*
G03*
X123330Y169004I16J886D01*
G01*
X123162Y168442D02*
G03*
X123574Y168510I-7J1324D01*
G01*
X122720Y168513D02*
G03*
X122915Y168460I320J793D01*
G01*
X122915Y168460D02*
G03*
X123162Y168442I236J1559D01*
G01*
X122796Y168995D02*
G03*
X123093Y168976I250J1607D01*
G01*
X124067Y168966D02*
G03*
X124133Y169306I-793J329D01*
G01*
X122545Y169120D02*
G03*
X122602Y169061I179J117D01*
G01*
X122504Y169208D02*
G03*
X122545Y169120I332J102D01*
G01*
X122788Y170794D02*
G03*
X122611Y170727I90J-502D01*
G01*
X122002Y170855D02*
G03*
X121942Y170653I874J-368D01*
G01*
X122234Y171145D02*
G03*
X122002Y170855I386J-547D01*
G01*
X121942Y170653D02*
G03*
X121920Y170414I1388J-249D01*
G01*
X122471Y169470D02*
G03*
X122504Y169208I874J-24D01*
G01*
X122506Y170611D02*
G03*
X122471Y170447I323J-153D01*
G01*
X119630Y171295D02*
G03*
X119342Y171131I381J-1005D01*
G01*
X120510Y170640D02*
G03*
X120130Y170780I-380J-443D01*
G01*
X119940Y170745D02*
G03*
X119753Y170640I266J-693D01*
G01*
X119933Y171350D02*
G03*
X119630Y171295I-0J-869D01*
G01*
X120670Y171015D02*
G03*
X120353Y171266I-672J-522D01*
G01*
X120638Y170456D02*
G03*
X120510Y170640I-403J-145D01*
G01*
X120130Y170780D02*
G03*
X119940Y170745I2J-541D01*
G01*
X120681Y170187D02*
G03*
X120638Y170456I-761J17D01*
G01*
X120353Y171266D02*
G03*
X119933Y171350I-402J-920D01*
G01*
X123352Y171325D02*
G03*
X123064Y171347I-255J-1447D01*
G01*
X122611Y170727D02*
G03*
X122506Y170611I156J-249D01*
G01*
X122599Y171299D02*
G03*
X122234Y171145I259J-1122D01*
G01*
X123603Y171249D02*
G03*
X123352Y171325I-443J-1009D01*
G01*
X123037Y170813D02*
G03*
X122788Y170794I-37J-1153D01*
G01*
X124133Y169306D02*
G03*
X124076Y169632I-911J10D01*
G01*
X123217Y170802D02*
G03*
X123037Y170813I-172J-1330D01*
G01*
X124076Y169632D02*
G03*
X123906Y169902I-758J-290D01*
G01*
X123498Y169585D02*
G03*
X123347Y169651I-252J-368D01*
G01*
X123994Y170935D02*
G03*
X123603Y171249I-788J-579D01*
G01*
X123064Y171347D02*
G03*
X122599Y171299I-41J-1893D01*
G01*
X119305Y169890D02*
G03*
X119282Y170272I-2863J15D01*
G01*
X119282Y170272D02*
G03*
X119211Y170590I-1755J-225D01*
G01*
X119093Y170844D02*
G03*
X118928Y171034I-696J-438D01*
G01*
X119211Y170590D02*
G03*
X119093Y170844I-1073J-344D01*
G01*
X119280Y169490D02*
G03*
X119305Y169890I-2849J383D01*
G01*
X118688Y169380D02*
G03*
X118736Y169686I-850J288D01*
G01*
X118546Y169162D02*
G03*
X118688Y169380I-370J397D01*
G01*
X119203Y169165D02*
G03*
X119280Y169491I-1589J546D01*
G01*
X118896Y168735D02*
G03*
X119075Y168913I-415J596D01*
G01*
X119075Y168913D02*
G03*
X119203Y169165I-831J580D01*
G01*
X118481Y168523D02*
G03*
X118896Y168735I-537J1569D01*
G01*
X118736Y170155D02*
G03*
X118687Y170437I-905J-11D01*
G01*
X117592D02*
G03*
X117541Y170155I873J-305D01*
G01*
X118928Y171034D02*
G03*
X118541Y171271I-935J-1090D01*
G01*
X118559Y170643D02*
G03*
X118370Y170771I-398J-388D01*
G01*
X118541Y171271D02*
G03*
X118138Y171350I-405J-999D01*
G01*
X117908Y170771D02*
G03*
X117721Y170643I211J-514D01*
G01*
X118370Y170771D02*
G03*
X118138Y170813I-225J-575D01*
G01*
X118138Y171350D02*
G03*
X117701Y171269I-9J-1175D01*
G01*
X117721Y170643D02*
G03*
X117592Y170436I411J-398D01*
G01*
X118687Y170437D02*
G03*
X118559Y170643I-530J-184D01*
G01*
X117701Y171269D02*
G03*
X117322Y171026I455J-1128D01*
G01*
X118138Y170813D02*
G03*
X117908Y170771I-7J-603D01*
G01*
X117060Y170647D02*
G03*
X116973Y170155I1226J-471D01*
G01*
X117322Y171026D02*
G03*
X117060Y170647I701J-764D01*
G01*
X123614Y169334D02*
G03*
X123587Y169479I-326J14D01*
G01*
X123906Y169902D02*
G03*
X123627Y170083I-517J-492D01*
G01*
X123364Y170768D02*
G03*
X123217Y170802I-247J-749D01*
G01*
X123347Y169651D02*
G03*
X123135Y169678I-228J-947D01*
G01*
X123627Y170083D02*
G03*
X123238Y170147I-381J-1102D01*
G01*
X123587Y169479D02*
G03*
X123498Y169585I-243J-114D01*
G01*
X123558Y170592D02*
G03*
X123364Y170768I-353J-193D01*
G01*
X123490Y169088D02*
G03*
X123583Y169202I-231J284D01*
G01*
D02*
G03*
X123614Y169334I-258J130D01*
G01*
X138957Y174809D02*
G03*
X138939Y174411I3876J-371D01*
G01*
X139244Y173319D02*
G03*
X139384Y173193I731J668D01*
G01*
X139384Y173193D02*
G03*
X139569Y173074I929J1246D01*
G01*
X139010Y173723D02*
G03*
X139244Y173319I1033J329D01*
G01*
X138939Y174411D02*
G03*
X138957Y174007I4017J-27D01*
G01*
X139514Y174142D02*
G03*
X139537Y173971I1050J57D01*
G01*
X139537Y174839D02*
G03*
X139514Y174668I1028J-229D01*
G01*
X139506Y174405D02*
G03*
X139514Y174142I3706J-20D01*
G01*
X139646Y173734D02*
G03*
X139835Y173578I381J270D01*
G01*
X138957Y174007D02*
G03*
X139010Y173723I1446J124D01*
G01*
X139514Y174668D02*
G03*
X139506Y174405I3724J-243D01*
G01*
X136668Y175752D02*
G03*
X136357Y175488I485J-888D01*
G01*
X137468Y175269D02*
G03*
X137288Y175287I-172J-810D01*
G01*
X137515Y175774D02*
G03*
X137115Y175856I-390J-880D01*
G01*
X136966Y175217D02*
G03*
X136805Y175009I167J-295D01*
G01*
X137115Y175856D02*
G03*
X136873Y175830I-8J-1057D01*
G01*
X137847Y175526D02*
G03*
X137515Y175774I-750J-659D01*
G01*
X136197Y175132D02*
G03*
X136166Y174849I2038J-369D01*
G01*
X136357Y175488D02*
G03*
X136197Y175132I685J-521D01*
G01*
X137288Y175287D02*
G03*
X137107Y175269I-9J-860D01*
G01*
X137608Y175215D02*
G03*
X137468Y175269I-237J-409D01*
G01*
X137768Y175000D02*
G03*
X137608Y175215I-337J-84D01*
G01*
X136873Y175830D02*
G03*
X136668Y175752I176J-770D01*
G01*
X137107Y175269D02*
G03*
X136966Y175217I96J-477D01*
G01*
X134903Y173030D02*
G03*
X135319Y173241I-537J1569D01*
G01*
X134969Y173668D02*
G03*
X135111Y173887I-370J397D01*
G01*
X136155Y174405D02*
G03*
X136166Y173963I7848J-35D01*
G01*
X134484Y173493D02*
G03*
X134753Y173537I10J786D01*
G01*
X135319Y173241D02*
G03*
X135498Y173419I-415J596D01*
G01*
X135626Y173671D02*
G03*
X135702Y173997I-1589J546D01*
G01*
X135111Y173887D02*
G03*
X135159Y174193I-850J289D01*
G01*
X135702Y173997D02*
G03*
X135728Y174397I-2849J383D01*
G01*
X135498Y173419D02*
G03*
X135626Y173671I-831J580D01*
G01*
X134474Y172959D02*
G03*
X134903Y173030I-1J1347D01*
G01*
X139384Y175619D02*
G03*
X139244Y175494I621J-835D01*
G01*
X139244D02*
G03*
X139010Y175090I798J-733D01*
G01*
X139807Y175827D02*
G03*
X139569Y175739I173J-832D01*
G01*
X139010Y175090D02*
G03*
X138957Y174809I1389J-407D01*
G01*
X139646Y175079D02*
G03*
X139537Y174839I617J-424D01*
G01*
X140104Y175856D02*
G03*
X139807Y175827I-13J-1392D01*
G01*
X140104Y175287D02*
G03*
X139835Y175235I-15J-645D01*
G01*
X140405Y175827D02*
G03*
X140104Y175856I-287J-1390D01*
G01*
X139569Y175739D02*
G03*
X139384Y175619I816J-1461D01*
G01*
X139835Y175235D02*
G03*
X139646Y175079I192J-426D01*
G01*
X134336Y168995D02*
G03*
X134633Y168976I250J1607D01*
G01*
X135411Y168692D02*
G03*
X135607Y168966I-531J588D01*
G01*
X134703Y168442D02*
G03*
X135114Y168510I-7J1324D01*
G01*
X135114Y168510D02*
G03*
X135411Y168692I-249J739D01*
G01*
X134633Y168976D02*
G03*
X134870Y169004I16J886D01*
G01*
X135607Y168966D02*
G03*
X135673Y169306I-793J329D01*
G01*
X135030Y169088D02*
G03*
X135123Y169202I-231J284D01*
G01*
X135123D02*
G03*
X135154Y169334I-258J130D01*
G01*
X135728Y174397D02*
G03*
X135704Y174778I-2863J14D01*
G01*
X135110Y174943D02*
G03*
X134982Y175150I-530J-184D01*
G01*
X134964Y175777D02*
G03*
X134560Y175856I-405J-999D01*
G01*
X135634Y175096D02*
G03*
X135515Y175350I-1073J-344D01*
G01*
X134982Y175150D02*
G03*
X134793Y175277I-398J-388D01*
G01*
X135704Y174778D02*
G03*
X135634Y175096I-1755J-224D01*
G01*
X135350Y175540D02*
G03*
X134964Y175777I-935J-1090D01*
G01*
X134560Y175320D02*
G03*
X134331Y175277I-7J-603D01*
G01*
X135515Y175350D02*
G03*
X135350Y175540I-696J-438D01*
G01*
X135159Y174661D02*
G03*
X135110Y174943I-905J-11D01*
G01*
X134793Y175277D02*
G03*
X134560Y175320I-225J-575D01*
G01*
X135098Y170592D02*
G03*
X134904Y170768I-353J-193D01*
G01*
X134757Y170802D02*
G03*
X134577Y170813I-172J-1330D01*
G01*
X134892Y171325D02*
G03*
X134604Y171347I-255J-1447D01*
G01*
X135534Y170935D02*
G03*
X135143Y171249I-788J-579D01*
G01*
Y171249D02*
G03*
X134892Y171325I-443J-1009D01*
G01*
X136166Y174849D02*
G03*
X136155Y174405I7917J-409D01*
G01*
X136805Y175009D02*
G03*
X136725Y174405I2083J-585D01*
G01*
X136357Y173325D02*
G03*
X136668Y173061I765J589D01*
G01*
X136166Y173963D02*
G03*
X136197Y173679I2086J88D01*
G01*
X136197Y173679D02*
G03*
X136357Y173325I825J158D01*
G01*
X136668Y173061D02*
G03*
X136873Y172985I380J707D01*
G01*
X136725Y174405D02*
G03*
X136805Y173802I2143J-21D01*
G01*
X137847Y174405D02*
G03*
X137768Y175000I-2227J7D01*
G01*
X136884Y170619D02*
G03*
X136765Y170427I366J-362D01*
G01*
X136765Y170427D02*
G03*
X136725Y170171I717J-243D01*
G01*
X135673Y169306D02*
G03*
X135616Y169632I-911J10D01*
G01*
Y169632D02*
G03*
X135446Y169902I-758J-290D01*
G01*
X135127Y169479D02*
G03*
X135038Y169585I-243J-114D01*
G01*
X135038Y169585D02*
G03*
X134887Y169651I-252J-369D01*
G01*
X135446Y169902D02*
G03*
X135167Y170083I-517J-492D01*
G01*
X140672Y174839D02*
G03*
X140562Y175079I-650J-153D01*
G01*
X141201Y175090D02*
G03*
X140966Y175494I-1039J-334D01*
G01*
X140643Y175739D02*
G03*
X140405Y175827I-407J-735D01*
G01*
X140375Y175235D02*
G03*
X140104Y175287I-255J-598D01*
G01*
X140966Y175494D02*
G03*
X140827Y175619I-754J-695D01*
G01*
X140827D02*
G03*
X140643Y175739I-992J-1319D01*
G01*
X140562Y175079D02*
G03*
X140375Y175235I-373J-257D01*
G01*
X140966Y173319D02*
G03*
X141201Y173723I-804J738D01*
G01*
X139569Y173074D02*
G03*
X139807Y172988I409J759D01*
G01*
X141201Y173723D02*
G03*
X141254Y174007I-1381J408D01*
G01*
X140405Y172988D02*
G03*
X140643Y173074I-167J835D01*
G01*
X139537Y173971D02*
G03*
X139646Y173734I697J176D01*
G01*
X140104Y172959D02*
G03*
X140405Y172988I14J1451D01*
G01*
X139807Y172988D02*
G03*
X140104Y172959I284J1394D01*
G01*
X140643Y173074D02*
G03*
X140827Y173193I-738J1345D01*
G01*
Y173193D02*
G03*
X140966Y173319I-586J781D01*
G01*
X140104Y173526D02*
G03*
X140375Y173578I16J650D01*
G01*
X139835Y173578D02*
G03*
X140104Y173526I254J593D01*
G01*
X140562Y173734D02*
G03*
X140672Y173972I-516J383D01*
G01*
X140694Y174669D02*
G03*
X140672Y174839I-1135J-58D01*
G01*
X141272Y174411D02*
G03*
X141254Y174809I-3858J26D01*
G01*
X140694Y174146D02*
G03*
X140701Y174411I-4135J245D01*
G01*
X140375Y173578D02*
G03*
X140562Y173734I-186J413D01*
G01*
X141254Y174007D02*
G03*
X141272Y174411I-3962J377D01*
G01*
X140672Y173972D02*
G03*
X140694Y174146I-1143J231D01*
G01*
X141254Y174809D02*
G03*
X141201Y175090I-1430J-126D01*
G01*
X140701Y174411D02*
G03*
X140694Y174669I-3931J20D01*
G01*
X137807Y170427D02*
G03*
X137687Y170619I-486J-169D01*
G01*
X137847Y170172D02*
G03*
X137807Y170427I-757J12D01*
G01*
X137836Y171015D02*
G03*
X137519Y171266I-672J-522D01*
G01*
X137099Y171350D02*
G03*
X136775Y171287I2J-878D01*
G01*
X136462Y171099D02*
G03*
X136232Y170791I494J-609D01*
G01*
X136775Y171287D02*
G03*
X136462Y171099I445J-1093D01*
G01*
X137282Y170780D02*
G03*
X137064Y170740I-7J-577D01*
G01*
X137519Y171266D02*
G03*
X137099Y171350I-402J-920D01*
G01*
X136174Y170594D02*
G03*
X136155Y170368I1246J-220D01*
G01*
X136232Y170791D02*
G03*
X136174Y170594I870J-361D01*
G01*
X137506Y170740D02*
G03*
X137282Y170780I-216J-559D01*
G01*
X137064Y170740D02*
G03*
X136884Y170619I201J-493D01*
G01*
X137687Y170619D02*
G03*
X137506Y170740I-377J-369D01*
G01*
X137768Y173811D02*
G03*
X137847Y174405I-2128J586D01*
G01*
X136805Y173802D02*
G03*
X136966Y173595I326J88D01*
G01*
X136966D02*
G03*
X137107Y173543I237J427D01*
G01*
X137608Y173598D02*
G03*
X137768Y173811I-176J298D01*
G01*
X137512Y173049D02*
G03*
X137847Y173292I-640J1233D01*
G01*
X137115Y172959D02*
G03*
X137512Y173049I14J863D01*
G01*
X137288Y173526D02*
G03*
X137468Y173544I9J831D01*
G01*
X136873Y172985D02*
G03*
X137115Y172959I234J1057D01*
G01*
X137107Y173543D02*
G03*
X137288Y173526I172J849D01*
G01*
X137468Y173544D02*
G03*
X137608Y173598I-97J464D01*
G01*
X114152Y173204D02*
G03*
X114402Y173064I662J888D01*
G01*
X114340Y173767D02*
G03*
X114631Y173562I678J651D01*
G01*
X114952Y172959D02*
G03*
X115381Y173030I-1J1347D01*
G01*
X114631Y173562D02*
G03*
X114962Y173493I327J746D01*
G01*
X115447Y173668D02*
G03*
X115589Y173887I-370J397D01*
G01*
X114962Y173493D02*
G03*
X115231Y173537I10J786D01*
G01*
X114402Y173064D02*
G03*
X114952Y172959I546J1369D01*
G01*
X115231Y173537D02*
G03*
X115447Y173668I-214J596D01*
G01*
X113928Y173415D02*
G03*
X114152Y173204I1042J883D01*
G01*
X115270Y175277D02*
G03*
X115038Y175320I-225J-575D01*
G01*
X113960Y175153D02*
G03*
X113873Y174661I1226J-471D01*
G01*
X114621Y175150D02*
G03*
X114493Y174943I411J-398D01*
G01*
Y174943D02*
G03*
X114441Y174661I873J-305D01*
G01*
X114809Y175277D02*
G03*
X114621Y175150I211J-514D01*
G01*
X115442Y175777D02*
G03*
X115038Y175856I-405J-999D01*
G01*
X115038Y175856D02*
G03*
X114601Y175776I-9J-1175D01*
G01*
X115038Y175320D02*
G03*
X114809Y175277I-7J-603D01*
G01*
X114223Y175533D02*
G03*
X113960Y175153I701J-764D01*
G01*
X114601Y175776D02*
G03*
X114223Y175533I455J-1128D01*
G01*
X117922Y175066D02*
G03*
X117692Y175232I-437J-366D01*
G01*
X118908Y175802D02*
G03*
X118620Y175638I381J-1005D01*
G01*
X119212Y175856D02*
G03*
X118908Y175802I-0J-869D01*
G01*
X118106Y174405D02*
G03*
X118060Y174791I-1446J23D01*
G01*
X118676Y174405D02*
G03*
X118651Y174766I-2463J12D01*
G01*
X118577Y175072D02*
G03*
X118453Y175323I-1079J-376D01*
G01*
X118060Y174791D02*
G03*
X117922Y175066I-706J-181D01*
G01*
X118651Y174766D02*
G03*
X118577Y175072I-1609J-229D01*
G01*
X118453Y175323D02*
G03*
X118279Y175519I-781J-516D01*
G01*
X119219Y175252D02*
G03*
X119031Y175147I266J-693D01*
G01*
X123360Y173516D02*
G03*
X123417Y173714I-874J361D01*
G01*
X122707Y173686D02*
G03*
X122827Y173878I-361J358D01*
G01*
X123130Y173209D02*
G03*
X123360Y173516I-489J605D01*
G01*
X123972Y174007D02*
G03*
X124025Y173723I1446J124D01*
G01*
X123417Y173714D02*
G03*
X123436Y173941I-1259J220D01*
G01*
X124400Y173193D02*
G03*
X124585Y173074I929J1246D01*
G01*
X122827Y173878D02*
G03*
X122867Y174135I-724J244D01*
G01*
X122816Y173022D02*
G03*
X123130Y173209I-434J1085D01*
G01*
X124025Y173723D02*
G03*
X124260Y173319I1033J329D01*
G01*
X124260D02*
G03*
X124400Y173193I731J668D01*
G01*
X122302Y173526D02*
G03*
X122526Y173566I8J604D01*
G01*
X122084Y173566D02*
G03*
X122302Y173526I212J542D01*
G01*
X121785Y173878D02*
G03*
X121905Y173686I481J166D01*
G01*
X121745Y174135D02*
G03*
X121785Y173878I764J-13D01*
G01*
X121757Y173292D02*
G03*
X122072Y173042I669J521D01*
G01*
D02*
G03*
X122487Y172959I398J910D01*
G01*
X122526Y173566D02*
G03*
X122707Y173686I-195J491D01*
G01*
X121905Y173686D02*
G03*
X122084Y173566I379J374D01*
G01*
X122487Y172959D02*
G03*
X122816Y173022I-1J902D01*
G01*
X124585Y175739D02*
G03*
X124400Y175619I816J-1461D01*
G01*
X124025Y175090D02*
G03*
X123972Y174809I1389J-408D01*
G01*
X124260Y175494D02*
G03*
X124025Y175090I798J-733D01*
G01*
X123972Y174809D02*
G03*
X123955Y174411I3876J-371D01*
G01*
Y174411D02*
G03*
X123972Y174007I4017J-27D01*
G01*
X124400Y175619D02*
G03*
X124260Y175494I621J-835D01*
G01*
X117369Y173526D02*
G03*
X117692Y173581I18J870D01*
G01*
X117859Y173043D02*
G03*
X118279Y173293I-515J1343D01*
G01*
X116814Y173097D02*
G03*
X117086Y172994I528J983D01*
G01*
X117392Y172959D02*
G03*
X117859Y173043I6J1317D01*
G01*
X117922Y173746D02*
G03*
X118060Y174020I-563J455D01*
G01*
X118279Y173293D02*
G03*
X118453Y173488I-596J707D01*
G01*
X118577Y173738D02*
G03*
X118651Y174044I-1525J533D01*
G01*
X116793Y173825D02*
G03*
X117056Y173601I655J503D01*
G01*
X118060Y174020D02*
G03*
X118106Y174405I-1388J361D01*
G01*
X117692Y173581D02*
G03*
X117922Y173746I-206J531D01*
G01*
X118651Y174044D02*
G03*
X118676Y174405I-2434J349D01*
G01*
X118453Y173488D02*
G03*
X118577Y173738I-945J624D01*
G01*
X117056Y173601D02*
G03*
X117369Y173526I307J595D01*
G01*
X117086Y172994D02*
G03*
X117392Y172959I299J1280D01*
G01*
X115636Y174661D02*
G03*
X115588Y174943I-905J-11D01*
G01*
X115828Y175540D02*
G03*
X115442Y175777I-935J-1090D01*
G01*
X116180Y173997D02*
G03*
X116206Y174397I-2849J383D01*
G01*
X115588Y174943D02*
G03*
X115460Y175150I-530J-184D01*
G01*
X115589Y173887D02*
G03*
X115636Y174193I-850J288D01*
G01*
X115976Y173419D02*
G03*
X116104Y173671I-831J580D01*
G01*
X116111Y175096D02*
G03*
X115993Y175350I-1073J-344D01*
G01*
X115460Y175150D02*
G03*
X115270Y175277I-398J-388D01*
G01*
X115381Y173030D02*
G03*
X115797Y173241I-537J1569D01*
G01*
X116182Y174778D02*
G03*
X116111Y175096I-1755J-225D01*
G01*
X116206Y174397D02*
G03*
X116182Y174778I-2863J15D01*
G01*
X115797Y173241D02*
G03*
X115976Y173419I-415J596D01*
G01*
X115993Y175350D02*
G03*
X115828Y175540I-696J-438D01*
G01*
X117058Y175213D02*
G03*
X116793Y174991I394J-739D01*
G01*
X116104Y173671D02*
G03*
X116180Y173997I-1589J546D01*
G01*
X116373Y173448D02*
G03*
X116814Y173097I1176J1026D01*
G01*
Y175718D02*
G03*
X116373Y175365I750J-1392D01*
G01*
X118279Y175519D02*
G03*
X117859Y175772I-939J-1085D01*
G01*
X117392Y175856D02*
G03*
X117086Y175822I-7J-1303D01*
G01*
X117692Y175232D02*
G03*
X117369Y175287I-305J-811D01*
G01*
Y175287D02*
G03*
X117058Y175213I-5J-672D01*
G01*
X117086Y175822D02*
G03*
X116814Y175718I257J-1080D01*
G01*
X117859Y175772D02*
G03*
X117392Y175856I-461J-1221D01*
G01*
X119949Y175521D02*
G03*
X119632Y175773I-672J-522D01*
G01*
X119917Y174963D02*
G03*
X119789Y175146I-403J-145D01*
G01*
X119959Y174694D02*
G03*
X119917Y174963I-761J17D01*
G01*
X119789Y175146D02*
G03*
X119408Y175287I-380J-443D01*
G01*
X119408Y175287D02*
G03*
X119219Y175252I2J-541D01*
G01*
X119632Y175773D02*
G03*
X119212Y175856I-402J-920D01*
G01*
X127813Y172959D02*
G03*
X128478Y173085I12J1757D01*
G01*
X128252Y173584D02*
G03*
X128662Y173857I-485J1170D01*
G01*
X127769Y173493D02*
G03*
X128252Y173584I12J1269D01*
G01*
X128478Y173085D02*
G03*
X129060Y173463I-720J1743D01*
G01*
X127819Y175856D02*
G03*
X127474Y175830I-12J-2120D01*
G01*
X128232Y175801D02*
G03*
X127819Y175856I-398J-1406D01*
G01*
X127474Y175830D02*
G03*
X127183Y175752I222J-1402D01*
G01*
X128798Y175362D02*
G03*
X128571Y175635I-635J-296D01*
G01*
D02*
G03*
X128232Y175801I-641J-882D01*
G01*
X127183Y175752D02*
G03*
X126708Y175471I623J-1597D01*
G01*
X127084Y174595D02*
G03*
X126831Y174407I241J-587D01*
G01*
X127410Y175246D02*
G03*
X127061Y175057I726J-1756D01*
G01*
X126688Y174142D02*
G03*
X126640Y173830I941J-303D01*
G01*
X127360Y173016D02*
G03*
X127813Y172959I438J1666D01*
G01*
X127548Y173516D02*
G03*
X127769Y173493I212J970D01*
G01*
X126831Y174407D02*
G03*
X126688Y174142I675J-535D01*
G01*
X126288Y174411D02*
G03*
X126270Y174809I-3858J26D01*
G01*
X126640Y173830D02*
G03*
X126726Y173460I778J-15D01*
G01*
X126216Y175090D02*
G03*
X125981Y175494I-1039J-334D01*
G01*
X125842Y173193D02*
G03*
X125981Y173319I-586J781D01*
G01*
X126270Y174007D02*
G03*
X126288Y174411I-3962J378D01*
G01*
X126726Y173460D02*
G03*
X126981Y173186I660J359D01*
G01*
X124662Y175079D02*
G03*
X124553Y174839I617J-424D01*
G01*
X125421Y175827D02*
G03*
X125120Y175856I-287J-1390D01*
G01*
X124823Y175827D02*
G03*
X124585Y175739I173J-832D01*
G01*
X125842Y175619D02*
G03*
X125659Y175739I-992J-1319D01*
G01*
X125391Y175235D02*
G03*
X125120Y175287I-255J-598D01*
G01*
X125981Y175494D02*
G03*
X125842Y175619I-754J-695D01*
G01*
X125578Y175079D02*
G03*
X125391Y175235I-373J-257D01*
G01*
X125120Y175856D02*
G03*
X124823Y175827I-13J-1392D01*
G01*
X125120Y175287D02*
G03*
X124851Y175235I-15J-645D01*
G01*
X124851Y175235D02*
G03*
X124662Y175079I192J-426D01*
G01*
X125659Y175739D02*
G03*
X125421Y175827I-407J-735D01*
G01*
X127232Y173967D02*
G03*
X127210Y173857I244J-105D01*
G01*
X127250Y173699D02*
G03*
X127368Y173585I271J164D01*
G01*
X127368Y173585D02*
G03*
X127548Y173516I317J558D01*
G01*
X127557Y174135D02*
G03*
X127405Y174106I51J-685D01*
G01*
X127405Y174106D02*
G03*
X127296Y174050I99J-325D01*
G01*
X126981Y173186D02*
G03*
X127360Y173016I712J1079D01*
G01*
X127296Y174050D02*
G03*
X127232Y173967I137J-174D01*
G01*
X127210Y173857D02*
G03*
X127250Y173699I309J-7D01*
G01*
X124823Y172988D02*
G03*
X125120Y172959I284J1394D01*
G01*
Y172959D02*
G03*
X125421Y172988I14J1451D01*
G01*
X124553Y174839D02*
G03*
X124530Y174668I1028J-228D01*
G01*
X124530Y174142D02*
G03*
X124553Y173971I1050J57D01*
G01*
X124553Y173971D02*
G03*
X124662Y173734I697J176D01*
G01*
X124585Y173074D02*
G03*
X124823Y172988I409J759D01*
G01*
X124662Y173734D02*
G03*
X124851Y173578I381J270D01*
G01*
X124530Y174668D02*
G03*
X124522Y174405I3724J-243D01*
G01*
X124851Y173578D02*
G03*
X125120Y173526I254J593D01*
G01*
X124522Y174405D02*
G03*
X124530Y174142I3706J-20D01*
G01*
X125120Y173526D02*
G03*
X125391Y173578I16J650D01*
G01*
X126216Y173723D02*
G03*
X126270Y174007I-1381J407D01*
G01*
X125659Y173074D02*
G03*
X125842Y173193I-738J1345D01*
G01*
X125421Y172988D02*
G03*
X125659Y173074I-167J835D01*
G01*
X125578Y173734D02*
G03*
X125688Y173972I-516J383D01*
G01*
X125981Y173319D02*
G03*
X126216Y173723I-804J738D01*
G01*
X125391Y173578D02*
G03*
X125578Y173734I-186J413D01*
G01*
X125688Y174839D02*
G03*
X125578Y175079I-650J-154D01*
G01*
X125688Y173972D02*
G03*
X125710Y174146I-1143J231D01*
G01*
X125717Y174411D02*
G03*
X125710Y174669I-3931J20D01*
G01*
X126270Y174809D02*
G03*
X126216Y175090I-1430J-126D01*
G01*
X125710Y174146D02*
G03*
X125717Y174411I-4135J245D01*
G01*
X125710Y174669D02*
G03*
X125688Y174839I-1135J-58D01*
G01*
X127257Y174650D02*
G03*
X127084Y174595I200J-934D01*
G01*
X127461Y174678D02*
G03*
X127257Y174650I89J-1395D01*
G01*
X128112Y174742D02*
G03*
X128225Y174806I-75J268D01*
G01*
X128198Y175223D02*
G03*
X128050Y175295I-221J-263D01*
G01*
X128816Y174658D02*
G03*
X128874Y174983I-800J310D01*
G01*
X128058Y174182D02*
G03*
X128380Y174253I-71J1088D01*
G01*
X128642Y174413D02*
G03*
X128816Y174658I-428J488D01*
G01*
X128874Y174983D02*
G03*
X128798Y175362I-890J19D01*
G01*
X128380Y174253D02*
G03*
X128642Y174413I-322J821D01*
G01*
X128304Y174978D02*
G03*
X128198Y175223I-316J8D01*
G01*
X128225Y174806D02*
G03*
X128284Y174888I-201J207D01*
G01*
X128050Y175295D02*
G03*
X127819Y175320I-213J-921D01*
G01*
X127819Y175320D02*
G03*
X127410Y175246I-18J-1068D01*
G01*
X128284Y174888D02*
G03*
X128304Y174978I-192J90D01*
G01*
X127930Y174711D02*
G03*
X128112Y174742I-43J788D01*
G01*
X129403Y169091D02*
G03*
X129542Y169037I236J404D01*
G01*
Y170762D02*
G03*
X129403Y170709I97J-458D01*
G01*
X129163Y169904D02*
G03*
X129243Y169306I2202J-8D01*
G01*
X131246Y174933D02*
G03*
X131206Y174678I717J-243D01*
G01*
X132317Y175521D02*
G03*
X132000Y175773I-672J-522D01*
G01*
X132168Y175126D02*
G03*
X131987Y175247I-377J-369D01*
G01*
X132288Y174933D02*
G03*
X132168Y175126I-486J-169D01*
G01*
X132328Y174678D02*
G03*
X132288Y174933I-757J12D01*
G01*
X130713Y175297D02*
G03*
X130656Y175100I870J-361D01*
G01*
X131256Y175794D02*
G03*
X130943Y175606I445J-1093D01*
G01*
X131366Y175126D02*
G03*
X131246Y174933I366J-362D01*
G01*
X131545Y175247D02*
G03*
X131366Y175126I201J-493D01*
G01*
X132000Y175773D02*
G03*
X131580Y175856I-402J-920D01*
G01*
X130656Y175100D02*
G03*
X130636Y174874I1246J-219D01*
G01*
X131580Y175856D02*
G03*
X131256Y175794I2J-878D01*
G01*
X131987Y175247D02*
G03*
X131763Y175287I-216J-559D01*
G01*
X130943Y175606D02*
G03*
X130713Y175297I494J-609D01*
G01*
X131763Y175287D02*
G03*
X131545Y175247I-7J-577D01*
G01*
X133862Y173767D02*
G03*
X134153Y173562I678J651D01*
G01*
X134753Y173537D02*
G03*
X134969Y173668I-214J596D01*
G01*
X133674Y173204D02*
G03*
X133924Y173064I662J888D01*
G01*
X133924Y173064D02*
G03*
X134474Y172959I546J1369D01*
G01*
X134153Y173562D02*
G03*
X134484Y173493I327J746D01*
G01*
X133450Y173415D02*
G03*
X133674Y173204I1042J883D01*
G01*
X134015Y174943D02*
G03*
X133963Y174661I873J-305D01*
G01*
X134331Y175277D02*
G03*
X134143Y175150I211J-514D01*
G01*
X133483Y175153D02*
G03*
X133395Y174661I1226J-471D01*
G01*
X133745Y175533D02*
G03*
X133483Y175153I701J-764D01*
G01*
X134143Y175150D02*
G03*
X134015Y174943I411J-398D01*
G01*
X134560Y175856D02*
G03*
X134123Y175776I-9J-1175D01*
G01*
X134123D02*
G03*
X133745Y175533I455J-1128D01*
G01*
X129894Y168453D02*
G03*
X130138Y168478I8J1100D01*
G01*
X129243Y169306D02*
G03*
X129403Y169091I340J86D01*
G01*
X130345Y168555D02*
G03*
X130652Y168818I-431J816D01*
G01*
X130652D02*
G03*
X130814Y169174I-637J503D01*
G01*
X130844Y169459D02*
G03*
X130854Y169904I-8210J410D01*
G01*
X129720Y169019D02*
G03*
X129902Y169037I9J872D01*
G01*
X130138Y168478D02*
G03*
X130345Y168555I-174J787D01*
G01*
X130043Y169088D02*
G03*
X130204Y169295I-164J294D01*
G01*
X129902Y169037D02*
G03*
X130043Y169088I-96J481D01*
G01*
X129542Y169037D02*
G03*
X129720Y169019I170J796D01*
G01*
X130204Y169295D02*
G03*
X130285Y169904I-2087J586D01*
G01*
X130814Y169174D02*
G03*
X130844Y169459I-2148J373D01*
G01*
X134151Y170727D02*
G03*
X134046Y170611I156J-249D01*
G01*
X133542Y170855D02*
G03*
X133482Y170653I874J-368D01*
G01*
X134139Y171299D02*
G03*
X133774Y171145I259J-1122D01*
G01*
X134604Y171347D02*
G03*
X134139Y171299I-41J-1893D01*
G01*
X133482Y170653D02*
G03*
X133460Y170414I1388J-249D01*
G01*
X133774Y171145D02*
G03*
X133542Y170855I386J-547D01*
G01*
X134328Y170794D02*
G03*
X134151Y170727I90J-502D01*
G01*
X134046Y170611D02*
G03*
X134011Y170447I323J-153D01*
G01*
X134904Y170768D02*
G03*
X134757Y170802I-247J-749D01*
G01*
X134577Y170813D02*
G03*
X134328Y170794I-37J-1153D01*
G01*
X131482Y171350D02*
G03*
X131179Y171295I-0J-869D01*
G01*
X130814Y170626D02*
G03*
X130652Y170982I-816J-154D01*
G01*
X129894Y171350D02*
G03*
X129499Y171257I-12J-840D01*
G01*
X130652Y170982D02*
G03*
X130345Y171245I-767J-585D01*
G01*
X130138Y171324D02*
G03*
X129894Y171350I-236J-1048D01*
G01*
X129720Y170780D02*
G03*
X129542Y170762I-8J-814D01*
G01*
X129902Y170763D02*
G03*
X129720Y170780I-173J-855D01*
G01*
X130043Y170711D02*
G03*
X129902Y170763I-237J-429D01*
G01*
X131179Y171295D02*
G03*
X130891Y171131I381J-1005D01*
G01*
X129499Y171257D02*
G03*
X129163Y171015I711J-1340D01*
G01*
X130345Y171245D02*
G03*
X130138Y171324I-382J-695D01*
G01*
X131489Y170745D02*
G03*
X131302Y170640I266J-693D01*
G01*
X131679Y170780D02*
G03*
X131489Y170745I2J-541D01*
G01*
X132230Y170187D02*
G03*
X132187Y170456I-761J17D01*
G01*
X131902Y171266D02*
G03*
X131482Y171350I-402J-920D01*
G01*
X132187Y170456D02*
G03*
X132059Y170640I-403J-145D01*
G01*
X132059D02*
G03*
X131679Y170780I-380J-443D01*
G01*
X132219Y171015D02*
G03*
X131902Y171266I-672J-522D01*
G01*
X134455Y168460D02*
G03*
X134703Y168442I236J1559D01*
G01*
X134011Y169470D02*
G03*
X134044Y169208I874J-23D01*
G01*
X134023Y168725D02*
G03*
X134260Y168513I405J215D01*
G01*
X134142Y169061D02*
G03*
X134336Y168995I267J464D01*
G01*
X134260Y168513D02*
G03*
X134455Y168460I320J793D01*
G01*
X134085Y169120D02*
G03*
X134142Y169061I179J117D01*
G01*
X130204Y170505D02*
G03*
X130043Y170711I-326J-88D01*
G01*
X130854Y169904D02*
G03*
X130844Y170344I-8016J35D01*
G01*
X130844Y170344D02*
G03*
X130814Y170626I-2125J-87D01*
G01*
X129403Y170709D02*
G03*
X129243Y170494I181J-301D01*
G01*
X130285Y169904D02*
G03*
X130204Y170505I-2133J19D01*
G01*
X129243Y170494D02*
G03*
X129163Y169904I2088J-586D01*
G01*
X129163Y168780D02*
G03*
X129495Y168535I750J667D01*
G01*
D02*
G03*
X129894Y168453I390J886D01*
G01*
X135154Y169334D02*
G03*
X135127Y169479I-326J14D01*
G01*
X134870Y169004D02*
G03*
X135030Y169088I-93J371D01*
G01*
X134887Y169651D02*
G03*
X134675Y169678I-228J-947D01*
G01*
X134044Y169208D02*
G03*
X134085Y169120I332J102D01*
G01*
X135167Y170083D02*
G03*
X134778Y170147I-381J-1102D01*
G01*
X134176Y195026D02*
G03*
X134002Y195043I-97J-97D01*
G01*
X134002Y178182D02*
G03*
X134176Y178198I77J113D01*
G01*
X136025Y193020D02*
G03*
X136009Y193193I-113J77D01*
G01*
X116991Y185316D02*
G03*
X117102Y185182I137J0D01*
G01*
Y188043D02*
G03*
X116991Y187908I26J-134D01*
G01*
X119746Y184609D02*
G03*
X119645Y184691I-126J-52D01*
G01*
Y188533D02*
G03*
X119746Y188615I-26J134D01*
G01*
X120615Y182350D02*
G03*
X120628Y182479I-113J77D01*
G01*
X124436Y179242D02*
G03*
X124616Y179317I52J126D01*
G01*
X130573D02*
G03*
X130752Y179242I127J52D01*
G01*
X131857Y179633D02*
G03*
X131728Y179646I-77J-113D01*
G01*
X128847Y183891D02*
G03*
X126342Y183891I-1252J2721D01*
G01*
X128847Y183891D02*
G03*
X128777Y183715I57J-124D01*
G01*
X126411D02*
G03*
X126342Y183891I-127J52D01*
G01*
X129516Y194561D02*
G03*
X129598Y194461I134J26D01*
G01*
X129025Y197104D02*
G03*
X128891Y197215I-134J-26D01*
G01*
X125591Y194461D02*
G03*
X125673Y194561I-52J126D01*
G01*
X131728Y193578D02*
G03*
X131857Y193591I52J126D01*
G01*
X126298Y197215D02*
G03*
X126164Y197104I0J-137D01*
G01*
X123332Y193591D02*
G03*
X123461Y193578I77J113D01*
G01*
X121187Y195043D02*
G03*
X121013Y195026I-77J-113D01*
G01*
X120628Y190745D02*
G03*
X120615Y190875I-126J52D01*
G01*
X119180Y193193D02*
G03*
X119164Y193020I97J-97D01*
G01*
X138198Y187908D02*
G03*
X138087Y188043I-137J0D01*
G01*
Y185182D02*
G03*
X138198Y185316I-26J134D01*
G01*
X134574Y190875D02*
G03*
X134561Y190745I113J-77D01*
G01*
Y182479D02*
G03*
X134574Y182350I126J-52D01*
G01*
X135443Y188615D02*
G03*
X135544Y188533I126J52D01*
G01*
X136009Y180031D02*
G03*
X136025Y180204I-97J97D01*
G01*
X135544Y184691D02*
G03*
X135443Y184609I26J-134D01*
G01*
X123461Y179646D02*
G03*
X123332Y179633I-52J-126D01*
G01*
X119164Y180204D02*
G03*
X119180Y180031I113J-77D01*
G01*
X121013Y178198D02*
G03*
X121187Y178182I97J97D01*
G01*
X116973Y169686D02*
X118736D01*
X117027Y168908D02*
X117440Y169260D01*
X116973Y169686D02*
Y170155D01*
X122471Y168725D02*
X122483D01*
X122471Y169470D02*
Y169678D01*
X121920Y168475D02*
Y170414D01*
X122471Y168475D02*
Y168725D01*
Y170147D02*
Y170447D01*
X121920Y168475D02*
X122471D01*
X120681Y171317D02*
X121250D01*
X120681Y168485D02*
X121250D01*
X119342Y171131D02*
X119753Y170640D01*
X120681Y168485D02*
Y170187D01*
Y171015D02*
Y171317D01*
X121250Y168485D02*
Y171317D01*
X120670Y171015D02*
X120681D01*
X123558Y170592D02*
X123994Y170935D01*
X122471Y170147D02*
X123238D01*
X122471Y169678D02*
X123135D01*
X117541Y170155D02*
X118736D01*
X135098Y170592D02*
X135534Y170935D01*
X137847Y175824D02*
X138416D01*
X137847Y171015D02*
Y173292D01*
Y168485D02*
Y170172D01*
Y168485D02*
X138416D01*
X137847Y175526D02*
Y175824D01*
X138416Y168485D02*
Y175824D01*
X136155Y168485D02*
X136725D01*
X136155D02*
Y170368D01*
X136725Y168485D02*
Y170172D01*
X137836Y171015D02*
X137847D01*
X113928Y173415D02*
X114340Y173767D01*
X113873Y174193D02*
Y174661D01*
Y174193D02*
X115636D01*
X114441Y174661D02*
X115636D01*
X118620Y175638D02*
X119031Y175147D01*
X123436Y173941D02*
Y175824D01*
X121745Y174135D02*
Y175824D01*
X120529Y172992D02*
Y175824D01*
X121175Y172992D02*
Y175824D01*
X121745D01*
X122867D02*
X123436D01*
X122867Y174135D02*
Y175824D01*
X116373Y173448D02*
X116793Y173825D01*
X116373Y175365D02*
X116793Y174991D01*
X119959Y175824D02*
X120529D01*
X121175Y172992D02*
X121745D01*
Y173292D01*
X119959Y172992D02*
X120529D01*
X121745Y173292D02*
X121757D01*
X119949Y175521D02*
X119959D01*
Y175824D01*
Y172992D02*
Y174694D01*
X127557Y174135D02*
X128058Y174182D01*
X128662Y173857D02*
X129060Y173463D01*
X126708Y175471D02*
X127061Y175057D01*
X124844Y171317D02*
X125386Y169334D01*
X125398D01*
X126038Y171317D02*
X126453D01*
X127461Y174678D02*
X127930Y174711D01*
X128593Y172460D02*
X129163D01*
X128593Y168485D02*
Y172460D01*
X129163Y171015D02*
Y172460D01*
X127346Y168485D02*
X128250Y171317D01*
X128593Y168485D02*
X129163D01*
X125648D02*
X126241Y170466D01*
X126251D02*
X126843Y168485D01*
X127346D01*
X126453Y171317D02*
X127094Y169334D01*
X127105D01*
X127648Y171317D01*
X126241Y170466D02*
X126251D01*
X127648Y171317D02*
X128250D01*
X125146Y168485D02*
X125648D01*
X124241Y171317D02*
X125146Y168485D01*
X124241Y171317D02*
X124844D01*
X125398Y169334D02*
X126038Y171317D01*
X132328Y175824D02*
X132897D01*
Y172992D02*
Y175824D01*
X130636Y172992D02*
X131206D01*
Y174678D01*
X132328Y172992D02*
X132897D01*
X132328D02*
Y174678D01*
X130636Y172992D02*
Y174874D01*
X132328Y175521D02*
Y175824D01*
X132317Y175521D02*
X132328D01*
X133450Y173415D02*
X133862Y173767D01*
X133395Y174193D02*
Y174661D01*
Y174193D02*
X135159D01*
X133963Y174661D02*
X135159D01*
X130891Y171131D02*
X131302Y170640D01*
X132219Y171015D02*
X132230D01*
Y171317D01*
X132799Y168485D02*
Y171317D01*
X133460Y168475D02*
Y170414D01*
X132230Y168485D02*
Y170187D01*
Y171317D02*
X132799D01*
X134011Y168475D02*
Y168725D01*
X134023D01*
X132230Y168485D02*
X132799D01*
X129163D02*
Y168780D01*
X133460Y168475D02*
X134011D01*
Y169678D02*
X134675D01*
X134011Y170147D02*
Y170447D01*
Y169470D02*
Y169678D01*
Y170147D02*
X134778D01*
X131857Y179633D02*
X134002Y178182D01*
X134176Y178198D02*
X136009Y180031D01*
X131857Y193591D02*
X134002Y195043D01*
X134574Y190875D02*
X136025Y193020D01*
X134176Y195026D02*
X136009Y193193D01*
X117102Y185182D02*
X119645Y184691D01*
X119746Y184609D02*
X120628Y182479D01*
X119746Y188615D02*
X120628Y190745D01*
X119164Y180204D02*
X120615Y182350D01*
X116991Y185316D02*
Y187908D01*
X117102Y188043D02*
X119645Y188533D01*
X124616Y179317D02*
X126411Y183715D01*
X130752Y179242D02*
X131728Y179646D01*
X128777Y183715D02*
X130573Y179317D01*
X129598Y194461D02*
X131728Y193578D01*
X125673Y194561D02*
X126164Y197104D01*
X126298Y197215D02*
X128891D01*
X123461Y193578D02*
X125591Y194461D01*
X129025Y197104D02*
X129516Y194561D01*
X119164Y193020D02*
X120615Y190875D01*
X121187Y195043D02*
X123332Y193591D01*
X119180Y193193D02*
X121013Y195026D01*
X134561Y190745D02*
X135443Y188615D01*
X135544Y184691D02*
X138087Y185182D01*
X135544Y188533D02*
X138087Y188043D01*
X134561Y182479D02*
X135443Y184609D01*
X134574Y182350D02*
X136025Y180204D01*
X138198Y185316D02*
Y187908D01*
X121187Y178182D02*
X123332Y179633D01*
X119180Y180031D02*
X121013Y178198D01*
X123461Y179646D02*
X124436Y179242D01*
D56*
X7382Y1181D02*
X90059D01*
X7382D02*
X90059D01*
X65453Y201969D02*
X90059D01*
X65453D02*
X90059D01*
X7382D02*
X32972D01*
X7382D02*
X32972D01*
M02*
