G04*
G04 #@! TF.GenerationSoftware,Altium Limited,Altium Designer,21.3.1 (25)*
G04*
G04 Layer_Color=8421504*
%FSLAX25Y25*%
%MOIN*%
G70*
G04*
G04 #@! TF.SameCoordinates,0F46E8F8-C812-4C73-86AE-EEEB37A8DDC9*
G04*
G04*
G04 #@! TF.FilePolarity,Positive*
G04*
G01*
G75*
%ADD23R,0.02362X0.02559*%
%ADD24R,0.04921X0.02756*%
%ADD25R,0.02559X0.02362*%
%ADD26R,0.05787X0.04567*%
%ADD27R,0.01772X0.05433*%
%ADD28R,0.05610X0.06102*%
%ADD29R,0.03937X0.07480*%
%ADD30R,0.07087X0.07480*%
%ADD31R,0.06496X0.05118*%
%ADD32O,0.07087X0.02362*%
%ADD33R,0.08268X0.05512*%
D23*
X64173Y87106D02*
D03*
X60827D02*
D03*
X69193Y87106D02*
D03*
X72539D02*
D03*
X30217Y87106D02*
D03*
X26870D02*
D03*
X35236Y87106D02*
D03*
X38583D02*
D03*
X30217Y107480D02*
D03*
X26870D02*
D03*
X35236Y107480D02*
D03*
X38583D02*
D03*
X64173Y107480D02*
D03*
X60827D02*
D03*
X69193Y107480D02*
D03*
X72539D02*
D03*
X64173Y188976D02*
D03*
X60827D02*
D03*
X69193Y188976D02*
D03*
X72539D02*
D03*
X30217Y168602D02*
D03*
X26870D02*
D03*
X35236Y168602D02*
D03*
X38583D02*
D03*
X64173Y168602D02*
D03*
X60827D02*
D03*
X69193Y168602D02*
D03*
X72539D02*
D03*
X30217Y148228D02*
D03*
X26870D02*
D03*
X35236Y148228D02*
D03*
X38583D02*
D03*
X64173Y148228D02*
D03*
X60827D02*
D03*
X69193Y148228D02*
D03*
X72539D02*
D03*
X30217Y127854D02*
D03*
X26870D02*
D03*
X35236Y127854D02*
D03*
X38583D02*
D03*
X64173Y127854D02*
D03*
X60827D02*
D03*
X69193Y127854D02*
D03*
X72539D02*
D03*
X38583Y188976D02*
D03*
X35236D02*
D03*
X26870Y188976D02*
D03*
X30217D02*
D03*
X59547Y10827D02*
D03*
X56201D02*
D03*
Y5906D02*
D03*
X59547D02*
D03*
X56201Y15748D02*
D03*
X59547D02*
D03*
Y20669D02*
D03*
X56201D02*
D03*
X67421Y25098D02*
D03*
X70768D02*
D03*
X70768Y30020D02*
D03*
X67421Y30020D02*
D03*
X70768Y20177D02*
D03*
X67421D02*
D03*
X67421Y44783D02*
D03*
X70768D02*
D03*
X70768Y39862D02*
D03*
X67421Y39862D02*
D03*
X70768Y34941D02*
D03*
X67421D02*
D03*
X67421Y49705D02*
D03*
X70768Y49705D02*
D03*
X70768Y54626D02*
D03*
X67421D02*
D03*
X70768Y59547D02*
D03*
X67421D02*
D03*
D24*
X27172Y183366D02*
D03*
Y175886D02*
D03*
X37014Y179626D02*
D03*
X70971Y118504D02*
D03*
X61128Y114764D02*
D03*
Y122244D02*
D03*
X37014Y118504D02*
D03*
X27172Y114764D02*
D03*
Y122244D02*
D03*
X70971Y138878D02*
D03*
X61128Y135138D02*
D03*
Y142618D02*
D03*
X37014Y138878D02*
D03*
X27172Y135138D02*
D03*
Y142618D02*
D03*
X70971Y159252D02*
D03*
X61128Y155512D02*
D03*
Y162992D02*
D03*
X37014Y159252D02*
D03*
X27172Y155512D02*
D03*
Y162992D02*
D03*
X70971Y179626D02*
D03*
X61128Y175886D02*
D03*
Y183366D02*
D03*
X70971Y98130D02*
D03*
X61128Y94390D02*
D03*
Y101870D02*
D03*
X37014Y98130D02*
D03*
X27172Y94390D02*
D03*
Y101870D02*
D03*
X37014Y77756D02*
D03*
X27172Y74016D02*
D03*
Y81496D02*
D03*
X70971Y77756D02*
D03*
X61128Y74016D02*
D03*
Y81496D02*
D03*
D25*
X45276Y68799D02*
D03*
Y65453D02*
D03*
X55118Y65453D02*
D03*
Y68799D02*
D03*
X50197Y68799D02*
D03*
X50197Y65453D02*
D03*
X30512Y65453D02*
D03*
Y68799D02*
D03*
X35433Y68799D02*
D03*
Y65453D02*
D03*
X40354Y68799D02*
D03*
X40354Y65453D02*
D03*
D26*
X68898Y6831D02*
D03*
Y13839D02*
D03*
D27*
X37697Y197106D02*
D03*
X40256Y197106D02*
D03*
X42815Y197106D02*
D03*
X45374Y197106D02*
D03*
X47933Y197106D02*
D03*
D28*
X33022Y197441D02*
D03*
X52608D02*
D03*
D29*
X36713Y207579D02*
D03*
D30*
X47343D02*
D03*
D31*
X29528D02*
D03*
X56102D02*
D03*
D32*
X53543Y29783D02*
D03*
Y34784D02*
D03*
Y39783D02*
D03*
Y44783D02*
D03*
Y49784D02*
D03*
Y54783D02*
D03*
Y59784D02*
D03*
X33071Y29783D02*
D03*
Y34784D02*
D03*
Y39783D02*
D03*
Y44783D02*
D03*
Y49784D02*
D03*
Y54783D02*
D03*
Y59784D02*
D03*
D33*
X44291Y22638D02*
D03*
X8465D02*
D03*
X44291Y4921D02*
D03*
X8465Y4921D02*
D03*
M02*
