M48
;Layer_Color=9474304
;FILE_FORMAT=2:5
INCH,TZ
;TYPE=PLATED
T1F00S00C0.01181
T2F00S00C0.03937
T3F00S00C0.12598
%
T01
X19193Y24606
X26083Y17717
X48994Y12029
X52658Y24114
X75295Y25098
X77756Y21161
X78248Y30512
X95965
X104823Y28543
X75295Y11811
Y45276
X70866Y62992
X74803Y67421
X78248Y80709
X76121Y86614
Y106791
X77756Y110728
X76121Y126969
X78740Y131398
X76772Y148130
X78740Y155512
Y164370
X76772Y168799
X78150Y176575
X76279Y187992
X49213Y186516
X45276Y185039
X42323Y188976
Y173228
X47244Y167323
X45276Y160925
X42323Y151575
X49705
X47736Y147638
X55610Y140748
X55118Y157480
X56102Y167815
X36909Y155474
X42323Y131890
X46752Y127461
X55118Y115157
X42323Y111221
X42815Y91043
X51181Y86614
X54626Y94488
X56102Y73819
X59547Y60039
X45276Y62500
X40354Y62500
X42323Y58071
X45276Y53150
Y44291
X124016Y56595
X116634Y85138
X118602Y106299
X119587Y110728
X32972Y111713
X20669Y119095
X19685Y126476
X20669Y131890
X24606
X21161Y136319
X19685Y152067
X21654Y155512
X19193Y166831
X19685Y176673
X32480Y163386
X20669Y94488
X19685Y76772
X19193Y56595
X24114Y57579
X19685Y46260
X19193Y36909
X26575Y192913
X56102Y189961
X77756Y192421
X63878Y207579
T02
X100531Y42146
Y53051
Y63957
Y74862
Y85768
Y96673
Y107579
Y118484
Y129390
Y140295
Y151201
Y162106
Y173012
X111713Y167559
Y156653
Y145748
Y134843
Y123937
Y113031
Y102126
Y91220
Y80315
Y69410
Y58504
Y47598
T03
X106122Y14862
Y200295
M30
